<svg width="40" height="16" viewBox="0 0 40 16" fill="none" xmlns="http://www.w3.org/2000/svg">
<g clip-path="url(#clip0_1932_144255)">
<path d="M10.1636 7.322L3.26656 0.4065L12.0416 5.444L10.1636 7.322ZM1.46706 0C1.06056 0.2125 0.789062 0.6 0.789062 1.103V14.8935C0.789062 15.3965 1.06106 15.784 1.46706 15.9965L9.48606 7.9965L1.46706 0ZM14.7541 7.05L12.9136 5.9845L10.8606 8L12.9136 10.0155L14.7916 8.95C15.3541 8.5035 15.3541 7.497 14.7541 7.05ZM3.26706 15.594L12.0421 10.5565L10.1641 8.6785L3.26706 15.594Z" fill="#2054D2"/>
</g>
<line x1="20.2266" y1="3.92187" x2="20.2266" y2="12.0781" stroke="#90AAE9" stroke-width="0.453125"/>
<path fill-rule="evenodd" clip-rule="evenodd" d="M34.4442 2.5543C35.0275 1.8783 35.4206 0.936784 35.313 0C34.4725 0.032 33.4557 0.536917 32.853 1.21211C32.3118 1.8113 31.8394 2.76872 31.9664 3.68711C32.904 3.7567 33.861 3.23108 34.4442 2.5543ZM36.5467 8.5C36.5701 10.9216 38.7632 11.7271 38.7875 11.7375C38.7697 11.7943 38.4372 12.8853 37.6323 14.0133C36.9358 14.9877 36.2134 15.9581 35.0752 15.9789C33.9572 15.9989 33.5972 15.3438 32.3183 15.3438C31.0401 15.3438 30.6405 15.958 29.5824 15.9988C28.4838 16.038 27.6465 14.9446 26.9452 13.9734C25.5101 11.9871 24.414 8.36007 25.8863 5.91211C26.6176 4.69693 27.924 3.92623 29.3429 3.90703C30.4213 3.88703 31.4397 4.60234 32.099 4.60234C32.7583 4.60234 33.996 3.74235 35.2969 3.86875C35.8413 3.89035 37.3702 4.07908 38.3515 5.45586C38.2722 5.50306 36.5273 6.47603 36.5467 8.5Z" fill="#2054D2"/>
<defs>
<clipPath id="clip0_1932_144255">
<rect width="16" height="16" fill="white"/>
</clipPath>
</defs>
</svg>
