<svg width="222" height="48" viewBox="0 0 222 48" fill="none" xmlns="http://www.w3.org/2000/svg">
<rect width="222" height="48" rx="8" fill="#2E2520"/>
<g clip-path="url(#clip0_2851_294332)">
<path d="M34.1636 23.322L27.2666 16.4065L36.0416 21.444L34.1636 23.322ZM25.4671 16C25.0606 16.2125 24.7891 16.6 24.7891 17.103V30.8935C24.7891 31.3965 25.0611 31.784 25.4671 31.9965L33.4861 23.9965L25.4671 16ZM38.7541 23.05L36.9136 21.9845L34.8606 24L36.9136 26.0155L38.7916 24.95C39.3541 24.5035 39.3541 23.497 38.7541 23.05ZM27.2671 31.594L36.0421 26.5565L34.1641 24.6785L27.2671 31.594Z" fill="#FFFCF4"/>
</g>
<line opacity="0.8" x1="44.2266" y1="19.9219" x2="44.2266" y2="28.0781" stroke="#DADADA" stroke-width="0.453125"/>
<path fill-rule="evenodd" clip-rule="evenodd" d="M58.4442 18.5543C59.0275 17.8783 59.4206 16.9368 59.313 16C58.4725 16.032 57.4557 16.5369 56.853 17.2121C56.3118 17.8113 55.8394 18.7687 55.9664 19.6871C56.904 19.7567 57.861 19.2311 58.4442 18.5543ZM60.5467 24.5C60.5701 26.9216 62.7632 27.7271 62.7875 27.7375C62.7697 27.7943 62.4372 28.8853 61.6323 30.0133C60.9358 30.9877 60.2134 31.9581 59.0752 31.9789C57.9572 31.9989 57.5972 31.3438 56.3183 31.3438C55.0401 31.3438 54.6405 31.958 53.5824 31.9988C52.4838 32.038 51.6465 30.9446 50.9452 29.9734C49.5101 27.9871 48.414 24.3601 49.8863 21.9121C50.6176 20.6969 51.924 19.9262 53.3429 19.907C54.4213 19.887 55.4397 20.6023 56.099 20.6023C56.7583 20.6023 57.996 19.7424 59.2969 19.8688C59.8413 19.8904 61.3702 20.0791 62.3515 21.4559C62.2722 21.5031 60.5273 22.476 60.5467 24.5Z" fill="#FFFCF4"/>
<path d="M77.152 29.5V18.972H80.416C83.92 18.972 86.176 20.988 86.176 24.108C86.176 27.388 83.888 29.5 80.288 29.5H77.152ZM78.496 28.236H80.352C83.088 28.236 84.816 26.636 84.816 24.108C84.816 21.756 83.136 20.236 80.48 20.236H78.496V28.236ZM91.2293 29.676C88.9573 29.676 87.4373 28.124 87.4373 25.788C87.4373 23.436 88.9573 21.868 91.2293 21.868C93.4853 21.868 95.0052 23.42 95.0052 25.772C95.0052 28.124 93.4853 29.676 91.2293 29.676ZM91.2293 28.492C92.7013 28.492 93.6773 27.404 93.6773 25.788C93.6773 24.156 92.7013 23.052 91.2293 23.052C89.7573 23.052 88.7653 24.14 88.7653 25.772C88.7653 27.404 89.7573 28.492 91.2293 28.492ZM98.0779 29.5L95.6779 22.044H97.0379L98.6539 27.084L98.9099 28.124L99.1659 27.084L100.75 22.044H102.11L103.694 27.084L103.95 28.108L104.206 27.084L105.806 22.044H107.054L104.654 29.5H103.15L101.662 24.764L101.39 23.644L101.102 24.764L99.5819 29.5H98.0779ZM108.321 29.5V22.044H109.617V23.052C110.161 22.316 110.961 21.884 111.857 21.884C113.489 21.884 114.401 22.924 114.401 24.636V29.5H113.089V24.86C113.089 23.676 112.497 23.068 111.489 23.068C110.721 23.068 110.049 23.5 109.617 24.172V29.5H108.321ZM116.352 29.5V17.98H117.648V29.5H116.352ZM123.104 29.676C120.832 29.676 119.312 28.124 119.312 25.788C119.312 23.436 120.832 21.868 123.104 21.868C125.36 21.868 126.88 23.42 126.88 25.772C126.88 28.124 125.36 29.676 123.104 29.676ZM123.104 28.492C124.576 28.492 125.552 27.404 125.552 25.788C125.552 24.156 124.576 23.052 123.104 23.052C121.632 23.052 120.64 24.14 120.64 25.772C120.64 27.404 121.632 28.492 123.104 28.492ZM130.443 29.66C129.051 29.66 128.155 28.828 128.155 27.516C128.155 26.172 129.147 25.276 130.987 25.004L132.571 24.796V24.364C132.571 23.452 131.963 23.036 130.891 23.036C130.027 23.036 129.243 23.276 128.491 23.756V22.46C129.323 22.092 130.219 21.836 131.051 21.836C132.875 21.836 133.883 22.716 133.883 24.332V29.5H132.683L132.587 28.492C132.123 29.244 131.355 29.66 130.443 29.66ZM130.811 28.588C131.627 28.588 132.283 28.124 132.571 27.452V25.74L131.147 25.932C130.059 26.076 129.451 26.604 129.451 27.388C129.451 28.124 129.963 28.588 130.811 28.588ZM138.733 29.66C136.812 29.66 135.469 28.284 135.469 25.836C135.469 23.324 136.924 21.884 138.957 21.884C139.613 21.884 140.301 22.092 140.845 22.444V17.98H142.157V29.5H140.957L140.861 28.492C140.397 29.228 139.581 29.66 138.733 29.66ZM138.989 28.508C139.789 28.508 140.461 28.06 140.845 27.388V23.644C140.365 23.244 139.757 23.02 139.117 23.02C137.693 23.02 136.797 24.124 136.797 25.788C136.797 27.436 137.613 28.508 138.989 28.508ZM149.399 29.644C148.359 29.644 147.719 29.02 147.719 27.932V23.228H146.631V22.044H147.719V19.756H149.031V22.044H150.759V23.228H149.031V27.596C149.031 28.14 149.351 28.444 149.831 28.444C150.167 28.444 150.471 28.364 150.759 28.156V29.34C150.359 29.564 149.863 29.644 149.399 29.644ZM152.289 29.5V17.98H153.585V23.052C154.129 22.316 154.929 21.884 155.825 21.884C157.457 21.884 158.369 22.924 158.369 24.636V29.5H157.057V24.86C157.057 23.676 156.465 23.068 155.457 23.068C154.689 23.068 154.017 23.5 153.585 24.172V29.5H152.289ZM163.697 29.66C161.329 29.66 159.969 28.188 159.969 25.756C159.969 23.436 161.312 21.884 163.409 21.884C165.425 21.884 166.657 23.212 166.657 25.644V26.124H161.312C161.329 27.612 162.241 28.54 163.841 28.54C164.721 28.54 165.585 28.236 166.465 27.644V28.892C165.553 29.404 164.625 29.66 163.697 29.66ZM163.393 22.972C162.209 22.972 161.393 23.82 161.312 25.116H165.345C165.345 23.788 164.625 22.972 163.393 22.972ZM170.836 29.5L175.028 18.876H176.292L180.484 29.5H179.028L177.828 26.348H173.412L172.212 29.5H170.836ZM173.86 25.164H177.38L176.036 21.692L175.62 20.492L175.188 21.692L173.86 25.164ZM181.805 32.892V22.044H183.101V22.924C183.549 22.252 184.365 21.884 185.261 21.884C187.117 21.884 188.365 23.372 188.365 25.628C188.365 28.108 186.925 29.66 184.829 29.66C184.221 29.66 183.613 29.5 183.101 29.244V32.892H181.805ZM184.717 28.524C186.093 28.524 187.053 27.452 187.053 25.724C187.053 24.076 186.237 23.036 184.893 23.036C184.205 23.036 183.485 23.388 183.101 23.948V28.076C183.597 28.364 184.109 28.524 184.717 28.524ZM190.039 32.892V22.044H191.335V22.924C191.783 22.252 192.599 21.884 193.495 21.884C195.351 21.884 196.599 23.372 196.599 25.628C196.599 28.108 195.159 29.66 193.063 29.66C192.455 29.66 191.847 29.5 191.335 29.244V32.892H190.039ZM192.951 28.524C194.327 28.524 195.287 27.452 195.287 25.724C195.287 24.076 194.471 23.036 193.127 23.036C192.439 23.036 191.719 23.388 191.335 23.948V28.076C191.831 28.364 192.343 28.524 192.951 28.524Z" fill="#FFFCF4"/>
<defs>
<clipPath id="clip0_2851_294332">
<rect width="16" height="16" fill="white" transform="translate(24 16)"/>
</clipPath>
</defs>
</svg>
