<svg width="32" height="43" viewBox="0 0 32 43" fill="none" xmlns="http://www.w3.org/2000/svg">
<g clip-path="url(#clip0_39_144967)">
<path d="M11.4265 16.7855C12.0691 17.2675 14.4795 17.5353 15.3707 17.5084C15.5876 17.5019 15.726 17.4139 15.8131 17.2855C15.9003 17.4139 16.0387 17.5019 16.2554 17.5084C17.1468 17.5353 19.5569 17.2675 20.1999 16.7855C20.8427 16.3034 20.307 15.366 20.4143 14.884C20.5214 14.4018 21.8334 12.795 23.012 12.7415C24.1902 12.6881 26.3061 13.545 26.8952 15.5C27.4843 17.4551 27.3236 19.4635 25.8239 20.2937C24.3242 21.1239 22.9049 20.6687 22.6369 20.2937C22.3691 19.9188 21.2443 19.9456 20.8158 20.5081C20.3872 21.0705 18.8875 22.0614 18.8875 22.6505C18.8875 22.6804 18.8879 22.7108 18.8882 22.7412C18.5782 22.5942 18.2042 22.5332 18.0207 22.9473C17.6762 23.7255 17.0296 25.9596 17.202 26.7115C17.3742 27.4634 18.4779 27.2336 18.7201 27.6243C20.3401 30.2374 18.6923 32.3561 17.0214 32.962C17.001 32.5571 16.8384 29.275 16.8629 28.6851C16.8893 28.0525 17.0252 23.0606 17.0268 23.0103C17.0293 22.9169 17.0626 22.8303 17.1227 22.76C18.3294 21.3486 19.1197 20.4308 19.1735 20.3741C19.2321 20.3348 19.4922 20.2681 19.6646 20.2244C19.829 20.1822 19.9991 20.1387 20.1232 20.0935C20.2952 20.031 20.8466 19.6236 22.0997 18.6738C22.6735 18.2387 23.2666 17.7888 23.4275 17.6925C23.842 17.4436 25.6127 16.4863 25.7666 16.4276L25.7007 16.2239L25.6496 16.0157C25.4797 16.0574 23.4577 17.1745 23.2068 17.3251C23.0261 17.4333 22.4768 17.8499 21.8407 18.3322C21.1622 18.8467 20.1366 19.6241 19.9766 19.6909C19.8724 19.7288 19.7128 19.7696 19.5583 19.8089C19.1939 19.9023 18.9827 19.9597 18.8807 20.0622C18.7962 20.1465 17.701 21.4244 16.797 22.4814C16.674 22.6251 16.6035 22.8084 16.5981 22.9985C16.5968 23.0488 16.4609 28.0379 16.4346 28.6672C16.4076 29.3125 16.5877 32.8743 16.5952 33.0256L16.8711 33.0116C16.5209 33.1195 16.174 33.1607 15.8605 33.1232C15.564 33.0875 15.2744 33.0325 14.9945 32.9618H15.0152C15.0199 31.4174 15.0497 27.3119 15.1278 26.8654C15.2126 26.3806 15.1619 24.0858 15.1361 23.1214C15.1315 22.9551 15.0782 22.7952 14.9813 22.659C13.8336 21.0507 13.1087 20.1866 12.8271 20.0908C12.734 20.0593 12.639 20.0308 12.5395 20.0005C12.2198 19.9039 11.8578 19.7945 11.3406 19.5159C11.0643 19.3673 10.1714 18.7603 9.22616 18.1182C7.36747 16.8548 6.21804 16.083 5.9324 16.0153L5.83278 16.432C6.08341 16.5003 7.82976 17.687 8.98539 18.4723C9.98157 19.1492 10.8417 19.7339 11.1378 19.8932C11.6926 20.1921 12.0931 20.3132 12.4154 20.4104C12.5102 20.439 12.6004 20.4666 12.6856 20.495C12.8462 20.5679 13.5237 21.3539 14.6323 22.9072C14.6794 22.9736 14.7056 23.0514 14.7074 23.1324C14.7484 24.6621 14.7695 26.4265 14.7055 26.791C14.6117 27.3259 14.5899 32.0237 14.5869 32.8442C13.3132 32.4238 12.3422 31.6015 12.2246 30.3522C12.0702 28.7097 12.9652 27.6271 13.3767 27.5329C13.7882 27.4386 14.1722 26.4335 13.8551 25.8405C13.5381 25.2476 13.2486 23.5439 12.7542 23.32C12.7279 23.3081 12.7015 23.2961 12.6748 23.2845C12.7311 23.0888 12.7389 22.866 12.7389 22.6504C12.7389 22.0611 11.2392 21.0703 10.8108 20.5079C10.3823 19.9456 9.25751 19.9188 8.98953 20.2936C8.72186 20.6685 7.30254 21.1238 5.8027 20.2936C4.30286 19.4634 4.14229 17.4549 4.73141 15.4998C5.32052 13.5448 7.43638 12.6877 8.61461 12.7414C9.793 12.7948 11.1052 14.4018 11.2125 14.8838C11.3196 15.3658 10.7839 16.3033 11.4267 16.7853L11.4265 16.7855Z" fill="white"/>
<path d="M26.6941 24.4341C28.147 24.0001 27.8093 22.3823 27.6559 21.8545L26.3032 23.2273C26.4811 23.2531 26.6057 23.2935 26.6377 23.3469C26.6929 23.4385 26.7101 23.8712 26.6941 24.4342V24.4341Z" fill="#00A650"/>
<path d="M28.0304 26.2392C28.6488 25.1571 28.8207 23.6747 28.8328 20.989L28.4582 21.1771C28.5451 22.2358 28.4456 23.0675 28.1375 24.0603C27.938 24.7027 27.1885 25.0979 26.6484 25.3054C26.5804 26.2255 26.4478 27.2089 26.2629 27.6318C25.888 28.4889 27.3877 27.3639 28.0303 26.2392H28.0304Z" fill="#00A650"/>
<path d="M30.7085 18.9548C30.6552 18.2048 30.2609 17.1763 30.0028 18.0119C29.8497 18.5071 29.6189 19.43 29.4666 20.6702C29.3619 21.5235 29.2941 22.5254 29.3163 23.6472C29.3696 26.3997 28.8591 26.9241 27.2128 28.2953C25.5667 29.6671 25.1383 30.042 25.1383 30.042C25.1383 30.042 26.1573 26.0043 26.0496 25.0237C25.9929 24.5078 25.8486 24.0955 25.6272 23.9137C25.428 23.7503 25.1662 23.7732 24.8473 24.0837C24.1743 24.7392 23.6535 28.9172 23.057 30.0955C22.4604 31.2739 21.8659 32.5305 21.8659 32.5305C21.8659 32.5305 20.6823 35.1439 21.8659 35.8334C23.0495 36.5229 23.2886 36.5764 25.7668 33.6841C28.245 30.7918 30.5483 28.9707 30.7088 26.4534C30.8697 23.9358 30.7626 19.7046 30.7088 18.9546L30.7085 18.9548Z" fill="#00A650"/>
<path d="M4.76645 24.434C4.75038 23.871 4.76756 23.4384 4.82278 23.3466C4.85477 23.2933 4.97953 23.2529 5.15728 23.2271L3.80464 21.8542C3.65123 22.3821 3.31355 23.9999 4.76645 24.4338V24.434Z" fill="white"/>
<path d="M5.19763 27.6315C5.01272 27.2087 4.88 26.2254 4.81237 25.3052C4.27227 25.0978 3.52258 24.7027 3.32319 24.0601C3.01494 23.0672 2.91549 22.2356 3.00237 21.1769L2.62793 20.4363C2.64018 23.1222 2.81189 25.1567 3.43029 26.239C4.07303 27.3637 5.57271 28.4885 5.19763 27.6315Z" fill="white"/>
<path d="M9.59484 35.8334C10.7785 35.1439 9.59484 32.5305 9.59484 32.5305C9.59484 32.5305 9.00031 31.2737 8.40372 30.0955C7.80712 28.9172 7.28643 24.7392 6.61345 24.0837C6.29455 23.7732 6.03277 23.7503 5.83354 23.9137C5.61202 24.0955 5.46784 24.5078 5.41103 25.0237C5.30314 26.0043 6.32224 30.042 6.32224 30.042C6.32224 30.042 5.89385 29.6671 4.24776 28.2953C2.60167 26.9241 2.09101 26.3997 2.14448 23.6472C2.16644 22.5254 2.09849 21.5235 1.99394 20.6702C1.84165 19.43 1.6109 18.507 1.45782 18.0119C1.1997 17.1763 0.805523 18.2048 0.751895 18.9548C0.698267 19.7048 0.591169 23.936 0.751895 26.4535C0.912462 28.9709 3.21577 30.792 5.69381 33.6843C8.17217 36.5765 8.41104 36.5229 9.59468 35.8335L9.59484 35.8334Z" fill="#00A650"/>
<path d="M7.81951 9.29562C7.81951 9.29562 7.99806 9.25998 8.21226 9.02796C8.42661 8.79594 10.0156 6.04626 10.3012 5.45714C10.5869 4.86818 10.926 4.97512 10.926 4.97512L10.9974 5.22496C11.0687 6.06408 10.1403 7.3319 9.67629 7.77812C9.2121 8.22449 9.67629 8.5636 9.67629 8.5636C9.67629 8.5636 9.90831 8.43852 10.5153 7.65288C11.1224 6.86739 11.3367 5.45698 11.3367 5.45698L11.5687 5.17133H11.9266C11.9427 5.21144 11.9653 5.26331 11.9973 5.33206C12.2293 5.8319 11.6402 7.02811 11.3189 7.56376C10.9976 8.09925 11.3189 8.11723 11.3189 8.11723C12.4995 7.2778 12.4436 5.04625 12.3365 4.8319C12.2293 4.6177 11.7653 4.74263 11.5509 4.65367C11.3367 4.56424 11.5509 4.13569 11.5509 4.13569C11.5509 4.13569 12.4436 3.90367 12.4078 4.02843C12.372 4.15351 12.5507 4.42133 12.8872 4.5819C13.2236 4.74263 13.8006 4.59988 13.8006 4.59988L13.8541 4.92117L14.0326 5.04625C14.0684 7.27796 14.7645 7.4565 15.4608 8.11723C16.1572 8.77764 17.0141 8.92054 17.0141 8.92054C16.7643 9.56313 17.0501 10.6524 17.0501 10.6524C17.0501 10.6524 17.4963 10.8489 17.8534 10.5273C18.2107 10.206 18.05 8.92054 18.05 8.84909C18.05 8.77764 17.7641 9.31329 17.7641 9.31329L17.5673 8.84909C17.3704 8.3849 17.1752 7.61723 17.1752 7.61723C17.1752 7.61723 16.9608 7.06376 17.3894 7.49215C17.8178 7.9207 17.8536 7.93836 17.9785 7.6707C18.1034 7.40304 17.8714 6.56392 17.8714 6.56392C17.8714 6.56392 17.8534 6.45666 17.9962 6.51029C18.1391 6.56392 18.4604 6.83556 18.4604 6.83556C18.4604 6.83556 18.5318 6.42102 18.6567 6.49231C18.7818 6.56392 18.7995 6.70666 18.9424 7.09941C19.0853 7.49231 19.3353 7.29578 19.3353 7.29578C19.3353 7.29578 19.2817 7.02796 19.3531 6.58174C19.4246 6.13553 19.728 6.47449 19.728 6.47449C19.8173 7.40304 20.6029 8.22433 20.6029 8.22433C20.96 7.63505 20.0673 5.84972 20.0673 5.84972C20.0673 5.84972 19.8529 5.76045 19.3711 5.76045C18.8891 5.76045 17.8714 5.939 17.8714 5.939C17.8714 5.939 17.5858 5.90319 17.1214 5.33206C16.6572 4.76077 16.8714 4.49278 16.8714 4.49278C16.8714 4.49278 17.0678 4.47496 17.2641 4.52859C17.4605 4.5819 17.7463 5.15335 18.1391 5.40319C18.5318 5.65335 19.0495 5.27811 19.4069 4.88553C19.764 4.49263 19.764 3.58206 19.764 3.58206C19.7425 3.23355 19.7207 2.88489 19.6994 2.53639C19.6854 2.30898 19.8614 2.11181 20.0894 2.10736C20.3175 2.10306 20.5748 2.11659 20.8529 2.1629C21.7163 2.3066 22.3378 2.6917 22.6742 2.93963C22.534 2.71748 21.3797 1.58412 20.1567 1.10052C19.7081 0.92308 19.3507 1.2092 19.1316 1.47766C18.9734 1.67101 18.9128 1.92738 18.9618 2.17244C19.1599 3.16226 19.0829 3.93422 18.8892 4.2248C18.6749 4.54625 17.8537 4.439 17.8537 4.439C17.3183 4.04625 17.1039 2.29657 17.1039 1.61818C17.1039 0.939789 16.6986 0.405575 15.7826 0.439789C14.8668 0.474162 14.5687 1.15398 14.5687 1.15398C14.5687 1.15398 14.9258 1.29673 15.3541 1.86802C15.7826 2.43931 15.5326 4.22464 15.5326 4.22464L15.3182 4.15303C15.3182 4.15303 15.1755 4.43884 14.5686 4.43884C13.9613 4.43884 13.1758 3.79609 13.1758 2.83206C13.1758 1.86786 12.94 1.1613 12.8902 1.15383C11.8545 0.99294 11.0154 2.08206 10.3727 2.27859C9.72992 2.47496 9.65847 2.83206 9.65847 2.83206C10.4798 3.02827 11.0689 2.47496 11.7116 2.04641C12.3544 1.61802 12.4257 1.88568 12.4257 1.88568C12.5329 2.63569 12.2473 3.0819 12.2473 3.0819C11.7294 2.99262 11.8724 2.63569 11.8724 2.63569C11.8724 2.63569 11.426 2.70698 10.8545 3.20698C10.2832 3.70682 9.44412 3.74262 9.44412 3.74262C9.46194 4.29594 10.069 4.13521 10.069 4.13521L9.89049 4.49231C9.53339 4.42102 9.40847 4.68868 9.40847 4.68868C9.55122 5.04578 10.069 4.9207 10.069 4.9207L10.0154 5.13505C9.42629 5.49183 8.17645 7.99152 7.81935 8.59877C7.46226 9.20571 7.81935 9.29483 7.81935 9.29483L7.81951 9.29562Z" fill="#00A650"/>
<path d="M13.2826 6.98361C13.4344 7.38526 13.6397 7.29599 13.6397 7.29599C13.6397 7.29599 13.8184 6.45687 13.6397 5.92139C13.4613 5.38574 13.4077 5.31445 13.4077 5.31445C13.4077 5.31445 13.0327 5.15372 12.8722 5.49268C12.7115 5.83195 12.3007 7.13542 12.3367 7.42107L12.3722 7.70672C12.3722 7.70672 12.9494 7.5436 13.0269 6.49141C13.1042 5.43921 13.2827 6.11792 13.2827 6.11792C13.2827 6.11792 13.1615 6.66232 13.2827 6.98361H13.2826Z" fill="#00A650"/>
<path d="M20.8351 4.93941C21.1208 4.76086 21.3082 5.06417 21.3082 5.06417C21.4064 4.86812 21.1564 4.58215 21.1564 4.58215C21.1564 4.58215 21.3528 4.36812 21.6744 4.65376C21.9957 4.93941 22.2476 4.92127 22.2476 4.92127C22.0709 4.7607 21.9064 3.99304 21.9064 3.99304C22.0969 3.93957 22.2874 3.88594 22.4777 3.83231C22.0587 3.08517 21.6222 2.83136 21.2909 2.74224C20.8693 2.6291 20.1387 2.65392 20.1387 2.65392C20.1241 2.80319 20.1114 3.02311 20.1297 3.28775C20.1527 3.61557 20.21 3.81751 20.2458 4.0107C20.2966 4.2833 20.3302 4.67668 20.2458 5.18909C20.2458 5.18909 20.5495 5.11764 20.8351 4.93909V4.93941Z" fill="#00A650"/>
<path d="M22.1027 8.72441C22.1027 8.72441 22.424 8.59965 21.9776 7.83182C21.5313 7.064 21.3327 6.61779 21.2356 6.04633C21.1385 5.47504 20.6387 5.68924 20.6387 5.68924C20.6387 5.68924 20.7992 7.88513 22.1025 8.72441H22.1027Z" fill="#00A650"/>
<path d="M21.9775 5.72485C21.9775 5.72485 21.8704 7.45671 22.9595 8.33148C24.0486 9.20624 24.1379 9.29551 24.1379 9.29551C24.1379 9.29551 24.1021 8.8493 23.4594 7.79599C22.8166 6.74252 22.4595 5.95687 21.9773 5.72485H21.9775Z" fill="#00A650"/>
<path d="M15.9432 10.5632C16.1576 10.5276 16.1576 9.22429 16.1576 9.22429C16.1576 9.22429 15.7469 9.27776 15.4792 8.95647C15.2114 8.63501 14.8719 8.61719 14.8007 8.84921C14.7292 9.08123 14.0152 10.3847 15.0327 10.9738C15.0327 10.9738 15.3898 10.724 15.7112 10.9738C15.7112 10.9738 15.7289 10.5989 15.9432 10.5631V10.5632Z" fill="#00A650"/>
<path d="M18.9247 9.92048C18.782 10.2598 19.0676 10.6168 19.0676 10.6168H19.4069C19.4069 10.6168 19.4069 10.3489 19.728 10.4025C20.0495 10.456 20.3353 10.331 20.3353 10.331C20.3353 10.331 20.2459 10.2954 19.9938 10.0098C19.7416 9.7241 19.3646 9.61287 19.4071 9.67048C19.6033 9.9383 19.4604 10.1436 19.4604 10.1436L18.9249 9.92048H18.9247Z" fill="#00A650"/>
<path d="M17.7285 13.063C17.7455 13.0573 17.7349 13.0441 17.7061 13.0288C17.7088 13.0573 17.7137 13.0678 17.7285 13.063Z" fill="#00A650"/>
<path d="M17.1753 11.456C17.1753 11.456 17.0502 11.3668 17.0324 11.9739C17.0144 12.5808 16.8184 12.8488 16.8184 12.8488C16.8184 12.8488 17.0144 12.956 17.3004 12.956C17.4947 12.956 17.6452 12.9969 17.7063 13.0289C17.6998 12.9549 17.7122 12.7479 17.6217 12.2953C17.4966 11.6704 17.1755 11.456 17.1755 11.456H17.1753Z" fill="#00A650"/>
<path d="M15.9431 12.4915C15.9431 12.4915 16.318 12.5273 16.4609 12.2579C16.6038 11.9883 16.4609 11.4514 16.4609 11.4514C16.4609 11.4514 16.3002 11.5631 15.9431 11.6702C15.586 11.7775 15.7824 12.4933 15.7824 12.4933L15.9431 12.4915Z" fill="#00A650"/>
<path d="M14.8542 12.2579C14.6755 12.688 14.4907 12.8307 14.4907 12.8307C14.4907 12.8307 14.8542 13.0629 15.1755 12.8307C15.4969 12.5986 15.324 12.3825 15.324 12.3825V11.8311C15.2826 11.8311 15.0326 11.8276 14.8542 12.2579Z" fill="#00A650"/>
<path d="M4.78444 38.2367C4.7838 38.2373 6.2725 37.2496 7.5128 36.8258C7.1086 36.3019 6.31897 35.9443 5.40936 35.9443C4.09029 35.9443 3.01709 36.6948 3.01709 37.6173C3.01709 38.0459 3.69994 38.7995 4.78444 38.2368V38.2367Z" fill="#00A650"/>
<path d="M26.737 38.7994C24.853 37.6821 21.8481 36.3517 17.4306 36.1262L17.4241 36.1627C16.9458 36.1283 16.4602 36.1033 15.9631 36.0947C15.9107 36.0951 15.8605 36.0938 15.8078 36.0944C15.7551 36.0938 15.7048 36.0951 15.6525 36.0947C15.1553 36.1033 14.6698 36.1283 14.1915 36.1627L14.1851 36.1262C9.76752 36.3517 6.76258 37.6821 4.87859 38.7994C4.08849 39.2679 3.69893 38.9319 3.7002 38.9332L5.44383 41.0573C5.87398 41.4857 6.54807 41.5421 7.04505 41.1934C9.07353 39.7707 12.1418 38.8616 15.5716 38.8616C15.651 38.8616 15.7287 38.8661 15.8078 38.8672C15.8867 38.8661 15.9644 38.8616 16.0439 38.8616C19.4739 38.8616 22.542 39.7707 24.5705 41.1934C25.0677 41.5421 25.7416 41.4856 26.1719 41.0573L27.9155 38.9332C27.9168 38.9321 27.5272 39.2679 26.7371 38.7994H26.737Z" fill="#00A650"/>
<path d="M26.2055 35.9443C25.2962 35.9443 24.5064 36.302 24.1021 36.8257C25.3425 37.2495 26.8312 38.2372 26.8304 38.2366C27.9151 38.7993 28.5979 38.0456 28.5979 37.6171C28.5979 36.6946 27.5246 35.9441 26.2053 35.9441L26.2055 35.9443Z" fill="#00A650"/>
<path d="M16.1266 1.02031C16.1266 1.10401 16.0015 1.17212 15.8475 1.17212C15.6933 1.17212 15.5684 1.10401 15.5684 1.02031C15.5684 0.936603 15.6934 0.868652 15.8475 0.868652C16.0017 0.868652 16.1266 0.936444 16.1266 1.02031Z" fill="black"/>
<path d="M16.7772 33.2861L14.849 33.0256L14.9308 23.0255C14.2116 21.8471 12.9152 20.0286 11.5337 19.7581C10.3019 19.5172 6.65992 16.6103 6.20654 16.2756L7.23582 14.8816C8.88987 16.1029 9.84117 17.2675 12.6166 18.3517C13.4782 18.6881 14.8655 20.0019 15.7551 20.8329C17.0772 19.7581 17.4631 19.0859 18.2691 18.9279C18.8542 18.735 22.3722 16.6709 24.7172 15.0445L25.6876 16.2923C23.2117 17.2848 20.1088 19.7433 19.1824 20.2724C18.825 20.43 17.7681 21.7941 16.8149 22.8924L16.7771 33.2858L16.7772 33.2861Z" fill="#00ADEF"/>
<path d="M26.3699 23.647C26.3699 23.647 26.9547 23.6782 27.2782 22.6822C27.6017 21.6862 26.0664 23.1649 26.0664 23.1649L26.3699 23.647Z" fill="#231F20"/>
<path d="M30.7084 26.4533C30.5478 28.9706 28.2445 30.7917 25.7663 33.684C23.2881 36.5763 23.0491 36.5227 21.8654 35.8333C20.6818 35.1438 21.8654 32.5304 21.8654 32.5304C21.8654 32.5304 22.46 31.2736 23.0566 30.0954C23.6532 28.9171 24.1739 24.7391 24.8468 24.0836C25.1657 23.7731 25.4275 23.7502 25.6268 23.9136C25.8481 24.0954 25.9924 24.5077 26.0491 25.0236C26.157 26.0042 25.1379 30.0419 25.1379 30.0419C25.1379 30.0419 25.5663 29.667 27.2124 28.2952C28.8585 26.924 29.3691 26.3996 29.3158 23.6471C29.2938 22.5253 29.3615 21.5234 29.4662 20.6702C29.6185 19.4299 29.8492 18.5069 30.0023 18.0118C30.2604 17.1762 30.6548 18.2047 30.7081 18.9547C30.7619 19.7047 30.869 23.9359 30.7081 26.4534L30.7084 26.4533ZM28.5983 37.617C28.5983 38.0456 27.9154 38.7992 26.8308 38.2365C26.8316 38.2372 25.3429 37.2494 24.1024 36.8256C24.5068 36.3018 25.2965 35.9442 26.2058 35.9442C27.5251 35.9442 28.5984 36.6947 28.5984 37.6172L28.5983 37.617ZM26.1716 41.0572C25.7415 41.4856 25.0674 41.5419 24.5703 41.1932C22.5418 39.7706 19.4737 38.8615 16.0437 38.8615C15.9643 38.8615 15.8866 38.8659 15.8075 38.867C15.7284 38.8659 15.6508 38.8615 15.5714 38.8615C12.1414 38.8615 9.07326 39.7706 7.04478 41.1932C6.5478 41.5419 5.87371 41.4854 5.44357 41.0572L3.69993 38.9331C3.69866 38.932 4.08822 39.2677 4.87832 38.7992C6.76231 37.6819 9.76741 36.3516 14.1848 36.1261L14.1912 36.1625C14.6695 36.1282 15.1551 36.1032 15.6522 36.0946C15.7046 36.0949 15.7548 36.0936 15.8075 36.0943C15.86 36.0936 15.9105 36.0949 15.9628 36.0946C16.46 36.1032 16.9455 36.1282 17.4238 36.1625L17.4304 36.1261C21.8478 36.3516 24.8527 37.6819 26.7367 38.7992C27.527 39.2677 27.9164 38.9318 27.9151 38.9331L26.1713 41.0572H26.1716ZM3.01708 37.617C3.01708 36.6945 4.09029 35.944 5.40935 35.944C6.31881 35.944 7.10859 36.3018 7.51279 36.8255C6.2725 37.2493 4.78379 38.2372 4.78443 38.2365C3.69993 38.7992 3.01708 38.0456 3.01708 37.617ZM0.752122 26.4533C0.591396 23.9358 0.698494 19.7045 0.752122 18.9545C0.805591 18.2045 1.19993 17.176 1.45804 18.0117C1.61097 18.5069 1.84188 19.4297 1.99417 20.67C2.09888 21.5233 2.16667 22.5252 2.14471 23.6469C2.09124 26.3995 2.6019 26.9238 4.24799 28.2951C5.89408 29.6668 6.32247 30.0417 6.32247 30.0417C6.32247 30.0417 5.30337 26.004 5.41126 25.0234C5.46791 24.5075 5.61225 24.0952 5.83376 23.9135C6.033 23.75 6.29478 23.773 6.61368 24.0834C7.28666 24.7389 7.80735 28.917 8.40394 30.0952C9.00054 31.2736 9.59507 32.5303 9.59507 32.5303C9.59507 32.5303 10.7787 35.1436 9.59507 35.8331C8.41142 36.5227 8.17256 36.5761 5.6942 33.6839C3.216 30.7916 0.912848 28.9705 0.752281 26.4531L0.752122 26.4533ZM4.76645 24.434C3.50483 24.0572 3.59331 22.7886 3.73908 22.1151C3.83503 22.2154 3.93306 22.3137 4.03475 22.4093C4.41222 22.7636 4.79287 23.0257 5.16731 23.226L5.15712 23.2273C4.97937 23.2531 4.85461 23.2935 4.82262 23.3468C4.7674 23.4385 4.75022 23.8711 4.76629 24.4342L4.76645 24.434ZM3.3231 24.0604C3.52265 24.7028 4.27218 25.0979 4.81228 25.3054C4.88007 26.2255 5.01279 27.209 5.19754 27.6318C5.57262 28.4889 4.07278 27.364 3.4302 26.2392C2.8118 25.1571 2.64009 23.6748 2.62784 20.9891C2.62736 20.8829 2.62689 20.7787 2.62689 20.6686L2.62625 20.6275C2.74146 20.8274 2.86702 21.0218 3.00021 21.2117C2.91842 22.2537 3.0182 23.0787 3.3231 24.0604ZM2.88309 13.7055C3.84729 12.4469 5.15442 10.6794 7.66095 10.4383C10.1675 10.1974 11.4797 11.227 12.6046 12.4932C13.7294 13.7591 15.4969 15.366 15.5774 15.8748C15.6065 16.0603 15.6691 16.292 15.6971 16.5091C15.6834 16.6291 15.6777 16.7615 15.6893 16.8906C15.6406 17.0817 15.4983 17.2087 15.1678 17.187C14.3454 17.1336 12.3101 16.7317 11.9619 16.5444C11.6137 16.3568 11.453 15.6337 11.4799 15.1517C11.5067 14.6697 11.1853 13.6082 10.0604 12.9338C8.93561 12.2594 8.04526 12.0551 7.24831 12.4932C7.12578 12.5607 4.86495 13.3842 4.35604 15.6071C3.84729 17.8299 3.89757 19.5658 5.80226 20.7757C7.70662 21.9859 9.89949 20.4542 9.89949 20.4542L10.4351 20.7488C10.4351 20.7488 12.2561 22.2217 12.2028 22.6235C12.1753 22.8291 12.1894 22.9996 12.1057 23.1278C11.9194 23.1227 11.7408 23.1829 11.5836 23.36C11.5502 23.3648 11.5168 23.3696 11.4797 23.3732C10.8242 23.4412 8.75913 23.7362 7.42972 23.6178C7.21951 23.3629 6.56849 23.234 5.9668 23.2031C5.29462 22.9055 4.50992 22.4423 3.82676 21.7808C3.84586 21.7208 3.85875 21.6862 3.85875 21.6862C3.85875 21.6862 3.22078 20.1616 3.04445 20.8481C2.87927 20.6014 2.73191 20.336 2.60652 20.0511C2.54127 19.035 2.31864 18.2209 2.03045 17.6633C1.90505 16.0863 2.23128 14.5567 2.88325 13.7056L2.88309 13.7055ZM7.35732 10.2266C7.82533 10.0829 8.05114 9.92221 8.11352 9.87591C8.33695 9.70977 8.52727 9.49876 8.67129 9.25417L8.74815 9.12352C11.4977 8.91585 11.9261 8.29109 11.9261 8.29109C11.9261 8.29109 12.2475 8.33166 12.7474 8.00003C13.2472 7.66839 14.1756 7.46581 14.1756 7.46581C14.2828 8.6711 15.1398 8.11747 14.5327 8.60888C13.9258 9.1006 14.0685 11.1501 14.0685 11.1501L14.3183 11.0788L14.3543 11.7219L14.6754 11.7478C14.6754 12.2817 13.5577 12.7295 13.3272 12.8164C12.5469 12.0382 11.7291 11.2728 11.1315 10.8401C9.5782 9.71534 7.35732 10.2268 7.35732 10.2268C7.35732 10.2268 10.6228 10.0099 7.23176 10.2632H7.2316C7.27616 10.251 7.31833 10.2389 7.35732 10.2266ZM13.0271 6.49127C12.9498 7.54347 12.3724 7.70658 12.3724 7.70658L12.337 7.42094C12.301 7.13529 12.7117 5.83182 12.8724 5.49271C13.0332 5.15359 13.4079 5.31432 13.4079 5.31432C13.4079 5.31432 13.4616 5.38561 13.6399 5.92125C13.8187 6.45674 13.6399 7.29586 13.6399 7.29586C13.6399 7.29586 13.4348 7.38513 13.2828 6.98348C13.1616 6.66218 13.2828 6.11779 13.2828 6.11779C13.2828 6.11779 13.1043 5.43908 13.027 6.49127H13.0271ZM7.81992 8.59933C8.17702 7.99207 9.4267 5.49255 10.016 5.13561L10.0694 4.92125C10.0694 4.92125 9.55178 5.04633 9.40888 4.68924C9.40888 4.68924 9.5338 4.42141 9.8909 4.49286L10.0694 4.13577C10.0694 4.13577 9.46235 4.29649 9.44452 3.74318C9.44452 3.74318 10.2836 3.70738 10.8548 3.20753C11.4262 2.70753 11.8726 2.63624 11.8726 2.63624C11.8726 2.63624 11.7297 2.99334 12.2475 3.08245C12.2475 3.08245 12.5332 2.63624 12.4259 1.88624C12.4259 1.88624 12.3546 1.61842 11.7117 2.04697C11.069 2.47552 10.4799 3.02883 9.65856 2.83261C9.65856 2.83261 9.72985 2.47552 10.3728 2.27914C11.0155 2.08261 11.8546 0.993496 12.8903 1.15438C12.9401 1.16186 13.1759 1.86842 13.1759 2.83261C13.1759 3.79649 13.9614 4.43924 14.5687 4.43924C15.1756 4.43924 15.3183 4.15359 15.3183 4.15359L15.5327 4.22504C15.5327 4.22504 15.7827 2.43971 15.3541 1.86842C14.9258 1.29712 14.5688 1.15438 14.5688 1.15438C14.5688 1.15438 14.8669 0.4744 15.7827 0.440186C16.6987 0.405813 17.104 0.940186 17.104 1.61842C17.104 2.29697 17.3183 4.04649 17.8538 4.43939C17.8538 4.43939 18.6751 4.54665 18.8893 4.22504C19.083 3.93446 19.16 3.1625 18.9619 2.17268C18.9129 1.92746 18.9735 1.67125 19.1317 1.47774C19.351 1.20928 19.7082 0.923159 20.1568 1.10059C21.3798 1.5842 22.5343 2.71756 22.6743 2.93955C22.3381 2.69178 21.7163 2.30667 20.853 2.16298C20.5749 2.11667 20.3175 2.10298 20.0895 2.10744C19.8615 2.11205 19.6855 2.30906 19.6995 2.53662C19.7208 2.88529 19.7424 3.23379 19.7641 3.5823C19.7641 3.5823 19.7641 4.49286 19.407 4.88577C19.0496 5.27835 18.5321 5.65359 18.1393 5.40343C17.7466 5.15359 17.4608 4.58214 17.2644 4.52883C17.068 4.47504 16.8716 4.49286 16.8716 4.49286C16.8716 4.49286 16.6573 4.76085 17.1216 5.33214C17.5858 5.90343 17.8716 5.93924 17.8716 5.93924C17.8716 5.93924 18.8892 5.76069 19.3712 5.76069C19.8532 5.76069 20.0674 5.84996 20.0674 5.84996C20.0674 5.84996 20.9601 7.63529 20.603 8.22457C20.603 8.22457 19.8174 7.40327 19.7281 6.47488C19.7281 6.47488 19.4248 6.13577 19.3532 6.58214C19.2816 7.02851 19.3354 7.29618 19.3354 7.29618C19.3354 7.29618 19.0854 7.49255 18.9425 7.09965C18.7997 6.70706 18.7819 6.56432 18.6568 6.49271C18.5317 6.42141 18.4603 6.83596 18.4603 6.83596C18.4603 6.83596 18.139 6.56432 17.9961 6.51053C17.8533 6.45706 17.8713 6.56432 17.8713 6.56432C17.8713 6.56432 18.1034 7.40343 17.9784 7.6711C17.8533 7.93892 17.8177 7.9211 17.3893 7.49255C16.9608 7.064 17.175 7.61747 17.175 7.61747C17.175 7.61747 17.3704 8.38529 17.5671 8.84933L17.7639 9.31352C17.7639 9.31352 18.0496 8.77788 18.0496 8.84933C18.0496 8.92078 18.2103 10.2063 17.8532 10.5276C17.4961 10.849 17.0499 10.6526 17.0499 10.6526C17.0499 10.6526 16.7642 9.56336 17.0141 8.92078C17.0141 8.92078 16.1573 8.77788 15.4608 8.11747C14.7645 7.45674 14.0683 7.27835 14.0327 5.04649L13.8541 4.92141L13.8007 4.60012C13.8007 4.60012 13.2236 4.74286 12.8871 4.58214C12.5508 4.42157 12.3721 4.15375 12.4079 4.02867C12.4437 3.90391 11.551 4.13592 11.551 4.13592C11.551 4.13592 11.3368 4.56447 11.551 4.65391C11.7653 4.74302 12.2294 4.6181 12.3366 4.8323C12.4437 5.04665 12.4996 7.27819 11.319 8.11763C11.319 8.11763 10.9977 8.09965 11.319 7.56416C11.6403 7.02851 12.2295 5.83214 11.9975 5.33246C11.9655 5.26355 11.9428 5.21183 11.9269 5.17173H11.5691L11.3371 5.45738C11.3371 5.45738 11.1228 6.86779 10.5157 7.65327C9.90872 8.43876 9.6767 8.564 9.6767 8.564C9.6767 8.564 9.21251 8.22473 9.6767 7.77851C10.1409 7.3323 11.0691 6.06432 10.9978 5.22536L10.9264 4.97552C10.9264 4.97552 10.5871 4.86842 10.3016 5.45754C10.016 6.04665 8.42702 8.79634 8.21266 9.02836C7.99831 9.26037 7.81992 9.29602 7.81992 9.29602C7.81992 9.29602 7.46282 9.20675 7.81992 8.59981V8.59933ZM23.46 7.79586C24.1026 8.84917 24.1385 9.29554 24.1385 9.29554C24.1385 9.29554 24.0492 9.20627 22.9601 8.33151C21.871 7.45674 21.9781 5.72488 21.9781 5.72488C22.4603 5.9569 22.8174 6.74239 23.4601 7.79602L23.46 7.79586ZM21.2359 6.04618C21.333 6.61763 21.5316 7.06384 21.978 7.83166C22.4243 8.59949 22.103 8.72425 22.103 8.72425C20.7997 7.88497 20.6392 5.68908 20.6392 5.68908C20.6392 5.68908 21.139 5.47488 21.2361 6.04618H21.2359ZM20.2461 4.01085C20.2103 3.81766 20.153 3.61571 20.1301 3.2879C20.1116 3.02326 20.1245 2.80333 20.1392 2.65406C20.1392 2.65406 20.8697 2.62924 21.2913 2.74238C21.6226 2.8315 22.0591 3.08532 22.4781 3.83246C22.2878 3.88624 22.0971 3.93971 21.9068 3.99318C21.9068 3.99318 22.0712 4.761 22.248 4.92157C22.248 4.92157 21.9961 4.93955 21.6748 4.65391C21.3534 4.36826 21.1568 4.5823 21.1568 4.5823C21.1568 4.5823 21.4068 4.8681 21.3086 5.06432C21.3086 5.06432 21.1212 4.76101 20.8355 4.93955C20.5499 5.1181 20.2463 5.18955 20.2463 5.18955C20.3308 4.67714 20.297 4.28376 20.2463 4.01116L20.2461 4.01085ZM19.1035 11.0546C19.6748 11.0996 19.9603 10.617 19.9603 10.617C20.639 10.617 21.0317 10.324 21.0317 10.324C21.0317 10.324 18.7822 8.83151 18.5679 8.29124C18.3535 7.75098 19.2819 7.93446 19.2819 7.93446L19.389 8.22059L20.0317 8.46056L20.1745 8.64962L21.2459 8.71231L22.424 10.1156L22.4414 10.1149L22.4571 10.1426C21.8161 10.2099 21.104 10.3987 20.494 10.8401C19.9014 11.2693 19.0921 12.0261 18.3172 12.7978C18.3142 12.7951 18.0671 12.5764 17.925 11.8621C17.7822 11.1431 17.9964 11.3312 18.4251 11.31C18.8535 11.289 19.1034 11.0548 19.1034 11.0548L19.1035 11.0546ZM19.4071 9.67046C19.3647 9.61286 19.7416 9.72425 19.9939 10.0097C20.2459 10.2954 20.3354 10.331 20.3354 10.331C20.3354 10.331 20.0497 10.4561 19.7281 10.4026C19.407 10.3489 19.407 10.6168 19.407 10.6168H19.0679C19.0679 10.6168 18.7822 10.2597 18.925 9.92046L19.4604 10.1436C19.4604 10.1436 19.6032 9.93845 19.4071 9.67046ZM20.1538 23.8839C20.7553 23.8904 21.5015 23.9171 22.1621 23.9179C21.7122 24.505 21.2975 25.1154 20.9153 25.7485C20.6154 24.9851 20.3304 24.3013 20.1536 23.8839H20.1538ZM16.8183 12.8485C16.8183 12.8485 17.0146 12.5806 17.0324 11.9736C17.0504 11.3665 17.1753 11.4558 17.1753 11.4558C17.1753 11.4558 17.4966 11.6701 17.6215 12.2951C17.712 12.7476 17.6996 12.9547 17.7063 13.0287C17.6452 12.9967 17.4945 12.9558 17.3004 12.9558C17.0146 12.9558 16.8183 12.8485 16.8183 12.8485ZM17.6442 13.4793C16.675 14.4771 15.8971 15.339 15.8971 15.339L15.8128 15.8707L15.7287 15.339C15.7287 15.339 14.8463 14.361 13.7895 13.2827L13.9549 13.452L17.6442 13.4793ZM14.8543 12.2577C15.0329 11.8275 15.2827 11.8309 15.3241 11.8309V12.3823C15.3241 12.3823 15.497 12.5984 15.1756 12.8306C14.8543 13.0627 14.4908 12.8306 14.4908 12.8306C14.4908 12.8306 14.6756 12.6878 14.8543 12.2577ZM16.4611 11.4512C16.4611 11.4512 16.604 11.9881 16.4611 12.2577C16.3183 12.5271 15.9433 12.4913 15.9433 12.4913L15.7825 12.493C15.7825 12.493 15.5862 11.7772 15.9433 11.67C16.3004 11.5629 16.4611 11.4512 16.4611 11.4512ZM15.9433 10.563C15.7291 10.5989 15.7112 10.9738 15.7112 10.9738C15.3898 10.7239 15.0327 10.9738 15.0327 10.9738C14.015 10.3847 14.7291 9.08119 14.8007 8.84917C14.872 8.61715 15.2112 8.63497 15.4792 8.95643C15.7467 9.27772 16.1575 9.22425 16.1575 9.22425C16.1575 9.22425 16.1575 10.5276 15.9433 10.5632V10.563ZM11.4262 16.7852C12.0688 17.2672 14.4792 17.535 15.3704 17.5082C15.5873 17.5016 15.7257 17.4136 15.8128 17.2852C15.9 17.4136 16.0384 17.5016 16.2552 17.5082C17.1465 17.535 19.5566 17.2672 20.1996 16.7852C20.8424 16.3032 20.3067 15.3657 20.414 14.8837C20.5211 14.4015 21.8331 12.7948 23.0117 12.7413C24.1899 12.6878 26.3058 13.5448 26.8949 15.4997C27.484 17.4548 27.3233 19.4633 25.8236 20.2935C24.3239 21.1237 22.9046 20.6684 22.6366 20.2935C22.3688 19.9186 21.244 19.9453 20.8155 20.5078C20.3869 21.0702 18.8872 22.0611 18.8872 22.6503C18.8872 22.6802 18.8876 22.7106 18.8879 22.741C18.5779 22.5939 18.2039 22.533 18.0204 22.9471C17.6759 23.7252 17.0294 25.9593 17.2017 26.7112C17.3739 27.4631 18.4776 27.2333 18.7198 27.624C20.3398 30.2372 18.692 32.3559 17.0211 32.9617C17.0007 32.5569 16.8381 29.2747 16.8626 28.6848C16.889 28.0522 17.0249 23.0604 17.0265 23.0101C17.029 22.9167 17.0623 22.8301 17.1224 22.7598C18.3292 21.3484 19.1194 20.4305 19.1732 20.3738C19.2318 20.3345 19.492 20.2679 19.6643 20.2241C19.8287 20.1819 19.9988 20.1385 20.1229 20.0933C20.295 20.0308 20.8464 19.6234 22.0994 18.6735C22.6732 18.2384 23.2663 17.7885 23.4272 17.6923C23.8417 17.4434 25.6124 16.486 25.7663 16.4273L25.7004 16.2236L25.6493 16.0155C25.4794 16.0572 23.4574 17.1743 23.2065 17.3248C23.0259 17.433 22.4765 17.8497 21.8405 18.332C21.1619 18.8465 20.1363 19.6238 19.9764 19.6907C19.8721 19.7286 19.7125 19.7693 19.558 19.8086C19.1936 19.902 18.9824 19.9595 18.8804 20.0619C18.7959 20.1463 17.7007 21.4241 16.7967 22.4811C16.6737 22.6248 16.6032 22.8081 16.5978 22.9983C16.5965 23.0486 16.4606 28.0376 16.4343 28.667C16.4073 29.3123 16.5874 32.874 16.5949 33.0254L16.8709 33.0114C16.5206 33.1192 16.1737 33.1605 15.8602 33.1229C15.5637 33.0873 15.2741 33.0322 14.9942 32.9615H15.0149C15.0196 31.4171 15.0494 27.3116 15.1275 26.8651C15.2124 26.3804 15.1616 24.0855 15.1358 23.1211C15.1312 22.9548 15.0779 22.7949 14.981 22.6587C13.8333 21.0505 13.1084 20.1864 12.8268 20.0906C12.7337 20.0591 12.6387 20.0306 12.5392 20.0002C12.2195 19.9036 11.8575 19.7943 11.3403 19.5156C11.064 19.367 10.1711 18.7601 9.22587 18.118C7.36718 16.8546 6.21776 16.0828 5.93211 16.015L5.83249 16.4318C6.08313 16.5 7.82947 17.6867 8.9851 18.472C9.98129 19.149 10.8414 19.7337 11.1376 19.8929C11.6923 20.1918 12.0928 20.3129 12.4151 20.4101C12.5099 20.4388 12.6002 20.4663 12.6853 20.4948C12.8459 20.5677 13.5235 21.3536 14.632 22.9069C14.6791 22.9733 14.7054 23.0511 14.7071 23.1321C14.7482 24.6619 14.7692 26.4262 14.7052 26.7908C14.6115 27.3256 14.5897 32.0234 14.5866 32.8439C13.3129 32.4235 12.3419 31.6013 12.2243 30.3519C12.0699 28.7095 12.9649 27.6269 13.3764 27.5327C13.7879 27.4383 14.1719 26.4332 13.8548 25.8403C13.5378 25.2473 13.2483 23.5436 12.7539 23.3197C12.7276 23.3078 12.7012 23.2959 12.6745 23.2843C12.7308 23.0885 12.7386 22.8657 12.7386 22.6501C12.7386 22.0608 11.2389 21.0701 10.8105 20.5077C10.382 19.9453 9.25722 19.9186 8.98924 20.2933C8.72158 20.6682 7.30226 21.1235 5.80241 20.2933C4.30257 19.4631 4.142 17.4547 4.73112 15.4996C5.32024 13.5446 7.43609 12.6875 8.61432 12.7411C9.79271 12.7946 11.1049 14.4015 11.2122 14.8835C11.3193 15.3656 10.7836 16.303 11.4264 16.785L11.4262 16.7852ZM21.167 32.456C20.0586 34.5815 18.1029 35.0658 16.698 35.4399C15.2934 35.814 12.8998 34.9974 11.3806 33.3949C9.86114 31.7927 9.75181 29.4278 9.88039 28.2656C9.93848 27.7407 10.2432 26.9859 10.5914 26.2553C10.7351 26.2074 10.8385 26.0756 10.7684 25.8936C11.1423 25.145 11.5274 24.4687 11.6921 24.1584C11.7566 24.0366 11.8153 23.9447 11.8708 23.8756C12.0811 23.8591 12.2402 23.8067 12.3608 23.7287C12.4288 23.751 12.501 23.7796 12.5827 23.8038C12.9393 23.9092 13.5171 26.0804 13.5171 26.0804L13.5709 26.6662C13.5709 26.6662 11.4929 28.0236 11.8201 30.1686C12.1471 32.3134 13.5615 33.1764 15.635 33.4136C19.166 33.8178 19.8963 30.4827 19.737 29.2311C19.5774 27.9797 19.0061 27.4448 18.5919 27.2852C18.1778 27.1256 17.629 26.7085 17.5975 26.3291C17.5661 25.9498 17.9644 23.9967 18.217 23.2489C18.3632 22.8147 18.6269 22.8423 18.9 22.9932C18.9404 23.4426 19.1134 23.842 19.805 23.8778C20.2047 24.6633 20.7327 26.1819 21.2297 27.3013C21.7415 28.4537 22.0878 29.6535 21.6901 31.1345C21.4929 31.5822 21.3303 32.0021 21.1976 32.3934C21.1869 32.4144 21.1781 32.4348 21.1673 32.456V32.4558L21.167 32.456ZM20.714 35.9727C19.7373 35.8042 18.7141 35.6897 17.6535 35.6315C18.911 35.3166 20.1285 34.6073 20.918 33.3326C20.5893 34.6277 20.6295 35.5838 20.714 35.9727ZM9.46298 23.9176C10.0612 23.917 10.7284 23.8953 11.2964 23.8863C11.093 24.374 10.8229 24.9771 10.5873 25.5408C10.4186 25.2761 10.2093 25.0675 9.99545 24.8011C9.77298 24.5238 9.68736 24.1835 9.46298 23.9176ZM8.86162 24.2254C9.14662 24.4531 9.2246 24.8174 9.42686 25.1089C9.66302 25.4491 9.98829 25.6589 10.1476 26.0613C10.1818 26.1477 10.241 26.2047 10.3094 26.2386C10.2524 26.3914 10.2003 26.5378 10.1614 26.6655C9.92877 27.4305 9.06817 28.9499 9.8099 31.111C10.5516 33.2722 12.2227 34.9841 14.2396 35.5893C14.2671 35.5974 14.2957 35.6049 14.3236 35.6129C13.0831 35.6656 11.8912 35.7935 10.7631 35.9948C10.9378 35.6173 11.0615 33.1296 8.78619 29.2114C8.78619 29.2114 7.62355 24.6875 7.50834 23.8407C7.87657 23.8614 8.19198 23.8597 8.42654 23.8823C8.53252 23.8926 8.65188 23.8996 8.77711 23.905C8.72953 24.008 8.74163 24.1301 8.86146 24.2255L8.86162 24.2254ZM22.0844 29.233C21.9283 28.4977 21.5475 27.4014 21.1519 26.3605C21.2408 26.3535 21.3276 26.3084 21.3869 26.2085C21.7985 25.5144 22.2499 24.8482 22.7421 24.2088C22.8258 24.1001 22.8191 23.9926 22.765 23.9087C22.9226 23.9031 23.0693 23.8947 23.1988 23.8821C23.3973 23.8629 23.6536 23.8618 23.9509 23.8492C23.8284 24.7195 22.6742 29.2112 22.6742 29.2112C22.4818 29.5424 22.3088 29.8619 22.1498 30.1716C22.167 29.8659 22.1517 29.5502 22.0844 29.233ZM26.6482 25.3053C27.1883 25.0979 27.9379 24.7028 28.1374 24.0602C28.421 23.1469 28.5257 22.3681 28.4733 21.4254C28.6013 21.2555 28.7195 21.0794 28.8328 20.9006C28.8327 20.9295 28.8325 20.9596 28.8325 20.9887C28.8203 23.6745 28.6486 25.1568 28.0302 26.2389C27.3876 27.3637 25.8877 28.4884 26.2628 27.6315C26.4477 27.2087 26.5804 26.2254 26.6482 25.3051V25.3053ZM26.6376 23.3466C26.6131 23.3056 26.5333 23.2725 26.4176 23.2477C26.805 23.0448 27.1998 22.7763 27.5909 22.4092C27.6451 22.3583 27.6961 22.3046 27.7486 22.2524C27.8728 22.9485 27.8737 24.0817 26.6937 24.4338C26.7098 23.8708 26.6926 23.4383 26.6374 23.3465L26.6376 23.3466ZM28.7424 13.7053C29.3513 14.5004 29.6766 15.8871 29.615 17.3514C29.2025 17.9475 28.8713 19.0148 28.837 20.4245C28.7189 20.6423 28.5895 20.8493 28.4479 21.0422C28.3403 19.9202 27.6016 21.6861 27.6016 21.6861C27.6016 21.6861 27.6252 21.7486 27.6557 21.8543C27.6602 21.8697 27.6651 21.889 27.6699 21.906C27.0232 22.4978 26.2996 22.9178 25.6729 23.1964C25.0171 23.2095 24.2377 23.3417 24.0204 23.6321C22.6914 23.7119 20.7728 23.438 20.1458 23.3732C19.9289 23.3509 19.7829 23.3134 19.681 23.2628L19.575 23.1921C19.4301 23.0591 19.455 22.8657 19.4227 22.6234C19.3691 22.2217 21.1901 20.7486 21.1901 20.7486L21.7257 20.4541C21.7257 20.4541 23.9188 21.9856 25.8233 20.7755C27.7278 19.5654 27.7782 17.8296 27.2693 15.6068C26.7606 13.384 24.4996 12.5603 24.3771 12.4929C23.5803 12.0549 22.6901 12.2591 21.5652 12.9335C20.4404 13.6079 20.1189 14.6694 20.1457 15.1514C20.1724 15.6334 20.0117 16.3565 19.6635 16.5441C19.3155 16.7316 17.2801 17.1332 16.4577 17.1867C16.1271 17.2083 15.9848 17.0814 15.9361 16.8902C15.9477 16.7612 15.942 16.6289 15.9281 16.5089C15.9563 16.2919 16.0188 16.0602 16.0481 15.8746C16.1285 15.3657 17.896 13.7589 19.0208 12.493C20.1455 11.227 21.4577 10.1974 23.9641 10.4383C26.4705 10.6794 27.7779 12.4469 28.742 13.7053V13.7055L28.7424 13.7053ZM30.8153 17.025C30.5747 16.7667 30.2848 16.7527 30.0014 16.9467C30.0004 16.669 29.9834 16.3915 29.9476 16.1157C29.7125 14.2986 28.4706 11.8212 26.256 10.7639C26.2525 10.7449 26.245 10.7254 26.2267 10.7072C26.1923 10.6733 26.1662 10.6391 26.1423 10.5974C26.1314 10.5786 26.1172 10.5672 26.1021 10.5588L26.0922 10.5366C26.0606 10.4908 26.0208 10.4558 25.9762 10.4268C25.9509 10.3991 25.9245 10.3727 25.8952 10.3489C25.9891 10.3686 26.0828 10.3882 26.1821 10.4114C25.5574 9.83087 24.8626 9.10108 24.1782 8.20292C23.6371 7.49334 23.2019 6.80923 22.8526 6.18908C23.1739 6.36763 24.138 6.36763 24.138 6.36763C23.5668 5.93908 23.3166 4.83214 23.3166 4.83214C23.7095 5.01069 24.138 4.90359 24.138 4.90359C23.7451 4.47504 23.5308 3.68955 23.5308 3.68955C23.9593 3.72536 23.9593 3.511 23.9593 3.511C23.6737 3.33245 21.6027 1.47567 20.3887 0.868576C19.6201 0.484266 19.0876 0.998111 18.8002 1.42666C18.6358 1.67236 18.5908 1.97695 18.6826 2.25782C18.8726 2.83993 19.1271 3.93573 18.4248 4.11794C17.4606 4.36794 17.3177 2.65391 17.3533 1.72567C17.3892 0.796965 16.818 0.190186 15.7822 0.190186C14.7467 0.190186 13.9969 1.44003 13.9969 1.44003C13.9969 1.44003 14.7111 1.54713 14.9253 1.69003C15.1395 1.83293 15.6393 2.97536 15.1037 3.68955C14.5683 4.40375 13.9256 3.72536 13.6396 3.40391C13.354 3.08245 13.6041 1.18987 13.247 0.796965C12.8899 0.404381 10.7832 1.33261 9.81897 2.15406C8.85493 2.97536 7.71235 3.11826 7.71235 3.11826C7.71235 3.58246 8.31928 3.54681 8.31928 3.54681C8.17654 4.04665 7.74799 4.61794 7.74799 4.61794L8.31928 4.79665C8.35509 5.43924 7.78364 5.93924 7.78364 5.93924H8.42654C8.29732 6.45658 8.10525 7.05015 7.81515 7.68192C7.25213 8.90837 6.53571 9.80811 5.96266 10.4116C6.09936 10.4151 6.22778 10.4119 6.35031 10.4047C3.51613 11.109 1.94563 14.0452 1.67765 16.116C1.6358 16.4386 1.621 16.7632 1.62673 17.0877C1.29286 16.7566 0.933058 16.7155 0.644706 17.0253C-0.105135 17.8299 -0.31933 26.924 0.644706 28.2954C1.48812 29.4953 4.86066 33.9179 6.27107 35.3969C5.99799 35.335 5.70884 35.3015 5.40919 35.3015C3.73558 35.3015 2.37402 36.3403 2.37402 37.6172C2.37402 37.6745 2.37911 37.7306 2.38452 37.787L2.38436 37.7876L2.38468 37.7882C2.4138 38.0876 2.51692 38.371 2.68195 38.6278L2.68274 38.6299L2.68449 38.6323C2.76151 38.7512 2.8519 38.8642 2.95327 38.9708L4.90378 41.4273C5.58902 42.1094 6.66317 42.2053 7.45821 41.6554C9.15681 40.4896 11.6608 39.6913 14.499 39.5368C15.3144 39.4924 16.3616 39.5056 17.1159 39.5368C19.9558 39.6539 22.4581 40.4896 24.1567 41.6554C24.9515 42.2053 26.026 42.1094 26.7109 41.4273L28.6614 38.9708C28.7631 38.8642 28.8535 38.7512 28.9304 38.6323L28.9321 38.6299L28.9328 38.6278C29.098 38.3712 29.2011 38.0876 29.2302 37.7882L29.2305 37.7876L29.2304 37.787C29.2356 37.7306 29.2409 37.6745 29.2409 37.6172C29.2409 36.3403 27.8793 35.3015 26.2055 35.3015C25.8293 35.3015 25.4692 35.3541 25.1369 35.4504C26.5136 34.0301 29.9611 29.5107 30.8153 28.2954C31.7795 26.9241 31.5653 17.8299 30.8153 17.0253H30.8155L30.8153 17.025Z" fill="#231F20"/>
<path d="M8.93566 22.7843C12.0957 22.7307 10.489 22.1147 10.489 22.1147C10.489 22.1147 9.76586 21.231 9.49788 21.3381C9.23022 21.4453 9.41768 21.847 8.50711 21.9005C7.59654 21.9543 5.5663 22.5731 4.11516 20.2668C2.66401 17.9606 3.12438 17.6425 3.15096 17.3211C3.1777 16.9998 2.99039 15.875 2.99039 15.875C2.99039 15.9552 2.07983 18.2316 3.28495 19.9189C4.49008 21.6059 5.77556 22.8379 8.93566 22.7845V22.7843Z" fill="#231F20"/>
<path d="M21.5385 11.4513C20.1457 11.8334 17.8426 15.4463 17.4142 15.6606C16.9856 15.8748 16.7982 16.0892 16.9856 16.1961C17.1732 16.3034 18.1226 16.0623 18.5985 16.0623C19.0746 16.0623 19.3959 15.9017 19.4228 15.6606C19.4493 15.4197 19.262 14.375 19.8512 13.6522C20.4406 12.9291 21.3777 11.4515 23.4398 11.4515H24.4844C24.4844 11.4515 23.2792 10.9739 21.5385 11.4515V11.4513Z" fill="#231F20"/>
<path d="M11.7743 13.6521C12.3636 14.3749 12.1761 15.4196 12.2029 15.6605C12.2296 15.9016 12.551 16.0622 13.027 16.0622C13.5032 16.0622 14.4525 16.3033 14.6398 16.196C14.8273 16.0889 14.6398 15.8747 14.2113 15.6605C13.7829 15.4463 11.4796 11.8333 10.0872 11.4513C8.3464 10.9737 7.14111 11.4513 7.14111 11.4513H8.18551C10.2477 11.4513 11.185 12.929 11.7742 13.6519L11.7743 13.6521Z" fill="#231F20"/>
<path d="M27.5107 20.2667C26.0592 22.5732 24.0293 21.954 23.1186 21.9004C22.208 21.8469 22.3957 21.4453 22.1278 21.338C21.86 21.2309 21.1369 22.1146 21.1369 22.1146C21.1369 22.1146 19.5303 22.7306 22.6904 22.7842C25.8505 22.8377 27.1358 21.6058 28.3409 19.9187C29.546 18.2314 28.6355 15.955 28.6355 15.8748C28.6355 15.8748 28.4479 16.9995 28.4747 17.3208C28.5015 17.6423 28.9619 17.9604 27.5107 20.2665V20.2667Z" fill="#231F20"/>
<path d="M11.6374 31.8548C10.2263 29.6937 11.4798 28.1334 11.854 27.3482C12.2283 26.5632 12.4975 26.8818 12.6843 26.6857C12.871 26.4894 12.3906 25.5137 12.3906 25.5137C12.3906 25.5137 12.4544 23.8581 11.2674 26.6332C10.0801 29.4082 10.6492 31.0139 11.6296 32.7219C12.6099 34.4295 14.8495 34.4899 14.9167 34.5203C14.9167 34.5203 14.0405 33.9267 13.7612 33.8282C13.4819 33.7297 13.0484 34.0158 11.6375 31.8548H11.6374Z" fill="#231F20"/>
<path d="M18.8576 24.0928C18.6999 24.2178 18.5591 25.1494 18.387 25.5705C18.215 25.9916 18.2336 26.337 18.4262 26.4523C18.6189 26.5676 19.5634 26.799 19.9571 27.5952C20.3508 28.3915 21.2521 29.7826 20.5067 31.6068C20.3293 32.0411 20.1291 32.5307 20.1291 32.5307C20.1291 32.5307 20.9655 31.6462 21.194 29.9247C21.377 28.5476 19.1773 25.1359 19.1523 24.6754C19.1275 24.2148 19.0155 23.9675 18.8578 24.0926L18.8576 24.0928Z" fill="#231F20"/>
<path d="M7.09456 15.075C7.21661 15.1773 10.1052 17.5858 11.8076 18.2129C13.2567 18.7467 15.1867 20.5514 15.5583 20.9075C15.6299 20.9765 15.7224 21.0108 15.8148 21.0108C15.9055 21.0108 15.9964 20.9776 16.0678 20.9109C17.1636 19.8877 17.7849 19.3571 17.9315 19.2713C18.2524 19.222 19.2897 18.7799 19.72 18.5224C20.2101 18.2298 24.5336 15.4893 24.7173 15.3727L24.4878 15.0108C24.4429 15.0393 19.9854 17.8649 19.5004 18.1545C19.0327 18.4338 18.0311 18.8299 17.8812 18.8474C17.7733 18.8474 17.6514 18.8474 15.8154 20.5605C15.2303 20.0035 13.4116 18.3468 11.9556 17.8106C10.3229 17.2089 7.3985 14.7708 7.36922 14.7463L7.0944 15.0748H7.09424L7.09456 15.075Z" fill="#231F20"/>
<path d="M6.93918 39.8037C6.94905 39.8562 6.94984 39.8995 6.94173 39.9326C6.92788 39.9935 6.88794 40.0414 6.8219 40.0767C6.75761 40.1113 6.69189 40.1153 6.62473 40.0888C6.55758 40.0626 6.49806 40.0002 6.44682 39.9012C6.39558 39.8026 6.37585 39.7149 6.38889 39.6385C6.40162 39.5621 6.4438 39.5045 6.51461 39.4663C6.58447 39.4291 6.64669 39.4203 6.70128 39.4407C6.73183 39.4523 6.76397 39.476 6.79755 39.512C6.8768 39.4708 6.91658 39.4504 6.99631 39.41C6.96655 39.3552 6.91833 39.3105 6.85086 39.2761C6.72928 39.2149 6.58733 39.2263 6.4274 39.3121C6.30789 39.3762 6.22849 39.4668 6.18982 39.5817C6.14526 39.7139 6.16483 39.8563 6.24631 40.0096C6.32174 40.1509 6.41881 40.241 6.53578 40.2808C6.65274 40.3204 6.77543 40.3048 6.90544 40.2352C7.01047 40.1791 7.08192 40.1035 7.12028 40.0074C7.15863 39.9113 7.16356 39.8099 7.1338 39.7037C7.05583 39.7432 7.01684 39.7633 6.93918 39.8037Z" fill="#231F20"/>
<path d="M7.55715 39.6733C7.51498 39.5799 7.49414 39.5333 7.45181 39.4402C7.6364 39.3512 7.72902 39.3081 7.91521 39.2245C7.88815 39.1607 7.87479 39.1289 7.84789 39.0652C7.66027 39.1496 7.5667 39.1932 7.38051 39.2829C7.34582 39.2059 7.32848 39.1674 7.29379 39.0905C7.49843 38.9919 7.60155 38.9441 7.80811 38.8518C7.7809 38.7868 7.76705 38.7543 7.73984 38.6892C7.45085 38.8183 7.30763 38.8859 7.02246 39.0271C7.19019 39.3876 7.27373 39.5681 7.44146 39.9285C7.72218 39.7898 7.86365 39.7234 8.14802 39.5964C8.12033 39.5306 8.10664 39.4975 8.07895 39.4316C7.86922 39.5248 7.76482 39.5735 7.55715 39.6735V39.6733Z" fill="#231F20"/>
<path d="M8.53277 38.3545C8.62968 38.6148 8.67806 38.745 8.77513 39.0053C8.52481 38.8059 8.39735 38.7079 8.1378 38.5162C8.05091 38.5529 8.00747 38.5714 7.9209 38.6091C8.0716 38.9776 8.14687 39.1619 8.29757 39.5305C8.37093 39.4983 8.40753 39.4827 8.48105 39.4517C8.37682 39.1888 8.32478 39.0577 8.22023 38.7951C8.48376 38.9905 8.61313 39.09 8.86679 39.2934C8.9462 39.2619 8.98599 39.2463 9.06571 39.2156C8.93013 38.8408 8.8625 38.6533 8.72707 38.2786C8.6491 38.3085 8.61027 38.3239 8.53261 38.3546L8.53277 38.3545Z" fill="#231F20"/>
<path d="M9.65685 37.9468C9.3284 38.0548 9.16513 38.1129 8.84033 38.2354C8.86404 38.302 8.87566 38.3352 8.89921 38.4017C9.01872 38.3565 9.07871 38.3344 9.19854 38.2915C9.30357 38.6021 9.35593 38.7574 9.46096 39.0682C9.54164 39.0392 9.58222 39.0249 9.66306 38.9969C9.56121 38.685 9.51045 38.5291 9.4086 38.217C9.52843 38.1755 9.58858 38.1552 9.70889 38.1156C9.68788 38.048 9.67754 38.0144 9.65685 37.9468Z" fill="#231F20"/>
<path d="M10.4367 38.1497C10.4172 38.1665 10.3853 38.1817 10.3407 38.1949C10.2508 38.2216 10.2061 38.2351 10.1165 38.2628C10.0864 38.16 10.0715 38.1085 10.0415 38.0055C10.1346 37.9767 10.1813 37.9625 10.2745 37.935C10.3179 37.9221 10.3522 37.9181 10.3771 37.9232C10.4214 37.932 10.4511 37.9656 10.4669 38.0238C10.4815 38.0781 10.4715 38.1198 10.437 38.1497H10.4367ZM10.8074 38.5545C10.7998 38.5397 10.7901 38.5101 10.7786 38.4662C10.7716 38.4403 10.7685 38.4272 10.7618 38.4013C10.7441 38.3338 10.7214 38.2861 10.6937 38.2584C10.666 38.2305 10.6268 38.2144 10.5757 38.2097C10.626 38.1756 10.6574 38.1333 10.6698 38.0824C10.6825 38.0313 10.6828 37.9829 10.6709 37.9371C10.6612 37.899 10.6462 37.8669 10.6259 37.8405C10.6055 37.8144 10.5815 37.7921 10.5536 37.7736C10.5197 37.7512 10.4819 37.7377 10.4402 37.7332C10.3986 37.7288 10.3425 37.7358 10.2724 37.755C10.0772 37.8123 9.97979 37.8422 9.78564 37.9048C9.90102 38.2867 9.95846 38.4775 10.0743 38.8593C10.1532 38.8338 10.1927 38.8214 10.272 38.7967C10.2282 38.6465 10.2062 38.5714 10.1625 38.4213C10.243 38.3963 10.2834 38.3841 10.3644 38.3599C10.422 38.3427 10.4642 38.3416 10.4909 38.3559C10.5175 38.3702 10.5395 38.408 10.5571 38.4694C10.5673 38.5047 10.5726 38.5225 10.5827 38.5583C10.591 38.5868 10.601 38.6136 10.6139 38.639C10.62 38.6513 10.6291 38.667 10.6413 38.6866C10.7312 38.6607 10.7761 38.6481 10.8662 38.6234L10.8598 38.5992C10.8369 38.5927 10.8197 38.5778 10.8078 38.5547H10.8079L10.8074 38.5545Z" fill="#231F20"/>
<path d="M11.2257 38.1393C11.2418 37.9734 11.2504 37.8904 11.2686 37.7242C11.355 37.8652 11.3976 37.9357 11.4821 38.0774C11.3795 38.1014 11.3281 38.1138 11.2257 38.1393ZM11.0986 37.531C11.0421 37.9564 11.0174 38.169 10.9756 38.5936C11.061 38.5705 11.1038 38.5592 11.1896 38.5374C11.1969 38.451 11.2006 38.4076 11.2086 38.321C11.3543 38.2842 11.4275 38.2666 11.5738 38.2327C11.6174 38.3068 11.6392 38.3439 11.6823 38.4184C11.7714 38.398 11.8161 38.3881 11.9054 38.3689C11.6868 38.0075 11.5741 37.828 11.3422 37.4722C11.2447 37.4951 11.196 37.5069 11.0986 37.531Z" fill="#231F20"/>
<path d="M12.2051 38.1243C12.1454 37.8019 12.1158 37.6409 12.0563 37.3186C11.9695 37.3356 11.9263 37.3444 11.8398 37.3622C11.9165 37.7543 11.9547 37.9505 12.0314 38.3423C12.3109 38.2842 12.4512 38.2578 12.7323 38.2104C12.721 38.1394 12.7154 38.1039 12.7039 38.033C12.5041 38.0669 12.4045 38.085 12.2051 38.1243Z" fill="#231F20"/>
<path d="M13.7561 37.8728C13.7329 37.8873 13.6996 37.8972 13.656 37.9024C13.5583 37.9137 13.5094 37.9199 13.4121 37.9327C13.399 37.8268 13.3926 37.7742 13.3796 37.6683C13.4797 37.6553 13.5297 37.6491 13.6301 37.6372C13.674 37.6324 13.7085 37.6343 13.7337 37.6424C13.779 37.6569 13.8042 37.6901 13.8096 37.7419C13.8158 37.803 13.798 37.8466 13.7563 37.873L13.7561 37.8728ZM13.3322 37.2853C13.4226 37.2734 13.4676 37.2676 13.558 37.2568C13.6076 37.2511 13.6503 37.2508 13.6821 37.2584C13.72 37.2675 13.7426 37.2976 13.7472 37.3437C13.7515 37.3856 13.7407 37.4163 13.7146 37.4357C13.6885 37.4551 13.6531 37.4677 13.6084 37.4729C13.5086 37.4847 13.4587 37.4909 13.3591 37.5038C13.3481 37.4164 13.3428 37.3725 13.332 37.2851L13.3322 37.2853ZM13.8449 37.5161C13.8774 37.495 13.9019 37.4739 13.9175 37.4511C13.9458 37.411 13.9571 37.3609 13.9515 37.2999C13.946 37.2412 13.9256 37.1917 13.8895 37.1527C13.8298 37.0894 13.7357 37.0633 13.6078 37.0762C13.4055 37.0996 13.3045 37.1126 13.1025 37.1413C13.1555 37.5375 13.1818 37.7355 13.2346 38.1317C13.4138 38.1061 13.5036 38.0947 13.6834 38.0735C13.7341 38.0675 13.7806 38.0577 13.8231 38.0439C13.8654 38.0301 13.9012 38.0094 13.931 37.982C13.9573 37.9578 13.9783 37.9293 13.9945 37.8962C14.0199 37.8464 14.03 37.7923 14.0246 37.7334C14.0193 37.6761 14.0018 37.6284 13.9716 37.5912C13.9415 37.5538 13.899 37.5286 13.8449 37.5156V37.5161Z" fill="#231F20"/>
<path d="M14.4781 37.6188C14.5201 37.4578 14.5416 37.3776 14.5857 37.2167C14.6481 37.3704 14.6788 37.4473 14.7393 37.6013C14.6349 37.6075 14.5825 37.6112 14.4781 37.6188ZM14.4496 36.9971C14.3271 37.407 14.2693 37.6123 14.1611 38.0238C14.2485 38.0159 14.2923 38.0121 14.3796 38.0052C14.4006 37.921 14.4111 37.879 14.4326 37.7948C14.5812 37.7835 14.6557 37.7786 14.8047 37.77C14.836 37.8505 14.8513 37.891 14.882 37.9715C14.9727 37.9666 15.0181 37.9645 15.1088 37.9607C14.9514 37.567 14.8693 37.3711 14.6981 36.9807C14.5986 36.9866 14.5491 36.9899 14.4496 36.9971Z" fill="#231F20"/>
<path d="M15.8477 36.9445C15.8483 37.2233 15.8487 37.3629 15.8493 37.6418C15.6871 37.3633 15.6033 37.2251 15.4301 36.9499C15.338 36.9521 15.2917 36.9534 15.1997 36.9566C15.2129 37.3565 15.2194 37.5562 15.2328 37.956C15.3108 37.9532 15.3499 37.952 15.4279 37.9502C15.4212 37.6663 15.4179 37.5245 15.4114 37.2408C15.5869 37.5204 15.6719 37.6612 15.8359 37.9443C15.9195 37.944 15.9613 37.9443 16.0453 37.9448C16.0482 37.5449 16.0496 37.3452 16.0525 36.945C15.9706 36.9443 15.9295 36.9442 15.8477 36.9445Z" fill="#231F20"/>
<path d="M16.8847 36.9689C16.7146 37.1253 16.631 37.2048 16.4673 37.365C16.4716 37.2001 16.474 37.1179 16.4786 36.953C16.3918 36.9503 16.3489 36.9492 16.2623 36.9478C16.2555 37.3477 16.252 37.5474 16.2451 37.9474C16.3275 37.9489 16.3688 37.95 16.4512 37.9522C16.455 37.8187 16.4566 37.7517 16.4604 37.618C16.5026 37.5784 16.5236 37.5585 16.5663 37.5194C16.6867 37.6982 16.7458 37.788 16.8607 37.9688C16.9682 37.9742 17.022 37.9772 17.1294 37.9842C16.9711 37.738 16.8895 37.6158 16.7209 37.373C16.8966 37.2157 16.986 37.1379 17.1683 36.985C17.0548 36.9777 16.9981 36.9746 16.8847 36.9689Z" fill="#231F20"/>
<path d="M18.2987 37.8541C18.2427 37.9086 18.1731 37.9309 18.0901 37.9211C18.007 37.9116 17.9437 37.874 17.8999 37.808C17.8563 37.7423 17.8393 37.6532 17.8496 37.5411C17.8603 37.4291 17.894 37.3454 17.9508 37.2899C18.008 37.2345 18.0801 37.2116 18.1658 37.2216C18.2519 37.2315 18.3167 37.2701 18.36 37.3373C18.4029 37.4044 18.4174 37.4937 18.4037 37.6049C18.39 37.7167 18.3547 37.7996 18.2985 37.8538L18.2987 37.8541ZM18.1849 37.0454C18.0352 37.0281 17.9158 37.0602 17.8305 37.1248C17.7226 37.2068 17.6525 37.3384 17.6372 37.5211C17.6221 37.6998 17.6666 37.8414 17.7551 37.9461C17.8237 38.0276 17.9284 38.0804 18.071 38.097C18.2132 38.1132 18.3269 38.0857 18.4115 38.0219C18.5201 37.9399 18.5936 37.812 18.6173 37.6339C18.6413 37.4525 18.6014 37.3082 18.514 37.2038C18.4448 37.121 18.3351 37.0628 18.1851 37.0454H18.1849Z" fill="#231F20"/>
<path d="M18.7098 38.1538C18.7924 38.1661 18.8336 38.1726 18.9159 38.1858C18.941 38.0203 18.9534 37.9376 18.9786 37.7718C19.1582 37.8007 19.2478 37.8163 19.4269 37.8494C19.4389 37.7811 19.4448 37.7468 19.4566 37.6783C19.276 37.6449 19.1858 37.6293 19.0043 37.6001C19.018 37.5092 19.025 37.4638 19.0389 37.3728C19.2478 37.4065 19.3521 37.4247 19.5604 37.4641C19.5726 37.3949 19.5787 37.3604 19.5909 37.2913C19.2948 37.2353 19.1463 37.2102 18.8486 37.1658C18.793 37.5611 18.7652 37.7587 18.7095 38.1538H18.7098Z" fill="#231F20"/>
<path d="M20.7647 37.5479C20.7005 37.8189 20.6685 37.9545 20.6042 38.2253C20.5105 37.9145 20.4609 37.7595 20.3555 37.4497C20.2651 37.4288 20.2198 37.4188 20.1291 37.3989C20.049 37.7904 20.0091 37.9861 19.9292 38.3776C20.0059 38.3942 20.0446 38.4027 20.1211 38.4201C20.1805 38.1432 20.2101 38.0046 20.2696 37.7274C20.3762 38.0423 20.4263 38.2 20.521 38.5159C20.603 38.5363 20.6437 38.5469 20.7255 38.5682C20.8211 38.1808 20.8692 37.9869 20.9647 37.5993C20.8846 37.5783 20.8447 37.5681 20.7647 37.5477V37.5479Z" fill="#231F20"/>
<path d="M21.1478 37.6484C21.0485 38.0351 20.9992 38.2285 20.8999 38.615C20.9811 38.6373 21.0215 38.6486 21.1026 38.6717C21.2058 38.2861 21.2573 38.0935 21.3604 37.708C21.2753 37.6838 21.233 37.6717 21.1478 37.6484Z" fill="#231F20"/>
<path d="M21.8506 38.5135C21.9418 38.543 21.9871 38.5581 22.078 38.5886C22.0482 38.6472 22.0053 38.6881 21.9496 38.712C21.8942 38.7358 21.8324 38.7368 21.764 38.7147C21.6945 38.6921 21.6396 38.6482 21.5985 38.5823C21.5581 38.5164 21.5541 38.4249 21.5879 38.307C21.6214 38.19 21.6727 38.1103 21.7416 38.0684C21.8108 38.0266 21.8861 38.0186 21.9674 38.0446C22.0096 38.0584 22.046 38.0778 22.0761 38.1034C22.1299 38.1496 22.1545 38.208 22.1499 38.2782C22.2319 38.3055 22.2728 38.3197 22.3546 38.348C22.3732 38.2529 22.3538 38.1612 22.2955 38.0737C22.2374 37.986 22.1434 37.9206 22.0143 37.8789C21.8654 37.8312 21.7312 37.8409 21.6146 37.9076C21.4975 37.9741 21.4185 38.0861 21.3759 38.2416C21.3334 38.3953 21.3453 38.5298 21.4048 38.6439C21.4629 38.7553 21.5548 38.8329 21.6829 38.8738C21.7605 38.8988 21.8309 38.9041 21.8942 38.8897C21.9311 38.8813 21.976 38.8616 22.0293 38.8299C22.0223 38.8802 22.0188 38.9053 22.0118 38.9553C22.0651 38.9734 22.0918 38.9827 22.145 39.0011C22.2115 38.7978 22.2448 38.6961 22.3111 38.4928C22.1466 38.4356 22.0641 38.4079 21.8988 38.3544C21.8795 38.4182 21.87 38.45 21.8506 38.5135Z" fill="#231F20"/>
<path d="M22.809 38.3688C23.0196 38.4473 23.1246 38.488 23.3337 38.5727C23.3587 38.5066 23.3713 38.4736 23.3962 38.4077C23.1042 38.2893 22.9573 38.2334 22.6622 38.127C22.5344 38.5046 22.4704 38.6935 22.3428 39.0709C22.6334 39.1757 22.778 39.2312 23.0654 39.348C23.091 39.281 23.1036 39.2474 23.1292 39.1806C22.9176 39.0946 22.8111 39.0531 22.5974 38.9735C22.6313 38.8768 22.6482 38.8284 22.682 38.7317C22.8719 38.8023 22.9664 38.8392 23.1548 38.9148C23.1793 38.8502 23.1914 38.8178 23.2163 38.7531C23.0261 38.6766 22.9306 38.6397 22.7392 38.5684C22.7673 38.4887 22.7812 38.4487 22.809 38.3688Z" fill="#231F20"/>
<path d="M23.9455 39.1036C23.9197 39.1039 23.8855 39.0945 23.8422 39.0754C23.7555 39.0368 23.7119 39.0178 23.6248 38.9804C23.6649 38.8813 23.6848 38.8316 23.7249 38.7323C23.8156 38.7713 23.8607 38.7909 23.9509 38.831C23.9927 38.8496 24.022 38.8692 24.0383 38.8896C24.0677 38.9257 24.0701 38.9712 24.0465 39.0266C24.0246 39.0778 23.991 39.1036 23.9456 39.1036H23.9455ZM24.1699 39.2055C24.2112 39.1746 24.2415 39.1373 24.2606 39.0942C24.2763 39.0584 24.2843 39.0237 24.2846 38.99C24.2849 38.9564 24.2798 38.9233 24.2693 38.8905C24.2566 38.8509 24.2349 38.8154 24.2052 38.7844C24.1753 38.7535 24.127 38.7222 24.0602 38.6908C23.8718 38.6065 23.7771 38.5657 23.5874 38.4863C23.4421 38.8571 23.3694 39.0427 23.2241 39.4134C23.3015 39.4457 23.3401 39.462 23.417 39.4951C23.4756 39.3503 23.5047 39.2779 23.5631 39.1332C23.6415 39.1668 23.6807 39.184 23.7588 39.2185C23.8147 39.2433 23.8482 39.2702 23.8605 39.2987C23.8723 39.3272 23.8662 39.371 23.8424 39.4298C23.8285 39.4642 23.8214 39.4814 23.8075 39.5154C23.7962 39.5428 23.7878 39.5702 23.782 39.5982C23.7792 39.6116 23.7768 39.6299 23.7739 39.6529C23.8603 39.6923 23.9035 39.7123 23.9896 39.7526L23.9996 39.7298C23.9856 39.7098 23.9814 39.6867 23.9862 39.6607C23.9894 39.6445 23.9999 39.6154 24.018 39.5739C24.0289 39.5493 24.0343 39.5373 24.0449 39.5126C24.0728 39.4488 24.0844 39.3969 24.0798 39.3573C24.0753 39.3178 24.0545 39.2793 24.0174 39.2421C24.0779 39.2491 24.1286 39.2371 24.1699 39.2058V39.2055Z" fill="#231F20"/>
<path d="M24.5532 38.9191C24.3898 39.2819 24.308 39.4632 24.1445 39.8259C24.2217 39.8628 24.2602 39.8816 24.3374 39.9197C24.5045 39.5588 24.5884 39.3784 24.7556 39.0176C24.6748 38.9777 24.6343 38.9579 24.5532 38.9189V38.9191Z" fill="#231F20"/>
<path d="M25.1737 39.9306C25.0782 39.879 25.0306 39.8534 24.9347 39.8033C25.0524 39.6884 25.1118 39.6313 25.2313 39.5178C25.2092 39.6833 25.1975 39.7657 25.1737 39.9308V39.9306ZM24.4526 39.9774C24.5333 40.018 24.5737 40.0385 24.6543 40.0802C24.7146 40.0194 24.7453 39.9892 24.8062 39.929C24.9429 40.0003 25.011 40.0366 25.1468 40.1107C25.1339 40.1968 25.1274 40.2396 25.1138 40.3254C25.1963 40.3709 25.2375 40.394 25.3196 40.4406C25.378 40.0175 25.4039 39.8046 25.4488 39.3771C25.3581 39.3279 25.3128 39.3036 25.2216 39.2559C24.9079 39.5398 24.7542 39.6843 24.4528 39.9775L24.4526 39.9774Z" fill="#231F20"/>
<path d="M8.93581 22.7844C5.77572 22.8378 4.49007 21.606 3.28511 19.9188C2.07998 18.2315 2.99055 15.9551 2.99055 15.8749C2.99055 15.8749 3.17801 16.9997 3.15111 17.321C3.12438 17.6424 2.664 17.9605 4.11515 20.2667C5.5663 22.5732 7.59669 21.954 8.5071 21.9004C9.41767 21.8469 9.23021 21.4453 9.49787 21.338C9.7657 21.2309 10.4888 22.1146 10.4888 22.1146C10.4888 22.1146 12.0956 22.7306 8.93549 22.7842H8.93565L8.93581 22.7844ZM10.0875 11.4514C11.4801 11.8335 13.7832 15.4464 14.2116 15.6607C14.6401 15.8749 14.8276 16.0893 14.6401 16.1962C14.4527 16.3035 13.5033 16.0624 13.0273 16.0624C12.5513 16.0624 12.2299 15.9018 12.2032 15.6607C12.1764 15.4198 12.3637 14.3751 11.7746 13.6523C11.1853 12.9292 10.248 11.4516 8.18597 11.4516H7.14157C7.14157 11.4516 8.34669 10.974 10.0876 11.4516L10.0875 11.4514ZM12.2032 22.6236C12.2565 22.222 10.4355 20.7489 10.4355 20.7489L9.89985 20.4543C9.89985 20.4543 7.70697 21.986 5.80261 20.7758C3.89809 19.5657 3.84765 17.8299 4.3564 15.6071C4.86531 13.3841 7.12613 12.5606 7.24867 12.4931C8.04577 12.0552 8.93597 12.2594 10.0607 12.9338C11.1855 13.6082 11.5069 14.6696 11.4801 15.1516C11.4533 15.6337 11.614 16.3568 11.9622 16.5444C12.3104 16.7318 14.3456 17.1335 15.168 17.187C15.9902 17.2408 15.6578 16.3835 15.5776 15.8748C15.4972 15.3658 13.7297 13.7591 12.6048 12.4931C11.4799 11.2269 10.1677 10.1975 7.66114 10.4382C5.15462 10.6793 3.84749 12.447 2.88329 13.7054C1.91925 14.9643 1.66353 17.7061 2.5351 19.8919C3.40684 22.0778 5.61499 23.1591 6.77922 23.5073C7.94329 23.8555 10.7035 23.4538 11.4801 23.3735C12.2565 23.2933 12.1495 23.0253 12.2032 22.6236Z" fill="#D8AF7F"/>
<path d="M28.3408 19.919C27.1356 21.6059 25.8503 22.838 22.6902 22.7845C19.5301 22.7309 21.1368 22.1149 21.1368 22.1149C21.1368 22.1149 21.8599 21.2312 22.1277 21.3383C22.3955 21.4455 22.2081 21.8472 23.1185 21.9007C24.0292 21.9544 26.0593 22.5733 27.5106 20.267C28.9617 17.9608 28.5013 17.6427 28.4746 17.3212C28.4479 17 28.6353 15.8752 28.6353 15.8752C28.6353 15.9554 29.5459 18.2318 28.3408 19.9191V19.919ZM23.4398 11.4516C21.3775 11.4516 20.4405 12.9293 19.8511 13.6522C19.262 14.375 19.4495 15.4197 19.4227 15.6607C19.3958 15.9018 19.0745 16.0623 18.5984 16.0623C18.1224 16.0623 17.173 16.3034 16.9856 16.1962C16.7981 16.0891 16.9856 15.8749 17.4141 15.6607C17.8425 15.4465 20.1458 11.8335 21.5384 11.4514C23.279 10.9739 24.4843 11.4514 24.4843 11.4514H23.4398V11.4516ZM28.7424 13.7057C27.7784 12.4471 26.4711 10.6796 23.9646 10.4385C21.4582 10.1976 20.146 11.2272 19.0212 12.4934C17.8965 13.7593 16.1288 15.3663 16.0484 15.875C15.9679 16.3838 15.6358 17.2409 16.458 17.1873C17.2805 17.1338 19.3158 16.732 19.6638 16.5447C20.012 16.3571 20.1727 15.6339 20.146 15.1519C20.1193 14.6699 20.4405 13.6085 21.5655 12.9341C22.6904 12.2597 23.5806 12.0553 24.3774 12.4934C24.5001 12.5609 26.761 13.3844 27.2696 15.6074C27.7786 17.8302 27.7281 19.566 25.8236 20.7759C23.9191 21.9861 21.7262 20.4544 21.7262 20.4544L21.1905 20.749C21.1905 20.749 19.3694 22.222 19.4232 22.6238C19.4767 23.0254 19.3694 23.2934 20.1463 23.3736C20.9227 23.454 23.6829 23.8556 24.8471 23.5074C26.0112 23.1593 28.2195 22.0779 29.0909 19.8921C29.9625 17.7062 29.7069 14.9645 28.7427 13.7056L28.7424 13.7057Z" fill="#D8AF7F"/>
<path d="M21.194 29.9248C20.9655 31.6463 20.1291 32.5308 20.1291 32.5308C20.1291 32.5308 20.3293 32.0411 20.5067 31.6068C21.2521 29.7828 20.3508 28.3917 19.9571 27.5954C19.5634 26.7992 18.6189 26.5678 18.4262 26.4525C18.2336 26.3371 18.215 25.9916 18.387 25.5707C18.5592 25.1495 18.6999 24.2181 18.8578 24.093C19.0155 23.9679 19.1277 24.2152 19.1523 24.6756C19.1773 25.1361 21.377 28.5478 21.194 29.9249V29.9248ZM11.6292 32.7219C10.6488 31.0141 10.0797 29.4082 11.267 26.6333C12.4542 23.8581 12.3902 25.5137 12.3902 25.5137C12.3902 25.5137 12.8705 26.4894 12.684 26.6858C12.4972 26.882 12.2279 26.5634 11.8536 27.3484C11.4796 28.1334 10.226 29.6939 11.637 31.8549C13.0479 34.016 13.4814 33.7299 13.7607 33.8284C14.04 33.9269 14.9162 34.5204 14.9162 34.5204C14.849 34.49 12.6093 34.4296 11.6291 32.7221L11.6292 32.7219ZM19.4661 23.386C19.0683 23.1213 18.4692 22.5015 18.2169 23.2493C17.9645 23.997 17.5661 25.9501 17.5974 26.3295C17.6289 26.7088 18.1778 27.1259 18.592 27.2855C19.0061 27.4452 20.9871 29.5064 18.7051 32.4183C18.6248 32.5211 17.6843 33.8093 15.6351 33.414C13.5858 33.0187 12.1472 32.3139 11.8202 30.1691C11.493 28.0239 13.571 26.6665 13.571 26.6665L13.5174 26.0807C13.5174 26.0807 12.9395 23.9095 12.5829 23.8042C12.2265 23.6987 12.0406 23.5023 11.6924 24.1587C11.3442 24.8151 10.0094 27.1038 9.88082 28.266C9.75224 29.4281 9.86157 31.7932 11.381 33.3952C12.9002 34.9977 15.2936 35.8142 16.6985 35.4402C18.1035 35.0661 20.0591 34.5819 21.1674 32.4563C22.2757 30.3307 21.8859 28.7781 21.2298 27.3016C20.574 25.8252 19.8644 23.6504 19.4663 23.386H19.4661Z" fill="#D8AF7F"/>
</g>
<defs>
<clipPath id="clip0_39_144967">
<rect width="31.4611" height="41.8209" fill="white" transform="translate(0 0.190186)"/>
</clipPath>
</defs>
</svg>
