<svg width="15" height="10" viewBox="0 0 15 10" fill="none" xmlns="http://www.w3.org/2000/svg">
<g clip-path="url(#clip0_182_17248)">
<rect x="12.2305" y="2" width="2" height="2" transform="rotate(90 12.2305 2)" fill="#535353"/>
<rect x="12.2305" y="3" width="2" height="2" transform="rotate(90 12.2305 3)" fill="#535353"/>
<rect x="10.2305" y="4" width="2" height="2" transform="rotate(90 10.2305 4)" fill="#535353"/>
<rect x="10.2305" y="5" width="2" height="2" transform="rotate(90 10.2305 5)" fill="#535353"/>
<rect x="8.23047" y="6" width="2" height="2" transform="rotate(90 8.23047 6)" fill="#535353"/>
<rect x="8.23047" y="7" width="2" height="2" transform="rotate(90 8.23047 7)" fill="#535353"/>
<rect x="6.23047" y="4" width="2" height="2" transform="rotate(90 6.23047 4)" fill="#535353"/>
<rect x="6.23047" y="5" width="2" height="2" transform="rotate(90 6.23047 5)" fill="#535353"/>
<rect x="4.23047" y="2" width="2" height="2" transform="rotate(90 4.23047 2)" fill="#535353"/>
<rect x="4.23047" y="3" width="2" height="2" transform="rotate(90 4.23047 3)" fill="#535353"/>
</g>
<defs>
<clipPath id="clip0_182_17248">
<rect width="10" height="14" fill="white" transform="translate(14.2305) rotate(90)"/>
</clipPath>
</defs>
</svg>
