<svg width="123" height="139" viewBox="0 0 123 139" fill="none" xmlns="http://www.w3.org/2000/svg">
<g style="mix-blend-mode:multiply">
<path d="M81.0169 111.108C82.4824 111.953 81.5321 113.882 78.8931 115.417C76.2522 116.951 72.9262 117.508 71.4607 116.661C69.9971 115.815 70.9474 113.886 73.5864 112.352C76.2255 110.818 79.5514 110.261 81.0169 111.108Z" fill="#90AAE9"/>
<path d="M27.3906 119.326L42.866 128.319L106.262 91.7179L90.7863 82.7246L27.3906 119.326Z" fill="#0A308C" fill-opacity="0.34"/>
<path d="M9.77344 122.734L36.7628 138.419L48.5955 131.588L21.6061 115.902L9.77344 122.734Z" fill="#0A308C" fill-opacity="0.34"/>
<path d="M84.0078 78.8147L110.999 94.5L122.83 87.6687L95.8405 71.9834L84.0078 78.8147Z" fill="#0A308C" fill-opacity="0.34"/>
<path d="M80.9036 112.708L80.2109 111.565C81.5944 110.728 87.6567 106.352 93.1255 101.681C102.487 93.6799 103.859 90.3119 103.844 89.0162L105.18 89.001C105.212 91.7182 101.449 96.3265 93.9938 102.698C88.1967 107.652 82.2031 111.922 80.9036 112.71V112.708Z" fill="#90AAE9"/>
</g>
<path d="M95.7228 43.9623C94.7458 39.8445 91.3053 36.3678 88.0366 36.1941C84.7679 36.0224 82.9093 39.2205 83.8844 43.3365C84.8595 47.4524 88.3019 50.931 91.5706 51.1047C94.8393 51.2764 96.6979 48.0783 95.7228 43.9623Z" fill="#3D3D3D"/>
<path d="M73.8712 35.8925C73.8846 35.406 73.9418 34.1332 74.1803 32.8223C74.5753 30.645 75.2203 28.9448 76.1477 27.321C76.3022 27.05 76.8709 26.0921 77.7047 25.1437C77.9471 24.8689 78.2848 24.5159 78.5539 24.2679C78.9622 23.89 79.0729 23.8042 79.6053 23.3882C79.8953 23.1611 80.3495 22.852 80.9544 22.4684C81.1586 22.3387 81.6299 22.0486 82.4962 21.5544C83.6507 20.8961 83.9121 20.7644 84.4807 20.4782C84.7479 20.3427 85.1161 20.192 85.3985 20.0889C86.4213 19.7187 87.0988 19.547 88.1845 19.3867C88.652 19.318 89.2817 19.2818 89.753 19.2627C90.0889 19.2493 90.5373 19.2741 90.8731 19.2799C91.4399 19.2894 92.1955 19.3791 92.7489 19.4917C93.2565 19.5966 93.9339 19.7416 94.4357 19.8733C94.8021 19.9706 95.283 20.1252 95.6379 20.2549C96.2371 20.4725 97.1244 20.8026 98.3895 21.4705C99.8531 22.2433 100.981 23.0733 100.99 23.081C102.135 23.9397 102.765 24.4129 103.425 25.0426C103.772 25.3746 104.253 25.802 104.582 26.1532C105.236 26.8554 106.087 27.8133 106.702 28.5498C106.711 28.5594 107.637 29.6928 108.617 31.2442C109.396 32.4731 109.945 33.5207 110.27 34.1828C110.505 34.6618 111.054 35.7857 111.625 37.3638C111.966 38.3102 112.323 39.6059 112.585 40.5791C112.772 41.3824 113.008 42.4872 113.163 43.9088C113.22 44.4412 113.27 45.1568 113.291 45.6911C113.308 46.1204 113.296 46.6929 113.296 47.1203C113.296 47.6527 113.228 48.3625 113.174 48.893C113.136 49.2823 113.044 49.7956 112.987 50.183C112.911 50.7096 112.752 51.4061 112.592 51.9137C112.485 52.2552 112.359 52.7151 112.231 53.0491C112.043 53.549 111.779 54.2111 111.545 54.6901C110.97 55.8655 110.535 56.459 110.033 57.1478C109.85 57.3978 109.589 57.7203 109.373 57.9436C108.986 58.3462 108.449 58.8633 108.032 59.2354C107.585 59.6323 106.911 60.0674 106.404 60.3803C106.213 60.4986 106.018 60.6093 105.826 60.7219C105.646 60.8287 105.167 61.1111 104.717 61.3668C103.238 62.2064 101.956 62.8457 100.496 63.235C99.3837 63.5307 98.4849 63.5956 98.4467 63.5994C98.1243 63.6223 97.693 63.6643 97.3686 63.6624C96.8152 63.6605 96.0749 63.6509 95.5234 63.588C94.9567 63.5231 94.0083 63.4143 92.6459 63.0365C91.1937 62.6339 89.9057 62.0309 89.8942 62.0252C88.8505 61.5214 88.3276 61.2695 87.28 60.6131C85.9271 59.7659 84.8261 58.8538 84.8146 58.8442C84.1239 58.2527 83.227 57.4398 82.5725 56.8101C82.2157 56.4666 81.7806 55.9648 81.4429 55.6022C80.941 55.0641 79.8515 53.6845 79.4317 53.0681C79.155 52.6617 78.781 52.1236 78.5176 51.7076C78.2505 51.2878 77.9223 50.7115 77.6666 50.2841C77.409 49.8548 77.1208 49.2518 76.888 48.8091C76.4243 47.9275 76.0045 46.8494 75.5618 45.7102C75.5561 45.6968 75.0104 44.2599 74.5772 42.4281C74.2471 41.0313 74.1498 40.2642 74.0009 39.104C74.0009 39.0888 73.8197 37.6195 73.8674 35.8887L73.8712 35.8925ZM79.5404 44.0691C80.9811 50.1429 86.0569 55.2721 90.8789 55.5259C95.7009 55.7797 98.4429 51.0626 97.0022 44.9908C95.5616 38.917 90.4858 33.7878 85.6638 33.534C80.8418 33.2802 78.0997 37.9973 79.5404 44.0691Z" fill="#E7F6E2"/>
<path d="M85.4317 22.0509C83.5808 21.9612 81.8863 22.2474 80.375 22.8447C80.5506 22.7283 80.7395 22.6043 80.9532 22.4688C81.1574 22.339 81.6287 22.049 82.495 21.5548C83.6494 20.8964 83.9109 20.7648 84.4795 20.4785C84.6112 20.4118 84.7657 20.3431 84.9241 20.2763C86.2789 19.8336 87.7692 19.6275 89.3759 19.7057C98.8195 20.1637 108.677 30.0462 111.394 41.7777C113.389 50.3817 110.984 57.5928 105.836 60.6421C105.592 60.7871 105.349 60.9302 105.105 61.0752C104.645 61.3462 104.185 61.6152 103.724 61.8824C103.531 61.9931 103.351 62.0961 103.185 62.1896C102.892 62.3346 102.598 62.472 102.308 62.598C107.128 59.4056 109.33 52.3987 107.401 44.0733C104.689 32.3685 94.8543 22.5089 85.4317 22.0509Z" fill="#8F8F8F"/>
<path d="M85.6671 33.5324C85.7969 33.54 85.9266 33.5496 86.0545 33.5629C90.7582 34.0629 95.603 39.0795 97.0036 44.9891C97.6448 47.6892 97.4578 50.1222 96.6277 51.9693C95.5935 54.2744 93.5575 55.6655 90.8784 55.5242C86.0564 55.2705 80.9806 50.1412 79.5399 44.0675C78.0992 37.9937 80.8413 33.2767 85.6633 33.5324H85.6671ZM83.883 43.3386C84.8599 47.4564 88.3004 50.9331 91.5691 51.1068C93.3838 51.2022 94.7653 50.2596 95.4656 48.6968C95.355 48.9448 95.3015 49.2101 95.2996 49.4848C95.2996 49.2101 95.3531 48.9448 95.4656 48.6968C95.6145 48.3361 95.6622 48.1911 95.7595 47.7083C95.7595 47.7045 95.8358 47.3209 95.8511 46.779C95.853 46.6874 95.8626 46.2027 95.8034 45.6723C95.7703 45.3771 95.6972 44.9592 95.584 44.4186C95.3779 43.6038 95.2748 43.3328 95.0707 42.7928C94.9581 42.4951 94.6928 41.9036 94.4906 41.5296C94.1051 40.814 93.8647 40.4553 93.7788 40.3332C93.6567 40.1614 93.5021 39.9248 93.3705 39.7588C93.1262 39.4516 92.7904 39.049 92.5309 38.7551C92.029 38.1922 91.1551 37.4537 90.5807 37.1083C90.0235 36.7744 89.8251 36.6675 89.3098 36.4672C88.8881 36.3031 88.5313 36.2515 88.2966 36.2191C88.2088 36.2096 88.121 36.2019 88.0333 36.1981C84.7645 36.0264 82.906 39.2245 83.881 43.3405L83.883 43.3386Z" fill="#707070"/>
<path d="M89.6654 90.366L75.5391 82.1475C78.0235 83.592 81.2121 84.3266 84.9159 84.5403L99.0422 92.7589C95.3384 92.5452 92.1498 91.8105 89.6654 90.366Z" fill="#CFCFCF"/>
<path d="M63.8727 17.8394C83.7827 6.34447 99.9775 15.5725 100.042 38.4516C100.082 52.8012 93.7664 69.1162 84.1376 82.1205C85.418 89.3888 91.0205 92.295 99.0425 92.7568C86.3034 98.2676 73.4957 102.302 64.8115 100.277C64.5749 100.416 64.3402 100.559 64.1074 100.693C44.1974 112.188 28.0026 102.96 27.9377 80.0807C27.8728 57.2015 43.9627 29.3324 63.8727 17.8375V17.8394Z" fill="white"/>
<path d="M72.7529 5.53322C66.1964 1.72257 57.1191 2.26068 47.0992 8.04439C27.1892 19.5393 11.0994 47.4084 11.1643 70.2876C11.1967 81.6527 15.2096 89.6499 21.6822 93.411L38.4609 103.204C31.9883 99.4428 27.9754 91.4455 27.943 80.0804C27.8781 57.2012 43.9679 29.3321 63.8779 17.8372C73.8978 12.0535 82.9751 11.5154 89.5316 15.326L72.7529 5.53322Z" fill="#E0E0E0"/>
<g style="mix-blend-mode:multiply">
<path d="M78.657 8.97761L74.4915 6.54658C69.9214 6.51223 64.7712 7.77545 59.2584 10.5118C38.5622 20.7817 20.6615 47.7157 19.28 70.6655C18.614 81.7273 21.9152 89.8352 27.8229 94.1267C23.9932 89.5623 21.9247 82.7043 22.3006 73.959C23.2891 50.9883 40.7242 23.7508 61.241 13.1279C67.622 9.82485 73.5469 8.51965 78.657 8.97761Z" fill="#D9D9D9"/>
</g>
<g style="mix-blend-mode:multiply">
<path d="M83.8159 46.3823C81.5051 47.7161 79.6408 50.9447 79.6485 53.599C79.6561 56.2533 81.5318 57.3276 83.8427 55.9938C86.1535 54.66 88.0216 51.4237 88.0139 48.7694C88.0063 46.1151 86.1268 45.0484 83.8159 46.3823Z" fill="#E05959"/>
<path d="M68.0854 55.4692C65.7746 56.803 63.9065 60.0336 63.9141 62.6878C63.9217 65.3421 65.8013 66.4145 68.1121 65.0807C70.4229 63.7469 72.291 60.5106 72.2834 57.8563C72.2758 55.202 70.3962 54.1353 68.0854 55.4692Z" fill="#E05959"/>
<path d="M52.3432 64.5582C50.0324 65.892 48.1643 69.1226 48.1719 71.7769C48.1795 74.4311 50.0591 75.5035 52.3699 74.1697C54.6807 72.8359 56.545 69.6034 56.5374 66.9472C56.5298 64.2929 54.654 63.2225 52.3432 64.5563V64.5582Z" fill="#E05959"/>
</g>
<path d="M15.5859 75.1269C14.4505 74.0278 13.1243 74.0431 12.6225 75.1613C12.1206 76.2795 12.632 78.0751 13.7674 79.1742C14.9028 80.2733 16.229 80.258 16.7308 79.1398C17.2327 78.0216 16.7213 76.226 15.5859 75.1269Z" fill="#C2C2C2"/>
<path d="M0.170539 68.6484C0.18962 68.0797 0.229694 67.3203 0.294572 66.7554C0.336553 66.3795 0.399521 65.8777 0.472033 65.5075C0.586524 64.9255 0.756354 64.1527 0.914733 63.5821C1.27729 62.2731 2.06919 60.3382 3.20456 58.8307C3.64535 58.2468 4.16438 57.6076 4.97726 56.8901C5.83786 56.1307 6.5706 55.7089 7.05719 55.4304C7.06482 55.4265 8.2708 54.7548 9.06842 54.3408C9.4615 54.1366 9.93092 53.8962 10.5492 53.6157C11.1445 53.3466 11.6139 53.1806 11.7895 53.1176C12.1005 53.0089 12.5241 52.8963 12.8409 52.8085C13.4649 52.6349 14.5812 52.5223 14.6441 52.5185C15.1632 52.4917 15.8539 52.4746 16.373 52.4841C16.6802 52.4898 17.0885 52.5204 17.39 52.5662C17.8957 52.6406 18.5674 52.7513 19.0673 52.8562C19.3936 52.9249 19.823 53.0337 20.1378 53.1405C20.6187 53.3027 21.2636 53.505 21.7311 53.7034C22.4086 53.9935 23.2901 54.4305 23.9427 54.7701C23.9542 54.7758 25.1563 55.4227 26.5818 56.4951C27.0092 56.8176 27.5645 57.2698 27.9709 57.619C28.3182 57.9167 28.759 58.3422 29.0968 58.6514C30.8752 60.3821 31.919 61.7942 32.4227 62.4716C32.7147 62.8666 33.0982 63.3989 33.3577 63.8168C33.8787 64.6545 34.5542 65.7804 35.0198 66.6486C35.0484 66.7001 35.7143 67.9461 36.3765 69.6063C36.886 70.879 37.2237 71.9648 37.4165 72.6498C37.529 73.0467 37.8706 74.2546 38.1244 75.7487C38.3438 77.0368 38.3858 77.6474 38.4736 78.8648C38.5117 79.3953 38.506 80.107 38.4984 80.6394C38.4927 81.0363 38.4507 81.563 38.4278 81.9599C38.3954 82.5113 38.2961 83.246 38.1912 83.7879C38.1206 84.1486 38.0347 84.6313 37.9393 84.9863C37.7905 85.5415 37.5634 86.2762 37.3821 86.8219C37.1932 87.3887 36.8707 88.1233 36.5807 88.6462C35.9624 89.7606 35.867 89.9323 35.0656 90.9665C34.9263 91.1459 34.2202 91.9683 33.6516 92.432C33.2038 92.7971 32.8731 93.0534 32.6593 93.201C32.4609 93.3403 32.0888 93.5979 31.356 94.0253C30.837 94.3288 30.2302 94.6531 30.0318 94.76C29.9974 94.7772 29.6864 94.9451 29.1349 95.2294C28.8926 95.3554 28.6521 95.487 28.406 95.6053C28.156 95.7275 27.8183 95.8839 27.5607 95.9927C27.305 96.1015 26.9558 96.235 26.6886 96.3095C26.1849 96.4507 25.5036 96.6148 24.9903 96.7159C24.4236 96.8285 23.647 96.8666 23.0688 96.8819C22.5421 96.8953 21.8361 96.8666 21.3152 96.7903C20.8209 96.7178 20.1626 96.6109 19.6741 96.5098C19.344 96.4411 18.9128 96.3209 18.5903 96.2236C16.808 95.6893 15.0277 94.8363 13.3008 93.6895C12.9153 93.4338 12.0147 92.8346 10.7877 91.7737C9.37945 90.5544 8.41773 89.4667 8.40819 89.4571C7.31289 88.213 7.08581 87.9554 6.29582 86.883C5.22342 85.4251 4.47923 84.1219 4.47159 84.1104C4.22926 83.6753 3.88769 83.1048 3.66825 82.6583C3.23509 81.7748 2.68744 80.5841 2.30199 79.6796C2.29626 79.6662 1.74289 78.342 1.22386 76.5044C0.391889 73.56 0.204886 71.0908 0.18008 70.0165C0.170539 69.6063 0.155273 69.0567 0.170539 68.6465V68.6484ZM13.7645 79.1758C14.8998 80.275 16.226 80.2597 16.7279 79.1415C17.2297 78.0233 16.7183 76.2277 15.583 75.1286C14.4476 74.0295 13.1214 74.0447 12.6196 75.1629C12.1177 76.2811 12.6291 78.0767 13.7645 79.1758Z" fill="#E7F6E2"/>
<path d="M5.39844 56.539C6.07203 56.0009 6.65021 55.6612 7.05284 55.4303C7.06047 55.4265 8.26644 54.7548 9.06406 54.3407C9.16711 54.2873 9.27396 54.232 9.38846 54.1728C10.8597 53.6194 12.5007 53.3599 14.2868 53.4458C23.717 53.9038 33.5614 63.7729 36.2748 75.4873C38.2651 84.0798 35.8665 91.2794 30.7239 94.3268C30.4797 94.4718 30.2373 94.6149 29.9931 94.76C29.8671 94.8344 29.7393 94.9069 29.6133 94.9813C29.4798 95.0519 29.3252 95.1321 29.1306 95.2332C28.8882 95.3591 28.6478 95.4908 28.4016 95.6091C28.1879 95.7121 27.917 95.8381 27.6803 95.9411C32.155 92.6133 34.1453 85.8125 32.2848 77.7809C29.5771 66.0933 19.7556 56.247 10.3464 55.7891C8.53931 55.7013 6.8811 55.9703 5.39844 56.539Z" fill="#A8A8A8"/>
<path d="M7.05874 55.4287C6.65611 55.6596 6.07793 56.0012 5.40625 56.5374C6.07984 56.0012 6.65802 55.6596 7.05874 55.4287Z" fill="#666666"/>
<path d="M7.0625 55.4286C7.0625 55.4286 7.11049 55.4017 7.17192 55.3672C7.10857 55.4017 7.0625 55.4267 7.0625 55.4286Z" fill="#666666"/>
<path d="M8.08594 54.8636C8.41415 54.6842 8.77098 54.4934 9.07056 54.3369C8.77098 54.4915 8.41605 54.6842 8.08594 54.8636Z" fill="#666666"/>
<path d="M27.6875 95.9394C27.9241 95.8363 28.1951 95.7123 28.4088 95.6074C28.655 95.4871 28.8954 95.3574 29.1377 95.2314C28.8954 95.3574 28.655 95.4891 28.4088 95.6074C28.1951 95.7104 27.9241 95.8363 27.6875 95.9394Z" fill="#666666"/>
<path d="M38.4756 78.8649C38.3897 77.6475 38.3458 77.035 38.1264 75.7489C37.8726 74.2548 37.531 73.0469 37.4184 72.65C37.2238 71.963 36.8861 70.8792 36.3785 69.6064C35.7163 67.9482 35.0485 66.7021 35.0218 66.6487C34.5562 65.7805 33.8788 64.6528 33.3597 63.817C33.1002 63.3991 32.7186 62.8667 32.4247 62.4717C31.9229 61.7943 30.8772 60.3822 29.0987 58.6515C28.761 58.3424 28.3202 57.9169 27.9729 57.6192C27.5665 57.27 27.0112 56.8177 26.5837 56.4953C25.1583 55.4228 23.9562 54.776 23.9447 54.7702C23.2902 54.4306 22.4105 53.9936 21.7331 53.7036C21.2675 53.5032 20.6207 53.3009 20.1398 53.1387C19.825 53.0319 19.3937 52.9231 19.0693 52.8544C18.5694 52.7495 17.8977 52.6388 17.392 52.5644C17.0886 52.5205 16.6803 52.4881 16.375 52.4823C15.8559 52.4728 15.1632 52.4881 14.6461 52.5167C14.5813 52.5205 13.4669 52.6331 12.8429 52.8067C12.5261 52.8945 12.1006 53.0071 11.7915 53.1159C11.614 53.1788 11.1446 53.3429 10.5512 53.6139C10.0913 53.8219 9.73064 54.0032 9.40625 54.1692C10.8756 53.6196 12.5128 53.3601 14.2931 53.446C23.7234 53.9039 33.5677 63.7731 36.2812 75.4874C38.2714 84.08 35.8728 91.2796 30.7302 94.327C30.486 94.472 30.2437 94.6151 29.9994 94.7601C29.8735 94.8346 29.7456 94.9071 29.6197 94.9815C29.862 94.8536 30.0109 94.7754 30.0338 94.764C30.2322 94.6571 30.839 94.3327 31.358 94.0293C32.0908 93.6 32.4629 93.3424 32.6613 93.205C32.875 93.0561 33.2052 92.7998 33.6517 92.436C34.2203 91.9723 34.9263 91.1498 35.0656 90.9705C35.8671 89.9362 35.9606 89.7645 36.5807 88.6501C36.8708 88.1273 37.1952 87.3926 37.3822 86.8259C37.5635 86.2802 37.7905 85.5474 37.9394 84.9902C38.0348 84.6353 38.1207 84.1525 38.1913 83.7919C38.2962 83.248 38.3954 82.5153 38.4279 81.9638C38.4508 81.5669 38.4927 81.0403 38.4985 80.6434C38.5061 80.111 38.5118 79.3992 38.4737 78.8688L38.4756 78.8649Z" fill="#525252"/>
<path d="M29.1406 95.2314C29.3372 95.1302 29.4898 95.0501 29.6234 94.9795C29.4898 95.0501 29.3353 95.1302 29.1406 95.2314Z" fill="#666666"/>
<path d="M14.4475 69.0144C9.83921 66.3544 6.09153 68.4897 6.07817 73.7849C6.06291 79.0763 9.78578 85.526 14.3941 88.186C19.0023 90.846 22.7462 88.7088 22.7615 83.4174C22.7767 78.1222 19.0558 71.6763 14.4475 69.0144Z" fill="#A8A8A8"/>
<path d="M14.428 74.72C12.5637 73.6438 11.0448 74.5063 11.0391 76.6511C11.0334 78.7959 12.5408 81.4063 14.4051 82.4825C16.2713 83.5607 17.7902 82.6982 17.796 80.5534C17.8017 78.4086 16.2942 75.7982 14.428 74.7219V74.72Z" fill="#E7F6E2"/>
<mask id="mask0_2851_287284" style="mask-type:luminance" maskUnits="userSpaceOnUse" x="68" y="59" width="38" height="40">
<path d="M85.0898 59.0693C85.4982 59.3918 86.3206 60.0177 87.2766 60.6149C88.3242 61.2713 88.847 61.5232 89.8908 62.027C89.9023 62.0327 91.1903 62.6357 92.6424 63.0383C94.0049 63.4161 94.9532 63.5249 95.52 63.5898C96.0695 63.6528 96.8099 63.6623 97.3652 63.6642C97.6896 63.6642 98.1208 63.6241 98.4433 63.6012C98.4815 63.5993 99.3802 63.5325 100.493 63.2368C101.952 62.8494 103.237 62.2102 104.714 61.3687C104.878 61.2752 105.04 61.1817 105.196 61.0901V98.9542H68.3359V59.0674H85.0898V59.0693Z" fill="white"/>
</mask>
<g mask="url(#mask0_2851_287284)">
<path d="M80.0194 90.7496L79.2656 89.6086C100.887 75.3296 103.257 58.0624 98.2674 46.6648L99.521 46.1152C102.362 52.6031 102.544 60.1423 100.031 67.3419C96.9641 76.131 90.232 84.0061 80.0213 90.7496H80.0194Z" fill="#5C5C5C"/>
<path d="M77.6737 94.6309C80.6404 93.0542 82.3815 90.5267 81.5624 88.9856C80.7434 87.4445 77.6744 87.4735 74.7077 89.0503C71.7409 90.627 69.9999 93.1545 70.819 94.6956C71.638 96.2367 74.707 96.2077 77.6737 94.6309Z" fill="#3B3B3B"/>
<path d="M75.5177 92.2461C74.5312 92.7708 73.5122 92.7804 73.2393 92.2671C72.9664 91.7557 73.5465 90.9142 74.5312 90.3913C75.5158 89.8685 76.5367 89.857 76.8095 90.3703C77.0824 90.8817 76.5023 91.7232 75.5177 92.2461Z" fill="#8C8C8C"/>
</g>
<mask id="mask1_2851_287284" style="mask-type:luminance" maskUnits="userSpaceOnUse" x="5" y="52" width="34" height="44">
<path d="M38.4751 78.8659C38.3893 77.6485 38.3454 77.036 38.1259 75.7498C37.8722 74.2557 37.5306 73.0478 37.418 72.6509C37.2234 71.964 36.8856 70.8801 36.378 69.6074C35.7159 67.9492 35.048 66.7031 35.0213 66.6497C34.5557 65.7815 33.8783 64.6537 33.3593 63.8179C33.0998 63.4 32.7181 62.8677 32.4243 62.4727C31.9224 61.7953 30.8767 60.3832 29.0983 58.6525C28.7606 58.3434 28.3198 57.9178 27.9725 57.6202C27.566 57.271 27.0107 56.8187 26.5833 56.4962C25.1579 55.4238 23.9557 54.7769 23.9443 54.7712C23.2898 54.4316 22.4101 53.9946 21.7327 53.7045C21.2671 53.5042 20.6202 53.3019 20.1394 53.1397C19.8245 53.0329 19.3933 52.9241 19.0689 52.8554C18.5689 52.7505 17.8972 52.6398 17.3916 52.5654C17.0882 52.5215 16.6798 52.489 16.3745 52.4833C15.8555 52.4738 15.1628 52.489 14.6457 52.5177C14.5808 52.5215 13.4664 52.6341 12.8425 52.8077C12.5257 52.8955 12.1002 53.0081 11.791 53.1168C11.6136 53.1798 11.1442 53.3439 10.5507 53.6149C10.0909 53.8229 9.73211 54.0022 9.40772 54.1682C9.4039 54.1682 9.40009 54.1701 9.39627 54.1721C9.28178 54.2312 9.17301 54.2865 9.07188 54.34C8.27617 54.7541 7.06828 55.4257 7.06065 55.4296C6.65802 55.6604 6.07984 56.002 5.40625 56.5382C6.89082 55.9696 8.54713 55.7005 10.3542 55.7883C19.7635 56.2463 29.5868 66.0925 32.2926 77.7801C34.1531 85.8117 32.1629 92.6125 27.6882 95.9404C27.9248 95.8373 28.1957 95.7133 28.4095 95.6083C28.6556 95.4881 28.896 95.3584 29.1384 95.2324C29.3349 95.1313 29.4876 95.0511 29.6212 94.9805C29.8635 94.8527 30.0123 94.7745 30.0352 94.763C30.2337 94.6562 30.8405 94.3318 31.3595 94.0284C32.0923 93.599 32.4643 93.3414 32.6628 93.204C32.8765 93.0552 33.2066 92.7989 33.6532 92.435C34.2218 91.9713 34.9278 91.1489 35.0671 90.9695C35.8686 89.9353 35.9621 89.7636 36.5822 88.6492C36.8723 88.1263 37.1967 87.3917 37.3837 86.825C37.5649 86.2792 37.792 85.5465 37.9408 84.9893C38.0363 84.6344 38.1221 84.1516 38.1927 83.7909C38.2977 83.2471 38.3969 82.5144 38.4293 81.9629C38.4522 81.566 38.4942 81.0393 38.4999 80.6424C38.5076 80.11 38.5133 79.3983 38.4751 78.8678V78.8659Z" fill="white"/>
</mask>
<g mask="url(#mask1_2851_287284)">
<g style="mix-blend-mode:multiply">
<path d="M27.3752 51.4853L20.1641 54.0332L21.4507 57.6747L28.6619 55.1268L27.3752 51.4853Z" fill="#CCCCCC"/>
</g>
</g>
<path d="M40.6211 17.998C49.7479 9.53712 61.2066 4.48615 71.2742 4.48615C71.5929 4.48615 71.9153 4.49187 72.2302 4.50141C80.5938 4.76665 86.429 8.43228 89.1234 15.1014C91.4075 16.3455 93.3977 18.1049 95.0311 20.3394L94.8976 19.4349C93.1306 7.49345 84.9215 0.415984 72.3733 0.017173C72.0165 0.00572386 71.6539 0 71.2933 0C60.1132 0 47.5058 5.49749 37.5718 14.7083C25.7582 25.6613 18.7399 40.7894 17.8125 57.3086V57.3563L17.8182 57.404C17.8278 57.4479 18.0453 58.4783 19.4841 58.4783C19.6119 58.4783 19.7474 58.4707 19.8867 58.4535C22.1689 58.1787 22.3521 56.6064 22.3654 56.427C23.476 41.5298 29.96 27.8824 40.6211 17.9999V17.998Z" fill="#5C5C5C"/>
<g style="mix-blend-mode:screen">
<path d="M24.2031 35.3915C24.2031 35.3915 24.3214 35.111 24.5447 34.5824C24.7641 34.0538 25.1038 33.2848 25.5637 32.3193C25.8022 31.8403 26.0503 31.3022 26.3556 30.7336C26.5044 30.4474 26.6609 30.1497 26.8231 29.8425C26.9929 29.5391 27.1684 29.2223 27.3516 28.8979C28.0882 27.6003 28.9621 26.1578 30.0059 24.6427C31.0497 23.1276 32.248 21.5323 33.62 19.9275C34.992 18.3208 36.5033 16.6951 38.2073 15.1189C39.0622 14.3556 39.9037 13.5618 40.8368 12.8138C41.0658 12.623 41.2967 12.4341 41.5257 12.2413C41.6421 12.1459 41.7546 12.0486 41.8729 11.9551L42.2298 11.6822C42.7087 11.3197 43.1896 10.9571 43.6724 10.5927C45.6397 9.18252 47.712 7.84869 49.8663 6.65608C52.0359 5.49017 54.2743 4.45785 56.5393 3.59153C57.1098 3.38735 57.6785 3.18508 58.2452 2.98472C58.5257 2.87977 58.8176 2.80345 59.102 2.71376C59.3882 2.62789 59.6744 2.54202 59.9587 2.45806C60.245 2.37601 60.5255 2.2806 60.8117 2.21C61.0979 2.1394 61.3842 2.06879 61.6685 1.99819C62.239 1.86271 62.8 1.70433 63.3706 1.60701C65.628 1.11088 67.8644 0.895258 69.9805 0.826564C70.2458 0.820839 70.5091 0.817024 70.7705 0.811299C70.9003 0.809391 71.032 0.805575 71.1598 0.803666H71.2571L71.3106 0.801758H71.3583L71.5491 0.807482C71.8029 0.815115 72.0567 0.82084 72.3066 0.828472C72.5604 0.843738 72.8123 0.859003 73.0623 0.874268C73.5527 0.897167 74.0469 0.962045 74.5258 1.00403C74.7644 1.03646 75.001 1.067 75.2338 1.09753C75.4685 1.12806 75.6994 1.15859 75.9265 1.20248C77.7507 1.50015 79.3936 1.9524 80.7885 2.50195C82.1891 3.04006 83.3455 3.66022 84.2538 4.22886C84.479 4.37579 84.6984 4.50364 84.8911 4.64294C85.0858 4.78224 85.267 4.91199 85.4369 5.03221C85.7689 5.28409 86.0437 5.50544 86.2669 5.68481C86.6982 6.06072 86.9291 6.26108 86.9291 6.26108C86.9291 6.26108 86.6867 6.07408 86.2345 5.72488C86.0017 5.56078 85.7136 5.35469 85.3701 5.12571C85.019 4.90627 84.6221 4.64676 84.1546 4.39106C83.2272 3.87203 82.0575 3.32056 80.6607 2.84352C79.2658 2.36075 77.6381 1.98293 75.8425 1.74249C75.6192 1.70815 75.3903 1.68334 75.1613 1.66235C74.9304 1.63945 74.6995 1.61655 74.4648 1.59175C73.9935 1.56503 73.5241 1.51733 73.0279 1.5097C72.7856 1.50206 72.5394 1.49443 72.2933 1.48489C72.0433 1.48489 71.7895 1.48298 71.5357 1.48107H71.3449H71.2972H71.2552L71.1598 1.4868C71.032 1.49252 70.906 1.49825 70.7782 1.50206C70.5225 1.51351 70.2649 1.52305 70.0054 1.5345C69.7458 1.54595 69.4844 1.5574 69.223 1.56885C68.9616 1.59556 68.6982 1.62228 68.433 1.64899C68.1678 1.67571 67.9006 1.70242 67.6335 1.72914C67.4999 1.74249 67.3644 1.75585 67.2308 1.76921C67.0973 1.78638 66.9618 1.81119 66.8282 1.83027C66.2901 1.91423 65.7444 1.99819 65.1948 2.08406C64.6491 2.18901 64.0995 2.30923 63.5442 2.42181C61.3345 2.91794 59.0867 3.59725 56.8637 4.44449C54.6444 5.30699 52.4481 6.33169 50.3205 7.48614C48.1967 8.65013 46.153 9.95343 44.2086 11.333C42.2756 12.7413 40.4685 14.1972 38.7588 15.7371C37.0872 17.2542 35.5358 18.8303 34.1505 20.3855C32.7652 21.9445 31.5287 23.4844 30.4467 24.9499C29.3705 26.4211 28.445 27.816 27.6608 29.0735C27.4661 29.3902 27.2791 29.6955 27.0978 29.9913C26.9242 30.2909 26.7563 30.579 26.5941 30.8576C26.264 31.4091 25.9911 31.9319 25.7297 32.3975C25.2297 33.3383 24.8366 34.0805 24.5905 34.5977C24.3367 35.111 24.2031 35.3838 24.2031 35.3838V35.3915Z" fill="#5C5C5C"/>
</g>
<path d="M5.40625 56.5399C6.07984 56.0018 6.65802 55.6622 7.06065 55.4313C7.06828 55.4275 8.27425 54.7558 9.07188 54.3417C9.17492 54.2883 9.28178 54.2329 9.39627 54.1738C10.8675 53.6204 12.5085 53.3609 14.2946 53.4468C23.7248 53.9047 33.5692 63.7739 36.2826 75.4882C38.2729 84.0808 35.8743 91.2804 30.7317 94.3278C30.4875 94.4728 30.2451 94.6159 30.0009 94.7609C29.8749 94.8354 29.7471 94.9079 29.6211 94.9823C29.4876 95.0529 29.333 95.133 29.1384 95.2342C28.896 95.3601 28.6556 95.4918 28.4095 95.6101C28.1957 95.7131 27.9248 95.8391 27.6882 95.9421C32.1629 92.6142 34.1531 85.8135 32.2926 77.7819C29.5849 66.0942 19.7635 56.248 10.3542 55.79C8.54713 55.7023 6.88891 55.9713 5.40625 56.5399Z" fill="#A8A8A8"/>
<path d="M38.4756 78.8649C38.3897 77.6475 38.3458 77.035 38.1264 75.7489C37.8726 74.2548 37.531 73.0469 37.4184 72.65C37.2238 71.963 36.8861 70.8792 36.3785 69.6064C35.7163 67.9482 35.0485 66.7021 35.0218 66.6487C34.5562 65.7805 33.8788 64.6528 33.3597 63.817C33.1002 63.3991 32.7186 62.8667 32.4247 62.4717C31.9229 61.7943 30.8772 60.3822 29.0987 58.6515C28.761 58.3424 28.3202 57.9169 27.9729 57.6192C27.5665 57.27 27.0112 56.8177 26.5837 56.4952C25.1583 55.4228 23.9562 54.776 23.9447 54.7702C23.2902 54.4306 22.4105 53.9936 21.7331 53.7036C21.2675 53.5032 20.6207 53.3009 20.1398 53.1387C19.825 53.0319 19.3937 52.9231 19.0693 52.8544C18.5694 52.7495 17.8977 52.6388 17.392 52.5644C17.0886 52.5205 16.6803 52.4881 16.375 52.4823C15.8559 52.4728 15.1632 52.4881 14.6461 52.5167C14.5813 52.5205 13.4669 52.6331 12.8429 52.8067C12.5261 52.8945 12.1006 53.0071 11.7915 53.1159C11.614 53.1788 11.1446 53.3429 10.5512 53.6139C10.0913 53.8219 9.73064 54.0032 9.40625 54.1692C10.8756 53.6196 12.5128 53.3601 14.2931 53.446C23.7234 53.9039 33.5677 63.7731 36.2812 75.4874C38.2714 84.08 35.8728 91.2796 30.7302 94.327C30.486 94.472 30.2437 94.6151 29.9994 94.7601C29.8735 94.8346 29.7456 94.9071 29.6197 94.9815C29.862 94.8536 30.0109 94.7754 30.0338 94.7639C30.2322 94.6571 30.839 94.3327 31.358 94.0293C32.0908 93.6 32.4629 93.3424 32.6613 93.205C32.875 93.0561 33.2052 92.7998 33.6517 92.436C34.2203 91.9723 34.9263 91.1498 35.0656 90.9705C35.8671 89.9362 35.9606 89.7645 36.5807 88.6501C36.8708 88.1273 37.1952 87.3926 37.3822 86.8259C37.5635 86.2802 37.7905 85.5474 37.9394 84.9902C38.0348 84.6353 38.1207 84.1525 38.1913 83.7919C38.2962 83.248 38.3954 82.5153 38.4279 81.9638C38.4508 81.5669 38.4927 81.0403 38.4985 80.6434C38.5061 80.111 38.5118 79.3992 38.4737 78.8687L38.4756 78.8649Z" fill="#E7F6E2"/>
</svg>
