<svg width="21" height="21" viewBox="0 0 21 21" fill="none" xmlns="http://www.w3.org/2000/svg">
<path d="M11.2547 0.15625C16.3291 0.15625 20.4809 4.30806 20.4809 9.38249V10.824C20.4809 15.8984 16.3291 20.0502 11.2547 20.0502H9.81315C4.73872 20.0502 0.586914 15.8984 0.586914 10.824V9.38249C0.586914 4.30806 4.73872 0.15625 9.81315 0.15625H11.2547ZM10.7153 5.15641L10.5869 5.15625C9.51802 5.15625 8.44912 5.19158 8.44912 5.19158C6.88788 5.19158 5.62224 6.45722 5.62224 8.01845C5.62224 8.01845 5.5898 8.93628 5.58709 9.92144L5.58691 10.0502C5.58691 11.1533 5.62224 12.2941 5.62224 12.2941C5.62224 13.8553 6.88788 15.1209 8.44912 15.1209C8.44912 15.1209 9.4485 15.1562 10.4809 15.1562C11.584 15.1562 12.7601 15.1209 12.7601 15.1209C14.3213 15.1209 15.5516 13.8906 15.5516 12.3294C15.5516 12.3294 15.5869 11.2015 15.5869 10.1209L15.5863 9.86735C15.5815 8.89787 15.5516 7.98309 15.5516 7.98309C15.5516 6.42186 14.3213 5.19158 12.76 5.19158C12.76 5.19158 11.7424 5.15902 10.7153 5.15641ZM10.5869 6.05623C11.4634 6.05623 12.5873 6.08521 12.5873 6.08521C13.8675 6.08521 14.6579 6.87565 14.6579 8.15587C14.6579 8.15587 14.6869 9.26051 14.6869 10.1272C14.6869 11.0133 14.6579 12.1566 14.6579 12.1566C14.6579 13.4368 13.8675 14.2272 12.5873 14.2272C12.5873 14.2272 11.5934 14.2516 10.7311 14.2556L10.5 14.2562C9.65341 14.2562 8.62189 14.2272 8.62189 14.2272C7.34169 14.2272 6.5159 13.4014 6.5159 12.1212C6.5159 12.1212 6.48691 10.9738 6.48691 10.0693C6.48691 9.22272 6.5159 8.15587 6.5159 8.15587C6.5159 6.87565 7.34172 6.08521 8.62189 6.08521C8.62189 6.08521 9.71039 6.05623 10.5869 6.05623ZM10.5869 7.59495C9.17233 7.59495 8.02561 8.74166 8.02561 10.1562C8.02561 11.5708 9.17233 12.7175 10.5869 12.7175C12.0015 12.7175 13.1482 11.5708 13.1482 10.1562C13.1482 8.74166 12.0015 7.59495 10.5869 7.59495ZM10.5869 8.48955C11.5074 8.48955 12.2536 9.23573 12.2536 10.1562C12.2536 11.0767 11.5074 11.8229 10.5869 11.8229C9.66643 11.8229 8.92022 11.0767 8.92022 10.1562C8.92022 9.23573 9.66641 8.48955 10.5869 8.48955ZM13.2707 6.88418C12.9289 6.88418 12.6518 7.16263 12.6518 7.50611C12.6518 7.84959 12.9289 8.12803 13.2707 8.12803C13.6125 8.12803 13.8896 7.84959 13.8896 7.50611C13.8896 7.16261 13.6125 6.88418 13.2707 6.88418Z" fill="#1F1F1F"/>
</svg>
