<svg width="572" height="459" viewBox="0 0 572 459" fill="none" xmlns="http://www.w3.org/2000/svg">
<path d="M250 0.0996094L200 1.09961L250 4.59961V0.0996094Z" fill="#5A352B"/>
<path d="M251 458.1L197 457.6L247 454.1L251 458.1Z" fill="#5A352B"/>
<path d="M322.5 15.0996L363 12.0996L357 433.1L341 426.1L322.5 15.0996Z" fill="#CEA798"/>
<path d="M452 12.5996H363.5L357.5 432.6L443.5 414.6L452 12.5996Z" fill="white" stroke="white"/>
<path d="M407 229.6C407 355.797 315.89 458.1 203.5 458.1C91.1101 458.1 0 355.797 0 229.6C0 103.403 91.1101 1.09961 203.5 1.09961C315.89 1.09961 407 103.403 407 229.6Z" fill="#5A352B"/>
<ellipse cx="254" cy="226.6" rx="203" ry="226.5" fill="#A77263"/>
<path fill-rule="evenodd" clip-rule="evenodd" d="M7.50781 168.1C8.79656 163.026 10.2434 158.024 11.8423 153.1H62.6445C61.0694 158.024 59.6461 163.027 58.3806 168.1H7.50781Z" fill="#834E3F"/>
<path fill-rule="evenodd" clip-rule="evenodd" d="M55.0668 382.1C26.253 348.084 6.89033 304.438 1.51562 256.1H52.7534C58.3372 304.514 77.9595 348.175 107.043 382.1H55.0668Z" fill="#834E3F"/>
<path fill-rule="evenodd" clip-rule="evenodd" d="M69.0234 60.0996C84.8355 44.6278 102.837 31.7552 122.461 22.0996H171.581C152.316 31.849 134.651 44.7139 119.133 60.0996H69.0234Z" fill="#834E3F"/>
<path fill-rule="evenodd" clip-rule="evenodd" d="M379.327 47.7029C345.893 20.893 304.854 5.09961 260.5 5.09961C148.11 5.09961 57 106.507 57 231.6C57 304.33 87.7993 369.055 135.673 410.496C84.388 369.372 51 302.325 51 226.6C51 101.507 142.11 0.0996094 254.5 0.0996094C301.545 0.0996094 344.861 17.8675 379.327 47.7029Z" fill="#D6AB9F"/>
<ellipse cx="257.5" cy="229.1" rx="199.5" ry="229" fill="#C08474"/>
<path fill-rule="evenodd" clip-rule="evenodd" d="M270.376 245.308C280.252 238.913 287.088 225.104 287.088 209.1C287.088 187.008 274.064 169.1 257.997 169.1C241.931 169.1 228.906 187.008 228.906 209.1C228.906 229.973 240.534 247.112 255.369 248.939L243.997 293.6L286.997 289.1L270.376 245.308Z" fill="#232323"/>
<path d="M457 228.6L279.996 216.715V253.33H265.368V262.484H255.616L261.711 228.6L250.525 218.6L245.398 205.1L248.661 192.1L252.856 188.1L453.738 168.1L457 228.6Z" fill="#FFA800"/>
<path d="M279.551 254.638L264.511 254.443V264.905L257.519 261.599L263.112 265.099L255.171 263.792C255.577 260.23 257.609 247.92 262.485 227.176C239.081 214.622 245.419 195.792 251.514 187.946L352.69 180.099M279.551 218.022L352.69 220.638" stroke="#FFA800" stroke-width="2.61538"/>
<path d="M253.32 264.407L260.633 229.099L258.196 265.715L253.32 264.407Z" fill="#BD5252"/>
<path d="M261.084 228.099C249.898 218.473 251.714 194.881 254.558 186.599L249.898 186.099C236.245 205.976 248.965 222.599 261.084 228.099Z" fill="#232323" fill-opacity="0.56"/>
<path d="M448.607 210.599L254.25 205.099C254.25 209.099 257.426 213.433 259.014 215.099L449.539 228.099L448.607 210.599Z" fill="#EF6352"/>
<path d="M268.703 255.099L267.359 216.715L279.889 218.599V255.599L268.703 255.099Z" fill="#BB5253"/>
<path fill-rule="evenodd" clip-rule="evenodd" d="M521.015 272.98C549.172 270.518 568.798 231.939 564.852 186.811C560.906 141.683 534.881 107.095 506.725 109.558C506.489 109.578 506.255 109.601 506.021 109.627L506.026 109.619L483.677 111.573L492.294 114.31C472.206 126.275 459.659 158.81 462.887 195.727C466.116 232.645 484.119 262.508 505.979 270.805L497.968 274.996L520.316 273.042L520.31 273.034C520.544 273.019 520.78 273.001 521.015 272.98Z" fill="#BB5253"/>
<ellipse cx="490.127" cy="193.346" rx="51.1769" ry="82.0232" transform="rotate(-4.99743 490.127 193.346)" fill="#FFA800"/>
<mask id="mask0_1809_162471" style="mask-type:alpha" maskUnits="userSpaceOnUse" x="438" y="111" width="104" height="165">
<ellipse cx="490.127" cy="193.346" rx="51.1769" ry="82.0232" transform="rotate(-4.99743 490.127 193.346)" fill="#FFA800"/>
</mask>
<g mask="url(#mask0_1809_162471)">
<path d="M521.805 133.193L457.789 252.014C461.991 260.991 472.527 267.673 477.132 270.436C493.447 239.637 526.341 179.094 536.082 162.668C535.127 156.747 526.262 139.162 521.805 133.193Z" fill="#F7C562"/>
<path d="M539.306 175.103L484.04 273.66C485.377 274.424 486.025 274.438 486.343 274.12L540.227 180.629L539.306 175.103Z" fill="#F7C562"/>
<path d="M542.862 189.044L492.485 277.144C495.828 277.701 504.661 277.43 513.256 271.891C521.852 266.352 529.412 254.303 532.118 248.971C533.63 246.106 537.418 237.176 540.474 224.379C543.53 211.582 543.339 195.49 542.862 189.044Z" fill="#F7C562"/>
</g>
<ellipse cx="510.289" cy="191.683" rx="9.21092" ry="13.8164" fill="#232323"/>
</svg>
