<svg width="147" height="73" viewBox="0 0 147 73" fill="none" xmlns="http://www.w3.org/2000/svg">
<rect x="0.34375" y="0.209717" width="145.67" height="72" rx="8" fill="white" fill-opacity="0.05"/>
<path d="M68.9668 16.2723H59.0469V40.982H70.0947C70.0947 40.982 83.6379 40.8039 83.6379 28.6282C83.6379 15.6786 68.9668 16.2723 68.9668 16.2723ZM69.6792 33.9136H67.364V23.5188C69.4417 23.5188 75.1448 23.2813 75.1448 28.7172C75.1448 34.151 69.6792 33.9136 69.6792 33.9136Z" fill="white"/>
<path d="M23.1808 16.2708H20.5625V48.4623H23.1808V16.2708Z" fill="white"/>
<path d="M29.1797 16.2708V40.9805H37.6134V29.6952L47.1157 40.9805H54.4809V16.2708H46.1659V27.3186L37.1385 16.2708H29.1797Z" fill="white"/>
<path d="M95.9962 16.2666H87.5625V40.9806H95.9962V16.2666Z" fill="white"/>
<path d="M117.672 26.3092L124.503 22.2704C124.503 22.2704 121.711 15.3208 112.09 15.9144C102.467 16.508 99.9398 25.1623 99.9143 28.6223C99.8931 31.4166 101.172 40.9761 112.198 41.3937C121.592 41.7499 124.859 34.902 124.859 34.902L117.85 30.9989C117.85 30.9989 116.663 34.3847 112.862 34.266C109.06 34.1472 108.17 29.7883 108.348 28.6413C108.526 27.4944 108.761 23.2033 113.277 23.2775C116.901 23.339 117.672 26.3092 117.672 26.3092Z" fill="white"/>
<path d="M28.8984 48.4973V44.3938H29.4767L30.7917 46.4691C31.0958 46.951 31.3336 47.3815 31.5284 47.8034L31.5413 47.797C31.492 47.2487 31.4813 46.7497 31.4813 46.1114V44.3938H31.9803V48.4973H31.4449L30.1428 46.4156C29.8558 45.9594 29.5816 45.4903 29.376 45.0449L29.3568 45.0513C29.3867 45.5696 29.3996 46.0622 29.3996 46.7432V48.4973H28.8984Z" fill="#DFE9F4"/>
<path d="M33.5467 44.7235C33.5532 44.9056 33.4182 45.0533 33.2062 45.0533C33.0177 45.0533 32.8828 44.9077 32.8828 44.7235C32.8828 44.535 33.022 44.3894 33.2169 44.3894C33.4204 44.3894 33.5467 44.535 33.5467 44.7235ZM32.9513 48.4993V45.5524H33.4868V48.4993H32.9513Z" fill="#DFE9F4"/>
<path d="M36.9083 45.5502C36.8955 45.7644 36.8848 46 36.8848 46.3598V48.071C36.8848 48.7478 36.752 49.1611 36.465 49.416C36.178 49.6837 35.7647 49.7694 35.3942 49.7694C35.0408 49.7694 34.651 49.6837 34.4133 49.5252L34.546 49.1183C34.7409 49.2404 35.0451 49.3496 35.4113 49.3496C35.9596 49.3496 36.3622 49.0626 36.3622 48.3216V47.9918H36.3494C36.1844 48.2659 35.8675 48.4844 35.4113 48.4844C34.681 48.4844 34.1562 47.8633 34.1562 47.0473C34.1562 46.0492 34.8073 45.4817 35.4841 45.4817C35.996 45.4817 36.2765 45.7494 36.4029 45.9936H36.4157L36.4393 45.5481H36.9083V45.5502ZM36.3558 46.7132C36.3558 46.6211 36.3494 46.5418 36.3258 46.469C36.2294 46.1585 35.966 45.9036 35.5762 45.9036C35.0643 45.9036 34.7002 46.3362 34.7002 47.0173C34.7002 47.5956 34.9915 48.0774 35.5698 48.0774C35.8996 48.0774 36.1973 47.8697 36.3129 47.5292C36.3429 47.4371 36.3558 47.3343 36.3558 47.2422V46.7132Z" fill="#DFE9F4"/>
<path d="M38.0744 47.1223C38.0872 47.8462 38.5498 48.146 39.0853 48.146C39.4686 48.146 39.6999 48.0796 39.9012 47.994L39.9933 48.3773C39.8049 48.463 39.4815 48.5594 39.0124 48.5594C38.1044 48.5594 37.5625 47.9618 37.5625 47.073C37.5625 46.1842 38.0851 45.4839 38.9439 45.4839C39.9055 45.4839 40.1625 46.3299 40.1625 46.8717C40.1625 46.9809 40.1497 47.0666 40.1433 47.1223H38.0744ZM39.6442 46.7368C39.6507 46.3962 39.505 45.8672 38.9011 45.8672C38.3592 45.8672 38.1215 46.3663 38.0787 46.7368H39.6442Z" fill="#DFE9F4"/>
<path d="M40.8282 46.4691C40.8282 46.1221 40.8218 45.8244 40.8047 45.5503H41.2737L41.293 46.1285H41.3166C41.4515 45.7323 41.7727 45.4839 42.1325 45.4839C42.1925 45.4839 42.2353 45.4903 42.2846 45.501V46.0065C42.2289 45.9936 42.1754 45.9893 42.1026 45.9893C41.7256 45.9893 41.4579 46.2763 41.3851 46.6768C41.3722 46.7496 41.3615 46.8353 41.3615 46.9274V48.4973H40.8325V46.4691H40.8282Z" fill="#DFE9F4"/>
<path d="M43.4374 44.7235C43.4438 44.9056 43.3089 45.0533 43.0968 45.0533C42.9084 45.0533 42.7734 44.9077 42.7734 44.7235C42.7734 44.535 42.9126 44.3894 43.1075 44.3894C43.3089 44.3894 43.4374 44.535 43.4374 44.7235ZM42.8398 48.4993V45.5524H43.3753V48.4993H42.8398Z" fill="#DFE9F4"/>
<path d="M45.8967 48.4973L45.8538 48.1268H45.8346C45.6697 48.3581 45.3527 48.5659 44.9329 48.5659C44.3354 48.5659 44.0312 48.1461 44.0312 47.7199C44.0312 47.0067 44.6652 46.6169 45.8024 46.6233V46.5634C45.8024 46.3192 45.736 45.8823 45.1321 45.8823C44.8579 45.8823 44.571 45.968 44.3654 46.1008L44.2433 45.7474C44.4874 45.5889 44.8408 45.4861 45.2113 45.4861C46.113 45.4861 46.3314 46.1008 46.3314 46.6919V47.7927C46.3314 48.0476 46.3443 48.2981 46.3807 48.4995H45.8967V48.4973ZM45.8174 46.9938C45.2327 46.981 44.5688 47.0859 44.5688 47.6578C44.5688 48.0047 44.8001 48.1696 45.0743 48.1696C45.4576 48.1696 45.7018 47.9255 45.7874 47.677C45.8046 47.6214 45.8174 47.5614 45.8174 47.5057V46.9938Z" fill="#DFE9F4"/>
<path d="M48.5156 44.4511C48.839 44.4019 49.2224 44.3655 49.6422 44.3655C50.4025 44.3655 50.9443 44.5411 51.3041 44.8773C51.6704 45.2115 51.8824 45.6869 51.8824 46.3508C51.8824 47.0212 51.6746 47.5695 51.2913 47.9464C50.9079 48.3298 50.274 48.5375 49.4772 48.5375C49.1003 48.5375 48.7833 48.5182 48.5156 48.4883V44.4511ZM49.0468 48.0792C49.1796 48.1027 49.3744 48.1092 49.5822 48.1092C50.7152 48.1092 51.3298 47.4752 51.3298 46.368C51.3362 45.3999 50.788 44.7853 49.6679 44.7853C49.3937 44.7853 49.186 44.8088 49.0468 44.8409V48.0792Z" fill="#DFE9F4"/>
<path d="M52.8712 47.1223C52.8841 47.8462 53.3467 48.146 53.8821 48.146C54.2655 48.146 54.4968 48.0796 54.6981 47.994L54.7902 48.3773C54.6017 48.463 54.2783 48.5594 53.8093 48.5594C52.9012 48.5594 52.3594 47.9618 52.3594 47.073C52.3594 46.1842 52.8819 45.4839 53.7408 45.4839C54.7024 45.4839 54.9594 46.3299 54.9594 46.8717C54.9594 46.9809 54.9465 47.0666 54.9401 47.1223H52.8712ZM54.4433 46.7368C54.4497 46.3962 54.304 45.8672 53.7001 45.8672C53.1582 45.8672 52.9205 46.3663 52.8777 46.7368H54.4433Z" fill="#DFE9F4"/>
<path d="M55.6251 46.5119C55.6251 46.135 55.6123 45.8308 55.6016 45.5503H56.0834L56.107 46.0557H56.1199C56.3383 45.6959 56.6853 45.4839 57.1671 45.4839C57.8803 45.4839 58.4158 46.0857 58.4158 46.9809C58.4158 48.0411 57.7711 48.5636 57.0772 48.5636C56.6874 48.5636 56.3469 48.3923 56.1691 48.101H56.1563V49.703H55.6273V46.5119H55.6251ZM56.1563 47.2979C56.1563 47.3772 56.1691 47.45 56.1798 47.5164C56.2762 47.8869 56.5996 48.1439 56.983 48.1439C57.5484 48.1439 57.8782 47.6813 57.8782 47.0045C57.8782 46.4134 57.5676 45.9079 57.0022 45.9079C56.636 45.9079 56.2955 46.1692 56.1927 46.5719C56.1755 46.6383 56.1563 46.7175 56.1563 46.7903V47.2979Z" fill="#DFE9F4"/>
<path d="M61.7556 47.0002C61.7556 48.0903 61.0017 48.5658 60.2885 48.5658C59.4918 48.5658 58.875 47.9811 58.875 47.0495C58.875 46.0621 59.5197 45.4839 60.3356 45.4839C61.1838 45.4839 61.7556 46.0986 61.7556 47.0002ZM59.419 47.0302C59.419 47.6748 59.7895 48.1632 60.3142 48.1632C60.8261 48.1632 61.2095 47.6813 61.2095 47.0195C61.2095 46.5205 60.9589 45.8865 60.3271 45.8865C59.6931 45.8844 59.419 46.4691 59.419 47.0302Z" fill="#DFE9F4"/>
<path d="M62.3615 47.949C62.52 48.0518 62.8005 48.1632 63.0683 48.1632C63.458 48.1632 63.6401 47.9683 63.6401 47.7241C63.6401 47.4692 63.488 47.3279 63.0918 47.1823C62.5628 46.9938 62.3122 46.7004 62.3122 46.3491C62.3122 45.8737 62.6956 45.4839 63.3295 45.4839C63.6272 45.4839 63.8907 45.5695 64.0534 45.6659L63.9185 46.0557C63.8029 45.9829 63.5908 45.8844 63.3167 45.8844C62.9997 45.8844 62.8241 46.0664 62.8241 46.287C62.8241 46.5312 62.9997 46.6404 63.3852 46.786C63.8971 46.9809 64.1584 47.2358 64.1584 47.6748C64.1584 48.1931 63.7557 48.5572 63.0554 48.5572C62.732 48.5572 62.4343 48.478 62.2266 48.3559L62.3615 47.949Z" fill="#DFE9F4"/>
<path d="M65.4452 44.7235C65.4516 44.9056 65.3167 45.0533 65.1046 45.0533C64.9162 45.0533 64.7812 44.9077 64.7812 44.7235C64.7812 44.535 64.9205 44.3894 65.1154 44.3894C65.3167 44.3894 65.4452 44.535 65.4452 44.7235ZM64.8476 48.4993V45.5524H65.3831V48.4993H64.8476Z" fill="#DFE9F4"/>
<path d="M66.9184 44.7056V45.5515H67.6851V45.9585H66.9184V47.5476C66.9184 47.9138 67.0212 48.1194 67.321 48.1194C67.4602 48.1194 67.5652 48.1023 67.6316 48.083L67.6551 48.4857C67.5523 48.5285 67.3874 48.5585 67.1797 48.5585C66.9291 48.5585 66.7299 48.4792 66.6014 48.3336C66.4494 48.1751 66.3937 47.9138 66.3937 47.5669V45.9606H65.9375V45.5537H66.3937V44.8469L66.9184 44.7056Z" fill="#DFE9F4"/>
<path d="M70.1228 44.3938V48.4973H69.5938V44.3938H70.1228Z" fill="#DFE9F4"/>
<path d="M71.0939 46.3469C71.0939 46.0428 71.0874 45.7922 71.0703 45.5502H71.5458L71.5758 46.0364H71.5886C71.7342 45.7558 72.0748 45.4817 72.5631 45.4817C72.97 45.4817 73.6039 45.7258 73.6039 46.7367V48.4972H73.0685V46.7988C73.0685 46.3234 72.8929 45.9293 72.3875 45.9293C72.0341 45.9293 71.7599 46.1799 71.67 46.4776C71.6464 46.544 71.6336 46.6361 71.6336 46.7282V48.4993H71.0982V46.3469H71.0939Z" fill="#DFE9F4"/>
<path d="M74.3984 47.949C74.5569 48.0518 74.8375 48.1632 75.1052 48.1632C75.495 48.1632 75.677 47.9683 75.677 47.7241C75.677 47.4692 75.5249 47.3279 75.1287 47.1823C74.5997 46.9938 74.3492 46.7004 74.3492 46.3491C74.3492 45.8737 74.7325 45.4839 75.3665 45.4839C75.6642 45.4839 75.9276 45.5695 76.0904 45.6659L75.9576 46.0557C75.8419 45.9829 75.6277 45.8844 75.3558 45.8844C75.0388 45.8844 74.8632 46.0664 74.8632 46.287C74.8632 46.5312 75.0388 46.6404 75.4243 46.786C75.9362 46.9809 76.1974 47.2358 76.1974 47.6748C76.1974 48.1931 75.7948 48.5572 75.0945 48.5572C74.7711 48.5572 74.4734 48.478 74.2656 48.3559L74.3984 47.949Z" fill="#DFE9F4"/>
<path d="M79.3537 47.6954C79.3537 47.9995 79.3601 48.2672 79.3773 48.4985H78.9018L78.8718 48.0166H78.859C78.7198 48.2543 78.4092 48.5649 77.8845 48.5649C77.4219 48.5649 76.8672 48.31 76.8672 47.2734V45.5515H77.4026V47.1835C77.4026 47.7446 77.574 48.1216 78.0601 48.1216C78.4199 48.1216 78.6684 47.871 78.7669 47.6354C78.7969 47.5561 78.8161 47.4598 78.8161 47.3612V45.5537H79.3516V47.6954H79.3537Z" fill="#DFE9F4"/>
<path d="M80.2423 46.4691C80.2423 46.1221 80.2359 45.8244 80.2188 45.5503H80.6878L80.7049 46.1285H80.7285C80.8613 45.7323 81.1847 45.4839 81.5445 45.4839C81.6044 45.4839 81.6473 45.4903 81.6965 45.501V46.0065C81.6408 45.9936 81.5873 45.9893 81.5145 45.9893C81.1375 45.9893 80.8698 46.2763 80.797 46.6768C80.7842 46.7496 80.7735 46.8353 80.7735 46.9274V48.4973H80.2445V46.4691H80.2423Z" fill="#DFE9F4"/>
<path d="M83.8342 48.4973L83.7913 48.1268H83.7721C83.6071 48.3581 83.2902 48.5659 82.8704 48.5659C82.2729 48.5659 81.9688 48.1461 81.9688 47.7199C81.9688 47.0067 82.6027 46.6169 83.7399 46.6233V46.5634C83.7399 46.3192 83.6735 45.8823 83.0696 45.8823C82.7954 45.8823 82.5085 45.968 82.3029 46.1008L82.1808 45.7474C82.4249 45.5889 82.7783 45.4861 83.1488 45.4861C84.0505 45.4861 84.2689 46.1008 84.2689 46.6919V47.7927C84.2689 48.0476 84.2818 48.2981 84.3182 48.4995H83.8342V48.4973ZM83.7549 46.9938C83.1702 46.981 82.5063 47.0859 82.5063 47.6578C82.5063 48.0047 82.7376 48.1696 83.0118 48.1696C83.3951 48.1696 83.6393 47.9255 83.7249 47.677C83.7442 47.6214 83.7549 47.5614 83.7549 47.5057V46.9938Z" fill="#DFE9F4"/>
<path d="M85.1407 46.3469C85.1407 46.0428 85.1343 45.7922 85.1172 45.5502H85.5926L85.6226 46.0364H85.6355C85.7811 45.7558 86.1216 45.4817 86.6099 45.4817C87.019 45.4817 87.6508 45.7258 87.6508 46.7367V48.4972H87.1154V46.7988C87.1154 46.3234 86.9398 45.9293 86.4343 45.9293C86.081 45.9293 85.8068 46.1799 85.7169 46.4776C85.6933 46.544 85.6804 46.6361 85.6804 46.7282V48.4993H85.145V46.3469H85.1407Z" fill="#DFE9F4"/>
<path d="M90.6177 48.3882C90.4785 48.461 90.168 48.5595 89.7718 48.5595C88.8829 48.5595 88.3047 47.9577 88.3047 47.0561C88.3047 46.148 88.9258 45.4905 89.8874 45.4905C90.2044 45.4905 90.4849 45.5697 90.6306 45.6425L90.5085 46.0559C90.38 45.9831 90.1787 45.9167 89.8874 45.9167C89.2106 45.9167 88.8465 46.4157 88.8465 47.0304C88.8465 47.7114 89.2856 48.1312 89.8703 48.1312C90.1744 48.1312 90.3757 48.052 90.5278 47.9856L90.6177 48.3882Z" fill="#DFE9F4"/>
<path d="M91.5041 47.1223C91.5169 47.8462 91.9795 48.146 92.5149 48.146C92.8983 48.146 93.1296 48.0796 93.3309 47.994L93.423 48.3773C93.2346 48.463 92.9112 48.5594 92.4421 48.5594C91.534 48.5594 90.9922 47.9618 90.9922 47.073C90.9922 46.1842 91.5169 45.4839 92.3736 45.4839C93.3352 45.4839 93.5922 46.3299 93.5922 46.8717C93.5922 46.9809 93.5794 47.0666 93.5751 47.1223H91.5041ZM93.0739 46.7368C93.0803 46.3962 92.9347 45.8672 92.3308 45.8672C91.7889 45.8672 91.5512 46.3663 91.5083 46.7368H93.0739Z" fill="#DFE9F4"/>
<path d="M98.4322 48.3633C98.2373 48.4597 97.8475 48.5582 97.3485 48.5582C96.192 48.5582 95.3203 47.8279 95.3203 46.4829C95.3203 45.1979 96.192 44.3284 97.4642 44.3284C97.976 44.3284 98.2973 44.4376 98.4386 44.5104L98.3101 44.943C98.1088 44.8445 97.824 44.7717 97.4813 44.7717C96.5197 44.7717 95.8793 45.3864 95.8793 46.4636C95.8793 47.4681 96.4576 48.1128 97.4556 48.1128C97.779 48.1128 98.1067 48.0464 98.3208 47.9414L98.4322 48.3633Z" fill="#DFE9F4"/>
<path d="M101.685 47.0002C101.685 48.0903 100.929 48.5658 100.218 48.5658C99.4215 48.5658 98.8047 47.9811 98.8047 47.0495C98.8047 46.0621 99.4493 45.4839 100.265 45.4839C101.113 45.4839 101.685 46.0986 101.685 47.0002ZM99.3465 47.0302C99.3465 47.6748 99.7171 48.1632 100.242 48.1632C100.754 48.1632 101.137 47.6813 101.137 47.0195C101.137 46.5205 100.886 45.8865 100.255 45.8865C99.6207 45.8844 99.3465 46.4691 99.3465 47.0302Z" fill="#DFE9F4"/>
<path d="M102.359 46.4691C102.359 46.1221 102.353 45.8244 102.336 45.5503H102.805L102.822 46.1285H102.846C102.978 45.7323 103.302 45.4839 103.662 45.4839C103.722 45.4839 103.764 45.4903 103.814 45.501V46.0065C103.758 45.9936 103.704 45.9893 103.632 45.9893C103.255 45.9893 102.987 46.2763 102.914 46.6768C102.901 46.7496 102.891 46.8353 102.891 46.9274V48.4973H102.362V46.4691H102.359Z" fill="#DFE9F4"/>
<path d="M104.375 46.5119C104.375 46.135 104.362 45.8308 104.352 45.5503H104.833L104.857 46.0557H104.87C105.088 45.6959 105.435 45.4839 105.917 45.4839C106.63 45.4839 107.166 46.0857 107.166 46.9809C107.166 48.0411 106.521 48.5636 105.827 48.5636C105.437 48.5636 105.097 48.3923 104.919 48.101H104.906V49.703H104.377V46.5119H104.375ZM104.904 47.2979C104.904 47.3772 104.917 47.45 104.928 47.5164C105.026 47.8869 105.347 48.1439 105.731 48.1439C106.296 48.1439 106.626 47.6813 106.626 47.0045C106.626 46.4134 106.316 45.9079 105.75 45.9079C105.384 45.9079 105.043 46.1692 104.941 46.5719C104.923 46.6383 104.904 46.7175 104.904 46.7903V47.2979Z" fill="#DFE9F4"/>
<path d="M110.506 47.0002C110.506 48.0903 109.75 48.5658 109.039 48.5658C108.242 48.5658 107.625 47.9811 107.625 47.0495C107.625 46.0621 108.27 45.4839 109.086 45.4839C109.934 45.4839 110.506 46.0986 110.506 47.0002ZM108.167 47.0302C108.167 47.6748 108.537 48.1632 109.062 48.1632C109.574 48.1632 109.957 47.6813 109.957 47.0195C109.957 46.5205 109.707 45.8865 109.075 45.8865C108.441 45.8844 108.167 46.4691 108.167 47.0302Z" fill="#DFE9F4"/>
<path d="M111.18 46.4691C111.18 46.1221 111.173 45.8244 111.156 45.5503H111.625L111.642 46.1285H111.666C111.799 45.7323 112.122 45.4839 112.482 45.4839C112.542 45.4839 112.585 45.4903 112.634 45.501V46.0065C112.578 45.9936 112.525 45.9893 112.452 45.9893C112.075 45.9893 111.807 46.2763 111.735 46.6768C111.722 46.7496 111.711 46.8353 111.711 46.9274V48.4973H111.182V46.4691H111.18Z" fill="#DFE9F4"/>
<path d="M114.772 48.4973L114.729 48.1268H114.71C114.545 48.3581 114.228 48.5659 113.808 48.5659C113.21 48.5659 112.906 48.1461 112.906 47.7199C112.906 47.0067 113.54 46.6169 114.677 46.6233V46.5634C114.677 46.3192 114.611 45.8823 114.007 45.8823C113.733 45.8823 113.446 45.968 113.24 46.1008L113.118 45.7474C113.362 45.5889 113.716 45.4861 114.086 45.4861C114.988 45.4861 115.206 46.1008 115.206 46.6919V47.7927C115.206 48.0476 115.219 48.2981 115.256 48.4995H114.772V48.4973ZM114.692 46.9938C114.108 46.981 113.444 47.0859 113.444 47.6578C113.444 48.0047 113.675 48.1696 113.949 48.1696C114.333 48.1696 114.577 47.9255 114.662 47.677C114.682 47.6214 114.692 47.5614 114.692 47.5057V46.9938Z" fill="#DFE9F4"/>
<path d="M116.7 44.7056V45.5515H117.466V45.9585H116.7V47.5476C116.7 47.9138 116.802 48.1194 117.102 48.1194C117.241 48.1194 117.346 48.1023 117.413 48.083L117.436 48.4857C117.334 48.5285 117.169 48.5585 116.961 48.5585C116.71 48.5585 116.511 48.4792 116.383 48.3336C116.231 48.1751 116.175 47.9138 116.175 47.5669V45.9606H115.719V45.5537H116.175V44.8469L116.7 44.7056Z" fill="#DFE9F4"/>
<path d="M118.664 44.7235C118.67 44.9056 118.535 45.0533 118.323 45.0533C118.135 45.0533 118 44.9077 118 44.7235C118 44.535 118.139 44.3894 118.334 44.3894C118.538 44.3894 118.664 44.535 118.664 44.7235ZM118.069 48.4993V45.5524H118.604V48.4993H118.069Z" fill="#DFE9F4"/>
<path d="M122.162 47.0002C122.162 48.0903 121.406 48.5658 120.695 48.5658C119.898 48.5658 119.281 47.9811 119.281 47.0495C119.281 46.0621 119.926 45.4839 120.742 45.4839C121.59 45.4839 122.162 46.0986 122.162 47.0002ZM119.825 47.0302C119.825 47.6748 120.196 48.1632 120.72 48.1632C121.232 48.1632 121.616 47.6813 121.616 47.0195C121.616 46.5205 121.365 45.8865 120.733 45.8865C120.099 45.8844 119.825 46.4691 119.825 47.0302Z" fill="#DFE9F4"/>
<path d="M122.836 46.3469C122.836 46.0428 122.83 45.7922 122.812 45.5502H123.288L123.318 46.0364H123.331C123.476 45.7558 123.817 45.4817 124.305 45.4817C124.714 45.4817 125.346 45.7258 125.346 46.7367V48.4972H124.811V46.7988C124.811 46.3234 124.635 45.9293 124.13 45.9293C123.776 45.9293 123.502 46.1799 123.412 46.4776C123.389 46.544 123.376 46.6361 123.376 46.7282V48.4993H122.84V46.3469H122.836Z" fill="#DFE9F4"/>
<path d="M55.6875 51.4702C55.9222 51.4302 56.2317 51.3982 56.6238 51.3982C57.1066 51.3982 57.4587 51.5102 57.6828 51.713C57.8908 51.8917 58.0135 52.1664 58.0135 52.5025C58.0135 52.844 57.9122 53.1134 57.7228 53.3081C57.464 53.5829 57.0452 53.7216 56.5678 53.7216C56.4211 53.7216 56.2877 53.7162 56.1756 53.6869V55.1993H55.6875V51.4702ZM56.1756 53.2921C56.2823 53.3214 56.4157 53.3321 56.5784 53.3321C57.1653 53.3321 57.5254 53.0467 57.5254 52.5265C57.5254 52.0277 57.1733 51.7876 56.6345 51.7876C56.4211 51.7876 56.2583 51.8037 56.1756 51.8277V53.2921Z" fill="white"/>
<path d="M58.5604 53.3342C58.5604 53.0141 58.5551 52.742 58.5391 52.4886H58.9712L58.9872 53.0194H59.0085C59.1312 52.6566 59.4273 52.4272 59.7581 52.4272C59.8141 52.4272 59.8541 52.4326 59.8968 52.4433V52.9074C59.8461 52.8967 59.7954 52.8914 59.7288 52.8914C59.382 52.8914 59.1339 53.1555 59.0672 53.5236C59.0566 53.5903 59.0459 53.6676 59.0459 53.753V55.1987H58.5577V53.3342H58.5604Z" fill="white"/>
<path d="M62.7894 53.8223C62.7894 54.8253 62.0959 55.2628 61.4397 55.2628C60.7061 55.2628 60.1406 54.7239 60.1406 53.8677C60.1406 52.9607 60.7355 52.4272 61.485 52.4272C62.2639 52.4272 62.7894 52.9927 62.7894 53.8223ZM60.6394 53.8517C60.6394 54.4465 60.9809 54.8947 61.4637 54.8947C61.9332 54.8947 62.2879 54.4519 62.2879 53.841C62.2879 53.3822 62.0585 52.798 61.477 52.798C60.8955 52.798 60.6394 53.3342 60.6394 53.8517Z" fill="white"/>
<path d="M64.011 51.7122V52.4911H64.7152V52.8672H64.011V54.329C64.011 54.6651 64.107 54.8544 64.3791 54.8544C64.5071 54.8544 64.6032 54.8384 64.6645 54.8198L64.6859 55.1905C64.5898 55.2306 64.4404 55.2572 64.2484 55.2572C64.019 55.2572 63.8349 55.1852 63.7176 55.0492C63.5762 54.9025 63.5282 54.6624 63.5282 54.3423V52.8645H63.1094V52.4884H63.5282V51.8375L64.011 51.7122Z" fill="white"/>
<path d="M65.5112 53.9339C65.5219 54.6008 65.9487 54.8755 66.4422 54.8755C66.7943 54.8755 67.0077 54.8142 67.1917 54.7368L67.2744 55.0889C67.101 55.1663 66.8049 55.257 66.3728 55.257C65.5379 55.257 65.0391 54.7075 65.0391 53.8912C65.0391 53.075 65.5219 52.4294 66.3114 52.4294C67.197 52.4294 67.4318 53.2083 67.4318 53.7072C67.4318 53.8085 67.4211 53.8859 67.4158 53.9366H65.5112V53.9339ZM66.9543 53.5818C66.9596 53.267 66.8263 52.7816 66.2714 52.7816C65.7726 52.7816 65.5539 53.2404 65.5165 53.5818H66.9543Z" fill="white"/>
<path d="M69.9724 55.0991C69.8444 55.1658 69.5589 55.2565 69.1935 55.2565C68.3746 55.2565 67.8438 54.7017 67.8438 53.8721C67.8438 53.0372 68.4146 52.4316 69.3002 52.4316C69.591 52.4316 69.8497 52.5037 69.9831 52.5703L69.871 52.9518C69.7537 52.8851 69.5696 52.8238 69.3002 52.8238C68.6787 52.8238 68.3426 53.2826 68.3426 53.8481C68.3426 54.4749 68.7454 54.8617 69.2842 54.8617C69.5643 54.8617 69.7483 54.7897 69.8897 54.7283L69.9724 55.0991Z" fill="white"/>
<path d="M71.2168 51.7122V52.4911H71.9237V52.8672H71.2168V54.329C71.2168 54.6651 71.3128 54.8544 71.5876 54.8544C71.7156 54.8544 71.8116 54.8384 71.873 54.8198L71.8943 55.1905C71.7983 55.2306 71.6489 55.2572 71.4568 55.2572C71.2274 55.2572 71.0434 55.1852 70.9234 55.0492C70.7846 54.9025 70.734 54.6624 70.734 54.3423V52.8645H70.3125V52.4884H70.734V51.8375L71.2168 51.7122Z" fill="white"/>
<path d="M73.0249 51.7292C73.0303 51.8972 72.9075 52.0306 72.7101 52.0306C72.5368 52.0306 72.4141 51.8972 72.4141 51.7292C72.4141 51.5558 72.5421 51.4224 72.7208 51.4224C72.9075 51.4197 73.0249 51.5558 73.0249 51.7292ZM72.4754 55.2022V52.4921H72.9689V55.2022H72.4754Z" fill="white"/>
<path d="M73.787 53.2221C73.787 52.9421 73.7816 52.7127 73.7656 52.4886H74.2031L74.2298 52.9367H74.2404C74.3738 52.678 74.6886 52.4272 75.1367 52.4272C75.5128 52.4272 76.0943 52.6513 76.0943 53.5796V55.1987H75.6008V53.6356C75.6008 53.1981 75.4381 52.8354 74.974 52.8354C74.6486 52.8354 74.3978 53.0648 74.3125 53.3395C74.2911 53.4009 74.2778 53.4862 74.2778 53.5689V55.1987H73.7843V53.2221H73.787Z" fill="white"/>
<path d="M79.2346 52.4891C79.2239 52.6838 79.2132 52.9025 79.2132 53.2333V54.8071C79.2132 55.4286 79.0905 55.8101 78.8264 56.0448C78.5624 56.2902 78.1809 56.3702 77.8395 56.3702C77.514 56.3702 77.1566 56.2929 76.9379 56.1462L77.0606 55.7701C77.2393 55.8821 77.5194 55.9835 77.8555 55.9835C78.3596 55.9835 78.7304 55.7194 78.7304 55.0365V54.7351H78.7197C78.5677 54.9858 78.2769 55.1885 77.8581 55.1885C77.1859 55.1885 76.7031 54.6177 76.7031 53.8655C76.7031 52.9479 77.3033 52.425 77.9248 52.425C78.3943 52.425 78.653 52.6705 78.7704 52.8945H78.7811L78.8024 52.4864H79.2346V52.4891ZM78.7251 53.5587C78.7251 53.476 78.7197 53.4013 78.6984 53.3347C78.6077 53.0492 78.3676 52.8145 78.0102 52.8145C77.5407 52.8145 77.2046 53.212 77.2046 53.8388C77.2046 54.3696 77.474 54.8124 78.0049 54.8124C78.3063 54.8124 78.581 54.623 78.6877 54.3083C78.7171 54.2229 78.7277 54.1296 78.7277 54.0442V53.5587H78.7251Z" fill="white"/>
<path d="M81.3904 52.4883L81.9852 54.0888C82.0466 54.2675 82.1133 54.4809 82.1586 54.6436H82.1693C82.22 54.4809 82.276 54.2728 82.3427 54.0781L82.8815 52.4883H83.4017L82.6628 54.4195C82.3107 55.3478 82.0679 55.8253 81.7318 56.116C81.4918 56.3294 81.249 56.4121 81.1263 56.4361L81.0036 56.0227C81.1263 55.9827 81.289 55.9053 81.4357 55.7826C81.5691 55.6759 81.7372 55.4865 81.8492 55.2331C81.8705 55.1824 81.8892 55.1424 81.8892 55.1157C81.8892 55.0864 81.8785 55.0491 81.8545 54.9877L80.8516 52.491H81.3904V52.4883Z" fill="white"/>
<path d="M86.2504 53.8223C86.2504 54.8253 85.5568 55.2628 84.9006 55.2628C84.1671 55.2628 83.6016 54.7239 83.6016 53.8677C83.6016 52.9607 84.1964 52.4272 84.946 52.4272C85.7249 52.4272 86.2504 52.9927 86.2504 53.8223ZM84.1004 53.8517C84.1004 54.4465 84.4418 54.8947 84.9246 54.8947C85.3941 54.8947 85.7489 54.4519 85.7489 53.841C85.7489 53.3822 85.5195 52.798 84.938 52.798C84.3565 52.798 84.1004 53.3342 84.1004 53.8517Z" fill="white"/>
<path d="M89.1403 54.4595C89.1403 54.7396 89.1456 54.985 89.1616 55.1984H88.7241L88.6948 54.7556H88.6841C88.5561 54.9744 88.2707 55.2598 87.7878 55.2598C87.3611 55.2598 86.8516 55.0251 86.8516 54.0728V52.4883H87.345V53.9901C87.345 54.5049 87.5024 54.8517 87.9506 54.8517C88.2813 54.8517 88.5107 54.6223 88.6014 54.4035C88.6281 54.3315 88.6468 54.2408 88.6468 54.1528V52.4883H89.1403V54.4595Z" fill="white"/>
<path d="M89.9588 53.3342C89.9588 53.0141 89.9535 52.742 89.9375 52.4886H90.3696L90.3856 53.0194H90.407C90.5297 52.6566 90.8258 52.4272 91.1565 52.4272C91.2126 52.4272 91.2526 52.4326 91.2979 52.4433V52.9074C91.2472 52.8967 91.1965 52.8914 91.1299 52.8914C90.7831 52.8914 90.535 53.1555 90.4683 53.5236C90.4577 53.5903 90.447 53.6676 90.447 53.753V55.1987H89.9588V53.3342Z" fill="white"/>
<path d="M92.9531 55.2006C92.9638 55.0166 92.9745 54.7418 92.9745 54.5017V51.2261H93.4626V52.9279H93.4733C93.6467 52.6265 93.9614 52.4291 94.3962 52.4291C95.0684 52.4291 95.5432 52.9893 95.5379 53.8135C95.5379 54.7818 94.9271 55.2646 94.3215 55.2646C93.9294 55.2646 93.6147 55.1126 93.4146 54.7551H93.3986L93.3773 55.2033H92.9531V55.2006ZM93.4626 54.1123C93.4626 54.1736 93.4733 54.235 93.4839 54.291C93.58 54.6324 93.8654 54.8672 94.2228 54.8672C94.7377 54.8672 95.0471 54.4457 95.0471 53.8242C95.0471 53.28 94.767 52.8159 94.2415 52.8159C93.9054 52.8159 93.5906 53.0453 93.492 53.4214C93.4813 53.4774 93.4653 53.5441 93.4653 53.6241V54.1123H93.4626Z" fill="white"/>
<path d="M97.6683 55.201L97.6283 54.8595H97.6123C97.4602 55.0729 97.1695 55.2623 96.7827 55.2623C96.2332 55.2623 95.9531 54.8755 95.9531 54.4834C95.9531 53.8272 96.5346 53.4698 97.5829 53.4751V53.4191C97.5829 53.195 97.5216 52.7922 96.9668 52.7922C96.7134 52.7922 96.4519 52.8696 96.2599 52.995L96.1478 52.6695C96.3719 52.5228 96.6973 52.4294 97.0388 52.4294C97.8684 52.4294 98.0684 52.9949 98.0684 53.5391V54.5528C98.0684 54.7875 98.0791 55.0169 98.1138 55.2036H97.6683V55.201ZM97.5963 53.8165C97.0575 53.8059 96.4493 53.8992 96.4493 54.4274C96.4493 54.7475 96.6627 54.8969 96.9134 54.8969C97.2655 54.8969 97.4896 54.6728 97.5696 54.4434C97.5856 54.3927 97.599 54.3367 97.599 54.286V53.8165H97.5963Z" fill="white"/>
<path d="M98.8651 53.2221C98.8651 52.9421 98.8598 52.7127 98.8438 52.4886H99.2812L99.3079 52.9367H99.3186C99.4519 52.678 99.7667 52.4272 100.215 52.4272C100.591 52.4272 101.172 52.6513 101.172 53.5796V55.1987H100.679V53.6356C100.679 53.1981 100.516 52.8354 100.052 52.8354C99.7267 52.8354 99.4759 53.0648 99.3906 53.3395C99.3692 53.4009 99.3559 53.4862 99.3559 53.5689V55.1987H98.8624V53.2221H98.8651Z" fill="white"/>
<path d="M102.462 53.7344H102.473C102.54 53.6384 102.636 53.521 102.713 53.425L103.508 52.4887H104.103L103.054 53.6037L104.247 55.1989H103.647L102.71 53.8998L102.457 54.1799V55.1989H101.969V51.2217H102.457V53.7344H102.462Z" fill="white"/>
<path d="M108.131 51.2243V54.5C108.131 54.7401 108.136 55.0148 108.152 55.1989H107.709L107.688 54.7294H107.677C107.525 55.0308 107.194 55.2602 106.754 55.2602C106.098 55.2602 105.594 54.7054 105.594 53.8838C105.588 52.9822 106.149 52.4274 106.81 52.4274C107.224 52.4274 107.504 52.6221 107.626 52.8408H107.637V51.2217H108.131V51.2243ZM107.637 53.5931C107.637 53.5317 107.632 53.4464 107.616 53.385C107.544 53.0702 107.274 52.8142 106.904 52.8142C106.394 52.8142 106.093 53.2623 106.093 53.8625C106.093 54.412 106.362 54.8655 106.893 54.8655C107.224 54.8655 107.525 54.6467 107.616 54.2759C107.632 54.2093 107.637 54.1426 107.637 54.0625V53.5931Z" fill="white"/>
<path d="M109.227 53.9339C109.238 54.6008 109.665 54.8755 110.158 54.8755C110.51 54.8755 110.724 54.8142 110.908 54.7368L110.993 55.0889C110.82 55.1663 110.524 55.257 110.092 55.257C109.257 55.257 108.758 54.7075 108.758 53.8912C108.758 53.075 109.241 52.4294 110.03 52.4294C110.916 52.4294 111.151 53.2083 111.151 53.7072C111.151 53.8085 111.14 53.8859 111.135 53.9366H109.227V53.9339ZM110.67 53.5818C110.676 53.267 110.542 52.7816 109.988 52.7816C109.489 52.7816 109.27 53.2404 109.233 53.5818H110.67Z" fill="white"/>
<path d="M111.756 53.3742C111.756 53.0274 111.745 52.7473 111.734 52.4886H112.177L112.199 52.9527H112.209C112.412 52.622 112.729 52.4272 113.172 52.4272C113.828 52.4272 114.319 52.9821 114.319 53.8037C114.319 54.7773 113.724 55.2601 113.087 55.2601C112.729 55.2601 112.415 55.1027 112.252 54.8333H112.241V56.3057H111.753V53.3742H111.756ZM112.244 54.0971C112.244 54.1691 112.255 54.2385 112.265 54.2998C112.356 54.6412 112.652 54.876 113.004 54.876C113.524 54.876 113.828 54.4492 113.828 53.8277C113.828 53.2835 113.543 52.8194 113.023 52.8194C112.687 52.8194 112.372 53.0594 112.279 53.4302C112.263 53.4916 112.244 53.5636 112.244 53.6329V54.0971Z" fill="white"/>
<path d="M117.391 53.8223C117.391 54.8253 116.697 55.2628 116.041 55.2628C115.308 55.2628 114.742 54.7239 114.742 53.8677C114.742 52.9607 115.337 52.4272 116.087 52.4272C116.865 52.4272 117.391 52.9927 117.391 53.8223ZM115.241 53.8517C115.241 54.4465 115.582 54.8947 116.065 54.8947C116.535 54.8947 116.89 54.4519 116.89 53.841C116.89 53.3822 116.66 52.798 116.079 52.798C115.497 52.798 115.241 53.3342 115.241 53.8517Z" fill="white"/>
<path d="M117.951 54.6968C118.095 54.7928 118.354 54.8942 118.602 54.8942C118.959 54.8942 119.127 54.7155 119.127 54.4914C119.127 54.2567 118.988 54.126 118.623 53.9926C118.135 53.8192 117.905 53.5498 117.905 53.2244C117.905 52.7869 118.258 52.4294 118.842 52.4294C119.117 52.4294 119.357 52.5068 119.509 52.5975L119.386 52.9549C119.279 52.8882 119.084 52.7976 118.831 52.7976C118.54 52.7976 118.378 52.9656 118.378 53.1683C118.378 53.3924 118.54 53.4938 118.892 53.6271C119.362 53.8059 119.605 54.0406 119.605 54.4461C119.605 54.9209 119.234 55.257 118.591 55.257C118.295 55.257 118.02 55.1849 117.828 55.0729L117.951 54.6968Z" fill="white"/>
<path d="M120.783 51.7292C120.788 51.8972 120.665 52.0306 120.468 52.0306C120.295 52.0306 120.172 51.8972 120.172 51.7292C120.172 51.5558 120.3 51.4224 120.481 51.4224C120.665 51.4197 120.783 51.5558 120.783 51.7292ZM120.233 55.2022V52.4921H120.727V55.2022H120.233Z" fill="white"/>
<path d="M122.136 51.7122V52.4911H122.84V52.8672H122.136V54.329C122.136 54.6651 122.232 54.8544 122.504 54.8544C122.632 54.8544 122.728 54.8384 122.79 54.8198L122.811 55.1905C122.715 55.2306 122.565 55.2572 122.373 55.2572C122.144 55.2572 121.96 55.1852 121.843 55.0492C121.701 54.9025 121.653 54.6624 121.653 54.3423V52.8645H121.234V52.4884H121.653V51.8375L122.136 51.7122Z" fill="white"/>
<path d="M123.334 54.6968C123.48 54.7928 123.736 54.8942 123.984 54.8942C124.342 54.8942 124.51 54.7155 124.51 54.4914C124.51 54.2567 124.369 54.126 124.006 53.9926C123.518 53.8192 123.288 53.5498 123.288 53.2244C123.288 52.7869 123.64 52.4294 124.225 52.4294C124.499 52.4294 124.739 52.5068 124.891 52.5975L124.769 52.9549C124.662 52.8882 124.467 52.7976 124.214 52.7976C123.923 52.7976 123.76 52.9656 123.76 53.1683C123.76 53.3924 123.923 53.4938 124.275 53.6271C124.745 53.8059 124.987 54.0406 124.987 54.4461C124.987 54.9209 124.617 55.257 123.974 55.257C123.678 55.257 123.403 55.1849 123.211 55.0729L123.334 54.6968Z" fill="white"/>
</svg>
