<svg width="87" height="38" viewBox="0 0 87 38" fill="none" xmlns="http://www.w3.org/2000/svg">
<g clip-path="url(#clip0_39_145070)">
<path d="M57.6343 24.3236L58.4277 24.5616C58.3748 24.7864 58.2955 24.9716 58.1765 25.117C58.0575 25.2625 57.9252 25.3815 57.7533 25.4476C57.5814 25.527 57.3698 25.5667 57.1053 25.5667C56.7879 25.5667 56.5366 25.527 56.325 25.4344C56.1267 25.3419 55.9548 25.1832 55.8093 24.9451C55.6638 24.7203 55.5845 24.4161 55.5845 24.0591C55.5845 23.583 55.7167 23.2127 55.968 22.9482C56.2192 22.6837 56.5895 22.5647 57.0524 22.5647C57.4227 22.5647 57.7004 22.644 57.912 22.7895C58.1236 22.935 58.2823 23.1598 58.3749 23.4772L57.5814 23.6491C57.5549 23.5565 57.5285 23.4904 57.4888 23.4507C57.4359 23.3846 57.383 23.3317 57.3037 23.292C57.2243 23.2524 57.145 23.2391 57.0656 23.2391C56.8673 23.2391 56.7086 23.3185 56.6028 23.4904C56.5234 23.6094 56.4837 23.8078 56.4837 24.0591C56.4837 24.3765 56.5366 24.6013 56.6292 24.7203C56.7218 24.8393 56.8673 24.9054 57.0392 24.9054C57.2111 24.9054 57.3433 24.8525 57.4227 24.76C57.5285 24.641 57.5946 24.5087 57.6343 24.3236Z" fill="#225E63"/>
<path d="M58.7451 24.0591C58.7451 23.583 58.8774 23.2127 59.1419 22.9482C59.4063 22.6838 59.7766 22.5515 60.2527 22.5515C60.742 22.5515 61.1123 22.6838 61.3768 22.935C61.6413 23.1995 61.7735 23.5566 61.7735 24.0327C61.7735 24.3765 61.7206 24.6542 61.6016 24.8658C61.4826 25.0774 61.3239 25.2493 61.0991 25.3683C60.8875 25.4874 60.6098 25.5535 60.2924 25.5535C59.9618 25.5535 59.6973 25.5006 59.4725 25.3948C59.2609 25.289 59.089 25.1303 58.9435 24.8923C58.798 24.6542 58.7451 24.403 58.7451 24.0591ZM59.6444 24.0591C59.6444 24.3501 59.6973 24.5616 59.8031 24.6939C59.9089 24.8261 60.0543 24.8923 60.2527 24.8923C60.4511 24.8923 60.5966 24.8261 60.7024 24.7071C60.8081 24.5749 60.861 24.3501 60.861 24.0327C60.861 23.7549 60.8081 23.5566 60.6891 23.4376C60.5833 23.3053 60.4246 23.2524 60.2395 23.2524C60.0543 23.2524 59.9089 23.3185 59.8031 23.4508C59.6973 23.5566 59.6444 23.7682 59.6444 24.0591Z" fill="#225E63"/>
<path d="M62.2364 22.6045H63.4134L63.863 24.3766L64.3127 22.6045H65.4896V25.5139H64.7491V23.2922L64.1804 25.5139H63.5192L62.9505 23.2922V25.5139H62.21V22.6045H62.2364Z" fill="#225E63"/>
<path d="M66.0718 22.6045H67.5662C67.8968 22.6045 68.1348 22.6838 68.2935 22.8425C68.4522 23.0012 68.5315 23.2128 68.5315 23.5038C68.5315 23.7947 68.439 24.0327 68.2671 24.1914C68.0951 24.3634 67.8174 24.4427 67.4604 24.4427H66.971V25.5271H66.0718V22.6045ZM66.971 23.8476H67.1959C67.3678 23.8476 67.4868 23.8211 67.5662 23.755C67.6323 23.6889 67.6719 23.6228 67.6719 23.5302C67.6719 23.4376 67.6455 23.3583 67.5794 23.2922C67.5133 23.226 67.4075 23.1996 67.2355 23.1996H66.9843V23.8476H66.971Z" fill="#225E63"/>
<path d="M69.0073 22.6045H69.9066V24.7998H71.3084V25.5139H69.0073V22.6045Z" fill="#225E63"/>
<path d="M71.7583 22.6045H72.6576V25.5139H71.7583V22.6045Z" fill="#225E63"/>
<path d="M75.0909 25.0244H74.0726L73.9271 25.5005H73.0146L74.1123 22.5911H75.0909L76.1885 25.5005H75.2496L75.0909 25.0244ZM74.9058 24.4028L74.5884 23.3581L74.271 24.4028H74.9058Z" fill="#225E63"/>
<path d="M76.4658 22.6045H77.299L78.3966 24.2179V22.6045H79.243V25.5139H78.3966L77.3122 23.9137V25.5139H76.4658V22.6045Z" fill="#225E63"/>
<path d="M79.6401 22.6045H82.3776V23.3186H81.4651V25.5139H80.5659V23.3186H79.6534V22.6045H79.6401Z" fill="#225E63"/>
<path d="M46.8169 27.0347L49.4221 26.2148L48.5757 24.3369C47.9542 25.1171 47.3326 26.1222 46.8169 27.0347ZM45.9308 18.452L40.8262 7.07886L3.45361 9.19478L13.8084 37.4424L33.7378 31.1607C32.4682 29.3358 32.0054 27.1669 33.4733 26.109C35.1132 24.9188 37.5861 26.2941 39.1599 28.2381C40.6807 25.699 44.9522 19.7876 45.9308 18.452Z" fill="#225E63"/>
<path d="M39.6616 15.2978C41.2221 15.2978 42.4916 14.1076 42.4916 12.6264C42.4916 11.1453 41.2221 9.95508 39.6616 9.95508C38.1011 9.95508 36.8315 11.1453 36.8315 12.6264C36.8315 14.0944 38.1011 15.2978 39.6616 15.2978ZM37.3473 16.4483H41.9759V28.5488H37.3473V16.4483Z" fill="#FEFEFE"/>
<path d="M35.0594 19.9794C35.0991 19.9926 35.1255 19.9794 35.1255 19.9397V16.8716C35.1255 16.8319 35.0991 16.7923 35.0594 16.7658C35.0594 16.7658 34.4511 16.3691 32.5996 16.2633C32.507 16.2104 30.8804 16.1972 30.444 16.2633C23.6995 16.8055 23.4482 21.6853 23.4482 21.8969V23.0871C23.4482 23.2326 23.4482 28.2183 30.444 28.6547C31.1317 28.7076 32.4674 28.6547 32.5996 28.6547C34.213 28.6547 35.3239 28.1654 35.3239 28.1654C35.3635 28.1521 35.39 28.1125 35.39 28.0728V25.2031C35.39 25.1634 35.3635 25.1502 35.3371 25.1766C35.3371 25.1766 34.8346 25.5733 32.6393 25.7982C32.0177 25.8643 31.7136 25.8378 31.4888 25.7982C28.3678 25.2692 28.2223 22.9946 28.2223 22.9946C28.2223 22.9549 28.2091 22.8888 28.2091 22.8623V21.9895C28.2091 21.9498 28.2091 21.8837 28.2223 21.8573C28.2223 21.8573 28.4339 19.4107 31.4888 19.1462H32.6393C33.975 19.3181 35.0594 19.9794 35.0594 19.9794Z" fill="#FEFEFE"/>
<path d="M10.5942 28.509C10.5942 28.5487 10.6207 28.5752 10.6604 28.5752H15.1699C15.2096 28.5752 15.2361 28.5487 15.2361 28.509V24.9913C15.2361 24.9516 15.2625 24.9252 15.3022 24.9252C15.3022 24.9252 22.5095 25.441 22.5095 20.614C22.5095 16.7921 17.9868 16.3821 16.5056 16.4483C16.4792 16.4483 10.6604 16.4483 10.6604 16.4483C10.6207 16.4483 10.5942 16.4747 10.5942 16.5144V28.509ZM15.1567 22.2406V19.0799H16.2676C16.2676 19.0799 17.8677 19.1461 18 20.2437C18.0264 20.3231 18.0264 20.8653 18 20.8917C17.7884 22.1745 16.3998 22.2406 16.3998 22.2406H15.1567Z" fill="#FEFEFE"/>
<path d="M39.7946 34.3875C40.1649 34.3875 40.4558 34.3875 40.9319 34.1759C42.5717 33.3163 48.1128 19.7876 53.9581 15.6218C53.9977 15.5954 54.0374 15.5557 54.0639 15.5161C54.1035 15.4632 54.1035 15.4103 54.1035 15.4103C54.1035 15.4103 54.1035 15.1325 53.2439 15.1325C48.0467 14.9871 42.6379 25.8973 39.7946 30.2085C39.7549 30.2614 39.5698 30.2085 39.5698 30.2085C39.5698 30.2085 37.6654 27.9603 36.0124 27.1007C35.9727 27.0875 35.7876 27.0214 35.5892 27.0346C35.4569 27.0346 34.6899 27.1933 34.3329 27.5636C33.9097 28.0132 33.9229 28.2645 33.9229 28.8067C33.9229 28.8464 33.9493 29.0315 34.0022 29.1241C34.4122 29.8382 36.2504 32.3773 37.7712 33.7791C37.9961 33.9511 38.3531 34.3875 39.7946 34.3875Z" fill="#2BBC5D"/>
<path d="M55.4922 11.5354H59.8166C60.6762 11.5354 61.3639 11.6544 61.8796 11.8792C62.4086 12.1173 62.845 12.4479 63.1756 12.8711C63.5195 13.3075 63.7707 13.81 63.9162 14.3787C64.0749 14.9473 64.1543 15.5557 64.1543 16.2037C64.1543 17.2087 64.0352 17.989 63.8104 18.5444C63.5856 19.0998 63.2682 19.5627 62.8583 19.9462C62.4483 20.3165 62.0119 20.5678 61.549 20.7C60.9142 20.8719 60.3324 20.9513 59.8166 20.9513H55.4922V11.5354ZM58.4016 13.6646V18.8089H59.1157C59.724 18.8089 60.1605 18.7428 60.4117 18.6105C60.663 18.4783 60.8746 18.2402 61.02 17.9096C61.1655 17.579 61.2449 17.0236 61.2449 16.2698C61.2449 15.2647 61.0862 14.5903 60.7556 14.22C60.4249 13.8497 59.896 13.6646 59.1289 13.6646H58.4016Z" fill="#225E63"/>
<path d="M64.9609 17.8436L67.7381 17.6716C67.8042 18.1213 67.9232 18.4651 68.1084 18.7031C68.4125 19.0867 68.8357 19.2718 69.3912 19.2718C69.8011 19.2718 70.1317 19.1792 70.3566 18.9809C70.5814 18.7825 70.7004 18.5577 70.7004 18.3064C70.7004 18.0684 70.5946 17.8436 70.383 17.6452C70.1714 17.4468 69.6689 17.2749 68.8886 17.103C67.6058 16.812 66.7066 16.4285 66.1511 15.9524C65.5957 15.4764 65.3312 14.868 65.3312 14.1275C65.3312 13.6381 65.4767 13.1885 65.7544 12.7521C66.0321 12.3157 66.4553 11.9851 67.024 11.7338C67.5926 11.4825 68.3596 11.3635 69.3383 11.3635C70.5417 11.3635 71.4674 11.5883 72.089 12.038C72.7237 12.4876 73.094 13.2017 73.213 14.1804L70.4623 14.339C70.383 13.9159 70.2375 13.6117 69.9995 13.4133C69.7614 13.215 69.4441 13.1224 69.0341 13.1224C68.6903 13.1224 68.439 13.1885 68.2671 13.334C68.0952 13.4795 68.0158 13.6514 68.0158 13.863C68.0158 14.0084 68.0819 14.1539 68.2274 14.2729C68.3596 14.3919 68.6903 14.511 69.206 14.6168C70.4756 14.8945 71.3881 15.1722 71.9435 15.4499C72.4989 15.7276 72.8957 16.0847 73.1469 16.4946C73.3982 16.9046 73.5172 17.3807 73.5172 17.8964C73.5172 18.5048 73.3453 19.0602 73.0147 19.5627C72.6841 20.0785 72.208 20.462 71.6129 20.7265C71.0178 20.991 70.2508 21.1232 69.3383 21.1232C67.7381 21.1232 66.6272 20.8191 66.0057 20.1975C65.3973 19.576 65.0535 18.7957 64.9609 17.8436Z" fill="#225E63"/>
<path d="M74.2578 17.8436L77.035 17.6716C77.1011 18.1213 77.2201 18.4651 77.4053 18.7031C77.7094 19.0867 78.1326 19.2718 78.688 19.2718C79.098 19.2718 79.4286 19.1792 79.6534 18.9809C79.8782 18.7825 79.9973 18.5577 79.9973 18.3064C79.9973 18.0684 79.8915 17.8436 79.6799 17.6452C79.4683 17.4468 78.9657 17.2749 78.1855 17.103C76.9027 16.812 76.0035 16.4285 75.448 15.9524C74.9058 15.4764 74.6281 14.868 74.6281 14.1275C74.6281 13.6381 74.7736 13.1885 75.0513 12.7521C75.329 12.3157 75.7522 11.9851 76.3208 11.7338C76.8895 11.4825 77.6565 11.3635 78.6351 11.3635C79.8386 11.3635 80.7643 11.5883 81.3858 12.038C82.0206 12.4876 82.3909 13.2017 82.5099 14.1804L79.7592 14.339C79.6799 13.9159 79.5344 13.6117 79.2964 13.4133C79.0583 13.215 78.7409 13.1224 78.331 13.1224C77.9871 13.1224 77.7359 13.1885 77.5639 13.334C77.392 13.4795 77.3127 13.6514 77.3127 13.863C77.3127 14.0084 77.3788 14.1539 77.5243 14.2729C77.6565 14.3919 77.9871 14.511 78.5029 14.6168C79.7724 14.8945 80.6849 15.1722 81.2404 15.4499C81.7958 15.7276 82.1925 16.0847 82.4438 16.4946C82.6951 16.9046 82.8141 17.3807 82.8141 17.8964C82.8141 18.5048 82.6422 19.0602 82.3116 19.5627C81.9809 20.0785 81.5049 20.462 80.9098 20.7265C80.3146 20.991 79.5476 21.1232 78.6351 21.1232C77.035 21.1232 75.9241 20.8191 75.3025 20.1975C74.681 19.576 74.3372 18.7957 74.2578 17.8436Z" fill="#225E63"/>
</g>
<defs>
<clipPath id="clip0_39_145070">
<rect width="86.3046" height="36.7912" fill="white" transform="translate(0.460938 0.705078)"/>
</clipPath>
</defs>
</svg>
