<svg width="21" height="21" viewBox="0 0 21 21" fill="none" xmlns="http://www.w3.org/2000/svg">
<path d="M20.5781 10.1357C20.5781 4.61289 16.101 0.135742 10.5781 0.135742C5.05528 0.135742 0.578125 4.61289 0.578125 10.1357C0.578125 15.6586 5.05528 20.1357 10.5781 20.1357C16.101 20.1357 20.5781 15.6586 20.5781 10.1357Z" fill="#1F1F1F"/>
<path d="M8.16284 5.63055C8.16284 6.29809 7.5842 6.83923 6.87048 6.83923C6.15673 6.83923 5.57812 6.29809 5.57812 5.63055C5.57812 4.96302 6.15673 4.42188 6.87048 4.42188C7.5842 4.42188 8.16284 4.96302 8.16284 5.63055Z" fill="#FFFCF9"/>
<path d="M5.75488 7.72754H7.96401V14.4218H5.75488V7.72754Z" fill="#FFFCF9"/>
<path d="M11.5207 7.72706H9.31152V14.4213H11.5207C11.5207 14.4213 11.5207 12.3138 11.5207 10.9962C11.5207 10.2053 11.7907 9.41092 12.8682 9.41092C14.086 9.41092 14.0787 10.4459 14.073 11.2478C14.0655 12.2958 14.0832 13.3655 14.0832 14.4213H16.2924V10.8882C16.2737 8.63227 15.6858 7.59277 13.7519 7.59277C12.6034 7.59277 11.8915 8.1142 11.5207 8.58592V7.72706Z" fill="#FFFCF9"/>
</svg>
