<svg width="223" height="48" viewBox="0 0 223 48" fill="none" xmlns="http://www.w3.org/2000/svg">
<rect x="0.5" width="222" height="48" rx="8" fill="#2054D2"/>
<path d="M34.6636 23.322L27.7666 16.4065L36.5416 21.444L34.6636 23.322ZM25.9671 16C25.5606 16.2125 25.2891 16.6 25.2891 17.103V30.8935C25.2891 31.3965 25.5611 31.784 25.9671 31.9965L33.9861 23.9965L25.9671 16ZM39.2541 23.05L37.4136 21.9845L35.3606 24L37.4136 26.0155L39.2916 24.95C39.8541 24.5035 39.8541 23.497 39.2541 23.05ZM27.7671 31.594L36.5421 26.5565L34.6641 24.6785L27.7671 31.594Z" fill="#FFFCF4"/>
<line opacity="0.8" x1="44.7266" y1="19.9219" x2="44.7266" y2="28.0781" stroke="#DADADA" stroke-width="0.453125"/>
<path fill-rule="evenodd" clip-rule="evenodd" d="M58.9442 18.5543C59.5275 17.8783 59.9206 16.9368 59.813 16C58.9725 16.032 57.9557 16.5369 57.353 17.2121C56.8118 17.8113 56.3394 18.7687 56.4664 19.6871C57.404 19.7567 58.361 19.2311 58.9442 18.5543ZM61.0467 24.5C61.0701 26.9216 63.2632 27.7271 63.2875 27.7375C63.2697 27.7943 62.9372 28.8853 62.1323 30.0133C61.4358 30.9877 60.7134 31.9581 59.5752 31.9789C58.4572 31.9989 58.0972 31.3438 56.8183 31.3438C55.5401 31.3438 55.1405 31.958 54.0824 31.9988C52.9838 32.038 52.1465 30.9446 51.4452 29.9734C50.0101 27.9871 48.914 24.3601 50.3863 21.9121C51.1176 20.6969 52.424 19.9262 53.8429 19.907C54.9213 19.887 55.9397 20.6023 56.599 20.6023C57.2583 20.6023 58.496 19.7424 59.7969 19.8688C60.3413 19.8904 61.8702 20.0791 62.8515 21.4559C62.7722 21.5031 61.0273 22.476 61.0467 24.5Z" fill="#FFFCF4"/>
<path d="M77.652 29.5V18.972H80.916C84.42 18.972 86.676 20.988 86.676 24.108C86.676 27.388 84.388 29.5 80.788 29.5H77.652ZM78.996 28.236H80.852C83.588 28.236 85.316 26.636 85.316 24.108C85.316 21.756 83.636 20.236 80.98 20.236H78.996V28.236ZM91.7293 29.676C89.4573 29.676 87.9373 28.124 87.9373 25.788C87.9373 23.436 89.4573 21.868 91.7293 21.868C93.9853 21.868 95.5052 23.42 95.5052 25.772C95.5052 28.124 93.9853 29.676 91.7293 29.676ZM91.7293 28.492C93.2013 28.492 94.1773 27.404 94.1773 25.788C94.1773 24.156 93.2013 23.052 91.7293 23.052C90.2573 23.052 89.2653 24.14 89.2653 25.772C89.2653 27.404 90.2573 28.492 91.7293 28.492ZM98.5779 29.5L96.1779 22.044H97.5379L99.1539 27.084L99.4099 28.124L99.6659 27.084L101.25 22.044H102.61L104.194 27.084L104.45 28.108L104.706 27.084L106.306 22.044H107.554L105.154 29.5H103.65L102.162 24.764L101.89 23.644L101.602 24.764L100.082 29.5H98.5779ZM108.821 29.5V22.044H110.117V23.052C110.661 22.316 111.461 21.884 112.357 21.884C113.989 21.884 114.901 22.924 114.901 24.636V29.5H113.589V24.86C113.589 23.676 112.997 23.068 111.989 23.068C111.221 23.068 110.549 23.5 110.117 24.172V29.5H108.821ZM116.852 29.5V17.98H118.148V29.5H116.852ZM123.604 29.676C121.332 29.676 119.812 28.124 119.812 25.788C119.812 23.436 121.332 21.868 123.604 21.868C125.86 21.868 127.38 23.42 127.38 25.772C127.38 28.124 125.86 29.676 123.604 29.676ZM123.604 28.492C125.076 28.492 126.052 27.404 126.052 25.788C126.052 24.156 125.076 23.052 123.604 23.052C122.132 23.052 121.14 24.14 121.14 25.772C121.14 27.404 122.132 28.492 123.604 28.492ZM130.943 29.66C129.551 29.66 128.655 28.828 128.655 27.516C128.655 26.172 129.647 25.276 131.487 25.004L133.071 24.796V24.364C133.071 23.452 132.463 23.036 131.391 23.036C130.527 23.036 129.743 23.276 128.991 23.756V22.46C129.823 22.092 130.719 21.836 131.551 21.836C133.375 21.836 134.383 22.716 134.383 24.332V29.5H133.183L133.087 28.492C132.623 29.244 131.855 29.66 130.943 29.66ZM131.311 28.588C132.127 28.588 132.783 28.124 133.071 27.452V25.74L131.647 25.932C130.559 26.076 129.951 26.604 129.951 27.388C129.951 28.124 130.463 28.588 131.311 28.588ZM139.233 29.66C137.312 29.66 135.969 28.284 135.969 25.836C135.969 23.324 137.424 21.884 139.457 21.884C140.113 21.884 140.801 22.092 141.345 22.444V17.98H142.657V29.5H141.457L141.361 28.492C140.897 29.228 140.081 29.66 139.233 29.66ZM139.489 28.508C140.289 28.508 140.961 28.06 141.345 27.388V23.644C140.865 23.244 140.257 23.02 139.617 23.02C138.193 23.02 137.297 24.124 137.297 25.788C137.297 27.436 138.113 28.508 139.489 28.508ZM149.899 29.644C148.859 29.644 148.219 29.02 148.219 27.932V23.228H147.131V22.044H148.219V19.756H149.531V22.044H151.259V23.228H149.531V27.596C149.531 28.14 149.851 28.444 150.331 28.444C150.667 28.444 150.971 28.364 151.259 28.156V29.34C150.859 29.564 150.363 29.644 149.899 29.644ZM152.789 29.5V17.98H154.085V23.052C154.629 22.316 155.429 21.884 156.325 21.884C157.957 21.884 158.869 22.924 158.869 24.636V29.5H157.557V24.86C157.557 23.676 156.965 23.068 155.957 23.068C155.189 23.068 154.517 23.5 154.085 24.172V29.5H152.789ZM164.197 29.66C161.829 29.66 160.469 28.188 160.469 25.756C160.469 23.436 161.812 21.884 163.909 21.884C165.925 21.884 167.157 23.212 167.157 25.644V26.124H161.812C161.829 27.612 162.741 28.54 164.341 28.54C165.221 28.54 166.085 28.236 166.965 27.644V28.892C166.053 29.404 165.125 29.66 164.197 29.66ZM163.893 22.972C162.709 22.972 161.893 23.82 161.812 25.116H165.845C165.845 23.788 165.125 22.972 163.893 22.972ZM171.336 29.5L175.528 18.876H176.792L180.984 29.5H179.528L178.328 26.348H173.912L172.712 29.5H171.336ZM174.36 25.164H177.88L176.536 21.692L176.12 20.492L175.688 21.692L174.36 25.164ZM182.305 32.892V22.044H183.601V22.924C184.049 22.252 184.865 21.884 185.761 21.884C187.617 21.884 188.865 23.372 188.865 25.628C188.865 28.108 187.425 29.66 185.329 29.66C184.721 29.66 184.113 29.5 183.601 29.244V32.892H182.305ZM185.217 28.524C186.593 28.524 187.553 27.452 187.553 25.724C187.553 24.076 186.737 23.036 185.393 23.036C184.705 23.036 183.985 23.388 183.601 23.948V28.076C184.097 28.364 184.609 28.524 185.217 28.524ZM190.539 32.892V22.044H191.835V22.924C192.283 22.252 193.099 21.884 193.995 21.884C195.851 21.884 197.099 23.372 197.099 25.628C197.099 28.108 195.659 29.66 193.563 29.66C192.955 29.66 192.347 29.5 191.835 29.244V32.892H190.539ZM193.451 28.524C194.827 28.524 195.787 27.452 195.787 25.724C195.787 24.076 194.971 23.036 193.627 23.036C192.939 23.036 192.219 23.388 191.835 23.948V28.076C192.331 28.364 192.843 28.524 193.451 28.524Z" fill="#FFFCF4"/>
</svg>
