<svg width="14" height="10" viewBox="0 0 14 10" fill="none" xmlns="http://www.w3.org/2000/svg">
<path d="M7.00016 2.99967C5.9055 2.99967 5.00016 3.90567 5.00016 4.99967C5.00016 6.09434 5.9055 6.99967 7.00016 6.99967C8.09416 6.99967 9.00016 6.09434 9.00016 4.99967C9.00016 3.90567 8.09416 2.99967 7.00016 2.99967Z" fill="#A6A6A6"/>
<path d="M7.00016 0.333008C1.93883 0.333008 0.417708 4.74434 0.403783 4.78901L0.333496 4.99967L0.40312 5.21034C0.417708 5.25501 1.93883 9.66634 7.00016 9.66634C12.0615 9.66634 13.5826 5.25501 13.5965 5.21034L13.6668 4.99967L13.5972 4.78901C13.5826 4.74434 12.0615 0.333008 7.00016 0.333008ZM7.00016 8.33301C3.45199 8.33301 2.07741 5.76901 1.74454 4.99967C2.07874 4.22767 3.45398 1.66634 7.00016 1.66634C10.5483 1.66634 11.9229 4.23034 12.2558 4.99967C11.9216 5.77167 10.5463 8.33301 7.00016 8.33301Z" fill="#A6A6A6"/>
</svg>
