<svg width="40" height="16" viewBox="0 0 40 16" fill="none" xmlns="http://www.w3.org/2000/svg">
<g clip-path="url(#clip0_27_11196)">
<path d="M10.1655 7.322L3.26852 0.4065L12.0435 5.444L10.1655 7.322ZM1.46902 0C1.06252 0.2125 0.791016 0.6 0.791016 1.103V14.8935C0.791016 15.3965 1.06302 15.784 1.46902 15.9965L9.48802 7.9965L1.46902 0ZM14.756 7.05L12.9155 5.9845L10.8625 8L12.9155 10.0155L14.7935 8.95C15.356 8.5035 15.356 7.497 14.756 7.05ZM3.26902 15.594L12.044 10.5565L10.166 8.6785L3.26902 15.594Z" fill="#FFFCF4"/>
</g>
<line opacity="0.8" x1="20.25" y1="3.5" x2="20.25" y2="12.5" stroke="#DADADA" stroke-width="0.5"/>
<path fill-rule="evenodd" clip-rule="evenodd" d="M34.4567 2.5543C35.0399 1.87831 35.4331 0.936784 35.3255 0C34.485 0.032 33.4681 0.536917 32.8654 1.21211C32.3242 1.8113 31.8518 2.76872 31.9788 3.68711C32.9164 3.7567 33.8734 3.23108 34.4567 2.5543ZM36.5591 8.5C36.5826 10.9216 38.7757 11.7271 38.7999 11.7375C38.7822 11.7943 38.4497 12.8853 37.6448 14.0133C36.9482 14.9877 36.2258 15.9581 35.0876 15.9789C33.9697 15.9989 33.6097 15.3438 32.3307 15.3438C31.0526 15.3438 30.6529 15.958 29.5948 15.9988C28.4963 16.038 27.659 14.9446 26.9576 13.9734C25.5225 11.9871 24.4264 8.36007 25.8987 5.91211C26.63 4.69693 27.9365 3.92623 29.3554 3.90703C30.4337 3.88703 31.4522 4.60234 32.1115 4.60234C32.7708 4.60234 34.0085 3.74235 35.3093 3.86875C35.8537 3.89035 37.3827 4.07908 38.3639 5.45586C38.2846 5.50306 36.5397 6.47603 36.5591 8.5Z" fill="#FFFCF4"/>
<defs>
<clipPath id="clip0_27_11196">
<rect width="16" height="16" fill="white"/>
</clipPath>
</defs>
</svg>
