<svg width="98" height="44" viewBox="0 0 98 44" fill="none" xmlns="http://www.w3.org/2000/svg">
<path d="M45.663 4.23983H36.7764V26.3756H46.6734C46.6734 26.3756 58.8058 26.2161 58.8058 15.3087C58.8058 3.70805 45.663 4.23983 45.663 4.23983ZM46.3011 20.0435H44.2271V10.7315C46.0884 10.7315 51.1974 10.5188 51.1974 15.3885C51.1974 20.2563 46.3011 20.0435 46.3011 20.0435Z" fill="#2E317F"/>
<path d="M4.64294 4.23975H2.29736V33.078H4.64294V4.23975Z" fill="#2E317F"/>
<path d="M10.0142 4.23975V26.3756H17.5694V16.2658L26.0819 26.3756H32.6799V4.23975H25.231V14.1368L17.144 4.23975H10.0142Z" fill="#2E317F"/>
<path d="M69.8726 4.23584H62.3174V26.3755H69.8726V4.23584Z" fill="#2E317F"/>
<path d="M89.2946 13.2327L95.414 9.61462C95.414 9.61462 92.9127 3.38886 84.2939 3.92065C75.6732 4.45245 73.4092 12.2052 73.3865 15.3048C73.3675 17.808 74.5127 26.3717 84.3907 26.7459C92.8063 27.065 95.7331 20.9304 95.7331 20.9304L89.4542 17.4338C89.4542 17.4338 88.3906 20.467 84.9852 20.3606C81.5798 20.2542 80.7822 16.3494 80.9417 15.3219C81.1012 14.2944 81.312 10.4503 85.3575 10.5168C88.6033 10.5718 89.2946 13.2327 89.2946 13.2327Z" fill="#2E317F"/>
<path d="M9.76562 33.1101V29.4341H10.2836L11.4617 31.2932C11.7341 31.7249 11.9471 32.1105 12.1217 32.4885L12.1332 32.4827C12.0891 31.9916 12.0795 31.5445 12.0795 30.9728V29.4341H12.5265V33.1101H12.0469L10.8803 31.2452C10.6232 30.8366 10.3777 30.4164 10.1935 30.0173L10.1762 30.0231C10.2031 30.4874 10.2146 30.9287 10.2146 31.5388V33.1101H9.76562Z" fill="#4070A0"/>
<path d="M13.9273 29.7275C13.933 29.8906 13.8122 30.023 13.6222 30.023C13.4534 30.023 13.3325 29.8925 13.3325 29.7275C13.3325 29.5587 13.4572 29.4282 13.6318 29.4282C13.8141 29.4282 13.9273 29.5587 13.9273 29.7275ZM13.3939 33.11V30.47H13.8736V33.11H13.3939Z" fill="#4070A0"/>
<path d="M16.943 30.4701C16.9314 30.6619 16.9218 30.873 16.9218 31.1953V32.7283C16.9218 33.3346 16.8029 33.7049 16.5458 33.9332C16.2887 34.173 15.9184 34.2497 15.5865 34.2497C15.2699 34.2497 14.9207 34.173 14.7078 34.031L14.8267 33.6665C15.0013 33.7759 15.2738 33.8737 15.6018 33.8737C16.093 33.8737 16.4537 33.6166 16.4537 32.9528V32.6573H16.4422C16.2945 32.9029 16.0105 33.0986 15.6018 33.0986C14.9476 33.0986 14.4775 32.5422 14.4775 31.8112C14.4775 30.9171 15.0608 30.4087 15.6671 30.4087C16.1256 30.4087 16.377 30.6485 16.4902 30.8672H16.5017L16.5228 30.4682H16.943V30.4701ZM16.448 31.5119C16.448 31.4294 16.4422 31.3584 16.4211 31.2932C16.3348 31.015 16.0988 30.7867 15.7496 30.7867C15.291 30.7867 14.9649 31.1742 14.9649 31.7843C14.9649 32.3024 15.2258 32.734 15.7438 32.734C16.0393 32.734 16.306 32.5479 16.4096 32.2429C16.4364 32.1604 16.448 32.0683 16.448 31.9858V31.5119Z" fill="#4070A0"/>
<path d="M17.9869 31.8784C17.9984 32.5269 18.4128 32.7955 18.8925 32.7955C19.2359 32.7955 19.4431 32.736 19.6234 32.6593L19.7059 33.0027C19.5371 33.0794 19.2474 33.1658 18.8272 33.1658C18.0137 33.1658 17.5283 32.6305 17.5283 31.8342C17.5283 31.038 17.9965 30.4106 18.7658 30.4106C19.6273 30.4106 19.8575 31.1685 19.8575 31.6539C19.8575 31.7517 19.846 31.8285 19.8402 31.8784H17.9869ZM19.3932 31.533C19.399 31.228 19.2685 30.7541 18.7275 30.7541C18.242 30.7541 18.0291 31.2011 17.9907 31.533H19.3932Z" fill="#4070A0"/>
<path d="M20.4523 31.2932C20.4523 30.9824 20.4465 30.7157 20.4312 30.4701H20.8513L20.8686 30.9881H20.8897C21.0106 30.6332 21.2984 30.4106 21.6207 30.4106C21.6744 30.4106 21.7128 30.4164 21.7569 30.426V30.8788C21.707 30.8673 21.6591 30.8634 21.5938 30.8634C21.2562 30.8634 21.0163 31.1205 20.9511 31.4793C20.9396 31.5445 20.93 31.6213 20.93 31.7038V33.1101H20.4561V31.2932H20.4523Z" fill="#4070A0"/>
<path d="M22.793 29.7275C22.7988 29.8906 22.6779 30.023 22.488 30.023C22.3191 30.023 22.1982 29.8925 22.1982 29.7275C22.1982 29.5587 22.323 29.4282 22.4975 29.4282C22.6779 29.4282 22.793 29.5587 22.793 29.7275ZM22.2577 33.11V30.47H22.7374V33.11H22.2577Z" fill="#4070A0"/>
<path d="M24.9953 33.1102L24.957 32.7782H24.9397C24.792 32.9855 24.508 33.1716 24.132 33.1716C23.5967 33.1716 23.3242 32.7955 23.3242 32.4137C23.3242 31.7748 23.8921 31.4256 24.9109 31.4314V31.3777C24.9109 31.1589 24.8514 30.7675 24.3104 30.7675C24.0648 30.7675 23.8077 30.8443 23.6235 30.9632L23.5142 30.6467C23.7329 30.5047 24.0495 30.4126 24.3814 30.4126C25.1891 30.4126 25.3848 30.9632 25.3848 31.4928V32.4789C25.3848 32.7073 25.3963 32.9317 25.4289 33.1121H24.9953V33.1102ZM24.9243 31.7633C24.4006 31.7518 23.8058 31.8458 23.8058 32.3581C23.8058 32.6689 24.013 32.8166 24.2586 32.8166C24.602 32.8166 24.8207 32.5979 24.8975 32.3753C24.9128 32.3255 24.9243 32.2717 24.9243 32.2218V31.7633Z" fill="#4070A0"/>
<path d="M27.3359 29.484C27.6256 29.4398 27.9691 29.4072 28.3451 29.4072C29.0262 29.4072 29.5116 29.5646 29.834 29.8658C30.162 30.1651 30.352 30.591 30.352 31.1858C30.352 31.7863 30.1659 32.2775 29.8225 32.6151C29.479 32.9586 28.9111 33.1447 28.1974 33.1447C27.8597 33.1447 27.5758 33.1274 27.3359 33.1005V29.484ZM27.8118 32.7341C27.9307 32.7552 28.1053 32.761 28.2914 32.761C29.3063 32.761 29.857 32.193 29.857 31.2011C29.8627 30.3339 29.3716 29.7833 28.3681 29.7833C28.1226 29.7833 27.9365 29.8044 27.8118 29.8332V32.7341Z" fill="#4070A0"/>
<path d="M31.2422 31.8784C31.2538 32.5269 31.6682 32.7955 32.1478 32.7955C32.4913 32.7955 32.6985 32.736 32.8788 32.6593L32.9613 33.0027C32.7925 33.0794 32.5028 33.1658 32.0826 33.1658C31.2691 33.1658 30.7837 32.6305 30.7837 31.8342C30.7837 31.038 31.2518 30.4106 32.0212 30.4106C32.8826 30.4106 33.1129 31.1685 33.1129 31.6539C33.1129 31.7517 33.1014 31.8285 33.0956 31.8784H31.2422ZM32.6505 31.533C32.6563 31.228 32.5258 30.7541 31.9847 30.7541C31.4993 30.7541 31.2864 31.2011 31.248 31.533H32.6505Z" fill="#4070A0"/>
<path d="M33.7081 31.3316C33.7081 30.9939 33.6966 30.7215 33.687 30.4701H34.1187L34.1398 30.9229H34.1513C34.347 30.6006 34.6578 30.4106 35.0895 30.4106C35.7284 30.4106 36.2081 30.9498 36.2081 31.7517C36.2081 32.7015 35.6306 33.1696 35.0089 33.1696C34.6597 33.1696 34.3547 33.0161 34.1954 32.7552H34.1839V34.1903H33.71V31.3316H33.7081ZM34.1839 32.0357C34.1839 32.1067 34.1954 32.1719 34.205 32.2314C34.2914 32.5633 34.5811 32.7936 34.9245 32.7936C35.431 32.7936 35.7265 32.3791 35.7265 31.7729C35.7265 31.2433 35.4483 30.7905 34.9418 30.7905C34.6137 30.7905 34.3086 31.0246 34.2165 31.3853C34.2012 31.4448 34.1839 31.5158 34.1839 31.581V32.0357Z" fill="#4070A0"/>
<path d="M39.2006 31.769C39.2006 32.7456 38.5253 33.1715 37.8864 33.1715C37.1727 33.1715 36.6201 32.6477 36.6201 31.8131C36.6201 30.9287 37.1976 30.4106 37.9286 30.4106C38.6884 30.4106 39.2006 30.9613 39.2006 31.769ZM37.1074 31.7959C37.1074 32.3734 37.4394 32.8108 37.9094 32.8108C38.368 32.8108 38.7114 32.3791 38.7114 31.7863C38.7114 31.3392 38.4869 30.7713 37.9209 30.7713C37.353 30.7694 37.1074 31.2932 37.1074 31.7959Z" fill="#4070A0"/>
<path d="M39.742 32.619C39.8839 32.7111 40.1353 32.8108 40.3751 32.8108C40.7243 32.8108 40.8874 32.6362 40.8874 32.4175C40.8874 32.1892 40.7512 32.0626 40.3962 31.9321C39.9223 31.7633 39.6978 31.5004 39.6978 31.1858C39.6978 30.7598 40.0413 30.4106 40.6092 30.4106C40.8759 30.4106 41.1118 30.4874 41.2577 30.5737L41.1368 30.9229C41.0332 30.8577 40.8432 30.7694 40.5977 30.7694C40.3137 30.7694 40.1564 30.9325 40.1564 31.1301C40.1564 31.3488 40.3137 31.4467 40.6591 31.5772C41.1176 31.7517 41.3517 31.9801 41.3517 32.3734C41.3517 32.8377 40.991 33.1638 40.3636 33.1638C40.0739 33.1638 39.8072 33.0929 39.6211 32.9835L39.742 32.619Z" fill="#4070A0"/>
<path d="M42.503 29.7275C42.5087 29.8906 42.3879 30.023 42.1979 30.023C42.0291 30.023 41.9082 29.8925 41.9082 29.7275C41.9082 29.5587 42.0329 29.4282 42.2075 29.4282C42.3879 29.4282 42.503 29.5587 42.503 29.7275ZM41.9677 33.11V30.47H42.4473V33.11H41.9677Z" fill="#4070A0"/>
<path d="M43.8226 29.7122V30.47H44.5094V30.8345H43.8226V32.2581C43.8226 32.5862 43.9147 32.7704 44.1833 32.7704C44.308 32.7704 44.402 32.7551 44.4615 32.7378L44.4826 33.0985C44.3905 33.1369 44.2427 33.1637 44.0566 33.1637C43.8322 33.1637 43.6537 33.0927 43.5386 32.9623C43.4024 32.8203 43.3525 32.5862 43.3525 32.2754V30.8365H42.9438V30.4719H43.3525V29.8388L43.8226 29.7122Z" fill="#4070A0"/>
<path d="M46.699 29.4341V33.1101H46.2251V29.4341H46.699Z" fill="#4070A0"/>
<path d="M47.566 31.1838C47.566 30.9114 47.5603 30.6869 47.5449 30.4701H47.9709L47.9977 30.9056H48.0092C48.1397 30.6543 48.4447 30.4087 48.8822 30.4087C49.2467 30.4087 49.8146 30.6274 49.8146 31.533V33.1101H49.335V31.5886C49.335 31.1627 49.1777 30.8097 48.7249 30.8097C48.4083 30.8097 48.1627 31.0342 48.0821 31.3008C48.061 31.3603 48.0495 31.4428 48.0495 31.5253V33.112H47.5699V31.1838H47.566Z" fill="#4070A0"/>
<path d="M50.5281 32.619C50.6701 32.7111 50.9215 32.8108 51.1613 32.8108C51.5105 32.8108 51.6735 32.6362 51.6735 32.4175C51.6735 32.1892 51.5373 32.0626 51.1824 31.9321C50.7085 31.7633 50.484 31.5004 50.484 31.1858C50.484 30.7598 50.8274 30.4106 51.3953 30.4106C51.662 30.4106 51.898 30.4874 52.0438 30.5737L51.9249 30.9229C51.8213 30.8577 51.6294 30.7694 51.3858 30.7694C51.1018 30.7694 50.9445 30.9325 50.9445 31.1301C50.9445 31.3488 51.1018 31.4467 51.4471 31.5772C51.9057 31.7517 52.1398 31.9801 52.1398 32.3734C52.1398 32.8377 51.7791 33.1638 51.1517 33.1638C50.862 33.1638 50.5953 33.0929 50.4092 32.9835L50.5281 32.619Z" fill="#4070A0"/>
<path d="M54.9624 32.3905C54.9624 32.6629 54.9681 32.9028 54.9835 33.11H54.5575L54.5307 32.6783H54.5192C54.3945 32.8913 54.1163 33.1694 53.6462 33.1694C53.2318 33.1694 52.7349 32.9411 52.7349 32.0125V30.47H53.2145V31.9319C53.2145 32.4346 53.368 32.7723 53.8035 32.7723C54.1259 32.7723 54.3484 32.5478 54.4367 32.3368C54.4635 32.2658 54.4808 32.1794 54.4808 32.0912V30.4719H54.9604V32.3905H54.9624Z" fill="#4070A0"/>
<path d="M55.7584 31.2932C55.7584 30.9824 55.7527 30.7157 55.7373 30.4701H56.1575L56.1728 30.9881H56.1939C56.3129 30.6332 56.6026 30.4106 56.9249 30.4106C56.9786 30.4106 57.017 30.4164 57.0611 30.426V30.8788C57.0113 30.8673 56.9633 30.8634 56.8981 30.8634C56.5604 30.8634 56.3206 31.1205 56.2553 31.4793C56.2438 31.5445 56.2342 31.6213 56.2342 31.7038V33.1101H55.7603V31.2932H55.7584Z" fill="#4070A0"/>
<path d="M58.9777 33.1102L58.9394 32.7782H58.9221C58.7744 32.9855 58.4904 33.1716 58.1144 33.1716C57.5791 33.1716 57.3066 32.7955 57.3066 32.4137C57.3066 31.7748 57.8745 31.4256 58.8933 31.4314V31.3777C58.8933 31.1589 58.8338 30.7675 58.2928 30.7675C58.0472 30.7675 57.7901 30.8443 57.6059 30.9632L57.4966 30.6467C57.7153 30.5047 58.0319 30.4126 58.3638 30.4126C59.1715 30.4126 59.3672 30.9632 59.3672 31.4928V32.4789C59.3672 32.7073 59.3787 32.9317 59.4114 33.1121H58.9777V33.1102ZM58.9068 31.7633C58.383 31.7518 57.7882 31.8458 57.7882 32.3581C57.7882 32.6689 57.9954 32.8166 58.241 32.8166C58.5844 32.8166 58.8032 32.5979 58.8799 32.3753C58.8972 32.3255 58.9068 32.2717 58.9068 32.2218V31.7633Z" fill="#4070A0"/>
<path d="M60.1461 31.1838C60.1461 30.9114 60.1403 30.6869 60.125 30.4701H60.5509L60.5778 30.9056H60.5893C60.7198 30.6543 61.0248 30.4087 61.4623 30.4087C61.8287 30.4087 62.3947 30.6274 62.3947 31.533V33.1101H61.9151V31.5886C61.9151 31.1627 61.7577 30.8097 61.3049 30.8097C60.9884 30.8097 60.7428 31.0342 60.6622 31.3008C60.6411 31.3603 60.6296 31.4428 60.6296 31.5253V33.112H60.1499V31.1838H60.1461Z" fill="#4070A0"/>
<path d="M65.054 33.0121C64.9293 33.0774 64.6511 33.1656 64.2962 33.1656C63.5 33.1656 62.9819 32.6265 62.9819 31.8188C62.9819 31.0053 63.5383 30.4163 64.3998 30.4163C64.6837 30.4163 64.9351 30.4872 65.0655 30.5525L64.9562 30.9228C64.8411 30.8575 64.6607 30.7981 64.3998 30.7981C63.7935 30.7981 63.4673 31.2451 63.4673 31.7957C63.4673 32.4059 63.8607 32.7819 64.3844 32.7819C64.6569 32.7819 64.8372 32.7109 64.9735 32.6514L65.054 33.0121Z" fill="#4070A0"/>
<path d="M65.8521 31.8784C65.8636 32.5269 66.278 32.7955 66.7577 32.7955C67.1011 32.7955 67.3083 32.736 67.4887 32.6593L67.5712 33.0027C67.4023 33.0794 67.1126 33.1658 66.6925 33.1658C65.879 33.1658 65.3936 32.6305 65.3936 31.8342C65.3936 31.038 65.8636 30.4106 66.6311 30.4106C67.4925 30.4106 67.7227 31.1685 67.7227 31.6539C67.7227 31.7517 67.7112 31.8285 67.7074 31.8784H65.8521ZM67.2584 31.533C67.2642 31.228 67.1337 30.7541 66.5927 30.7541C66.1073 30.7541 65.8943 31.2011 65.8559 31.533H67.2584Z" fill="#4070A0"/>
<path d="M72.0587 32.9892C71.8841 33.0755 71.535 33.1638 71.0879 33.1638C70.0519 33.1638 69.271 32.5095 69.271 31.3046C69.271 30.1535 70.0519 29.3745 71.1915 29.3745C71.6501 29.3745 71.9379 29.4724 72.0645 29.5376L71.9494 29.9252C71.769 29.8369 71.5138 29.7717 71.2069 29.7717C70.3454 29.7717 69.7718 30.3223 69.7718 31.2874C69.7718 32.1872 70.2898 32.7647 71.1838 32.7647C71.4736 32.7647 71.7671 32.7052 71.959 32.6112L72.0587 32.9892Z" fill="#4070A0"/>
<path d="M74.9677 31.769C74.9677 32.7456 74.2905 33.1715 73.6535 33.1715C72.9398 33.1715 72.3872 32.6477 72.3872 31.8131C72.3872 30.9287 72.9647 30.4106 73.6957 30.4106C74.4555 30.4106 74.9677 30.9613 74.9677 31.769ZM72.8726 31.7959C72.8726 32.3734 73.2045 32.8108 73.6746 32.8108C74.1331 32.8108 74.4766 32.3791 74.4766 31.7863C74.4766 31.3392 74.2521 30.7713 73.6861 30.7713C73.1182 30.7694 72.8726 31.2932 72.8726 31.7959Z" fill="#4070A0"/>
<path d="M75.5738 31.2932C75.5738 30.9824 75.5681 30.7157 75.5527 30.4701H75.9729L75.9883 30.9881H76.0094C76.1283 30.6332 76.418 30.4106 76.7404 30.4106C76.7941 30.4106 76.8325 30.4164 76.8766 30.426V30.8788C76.8267 30.8673 76.7787 30.8634 76.7135 30.8634C76.3758 30.8634 76.136 31.1205 76.0708 31.4793C76.0592 31.5445 76.0497 31.6213 76.0497 31.7038V33.1101H75.5758V31.2932H75.5738Z" fill="#4070A0"/>
<path d="M77.379 31.3316C77.379 30.9939 77.3675 30.7215 77.3579 30.4701H77.7896L77.8107 30.9229H77.8222C78.0179 30.6006 78.3287 30.4106 78.7604 30.4106C79.3993 30.4106 79.879 30.9498 79.879 31.7517C79.879 32.7015 79.3015 33.1696 78.6798 33.1696C78.3306 33.1696 78.0256 33.0161 77.8663 32.7552H77.8548V34.1903H77.3809V31.3316H77.379ZM77.8529 32.0357C77.8529 32.1067 77.8644 32.1719 77.874 32.2314C77.9623 32.5633 78.2501 32.7936 78.5935 32.7936C79.1 32.7936 79.3955 32.3791 79.3955 31.7729C79.3955 31.2433 79.1173 30.7905 78.6108 30.7905C78.2827 30.7905 77.9776 31.0246 77.8855 31.3853C77.8702 31.4448 77.8529 31.5158 77.8529 31.581V32.0357Z" fill="#4070A0"/>
<path d="M82.8725 31.769C82.8725 32.7456 82.1953 33.1715 81.5583 33.1715C80.8446 33.1715 80.292 32.6477 80.292 31.8131C80.292 30.9287 80.8695 30.4106 81.6005 30.4106C82.3603 30.4106 82.8725 30.9613 82.8725 31.769ZM80.7774 31.7959C80.7774 32.3734 81.1093 32.8108 81.5794 32.8108C82.0379 32.8108 82.3814 32.3791 82.3814 31.7863C82.3814 31.3392 82.1569 30.7713 81.5909 30.7713C81.023 30.7694 80.7774 31.2932 80.7774 31.7959Z" fill="#4070A0"/>
<path d="M83.4786 31.2932C83.4786 30.9824 83.4729 30.7157 83.4575 30.4701H83.8777L83.893 30.9881H83.9141C84.0331 30.6332 84.3228 30.4106 84.6451 30.4106C84.6989 30.4106 84.7372 30.4164 84.7814 30.426V30.8788C84.7315 30.8673 84.6835 30.8634 84.6183 30.8634C84.2806 30.8634 84.0408 31.1205 83.9755 31.4793C83.964 31.5445 83.9544 31.6213 83.9544 31.7038V33.1101H83.4805V31.2932H83.4786Z" fill="#4070A0"/>
<path d="M86.696 33.1102L86.6576 32.7782H86.6404C86.4926 32.9855 86.2087 33.1716 85.8326 33.1716C85.2973 33.1716 85.0249 32.7955 85.0249 32.4137C85.0249 31.7748 85.5928 31.4256 86.6116 31.4314V31.3777C86.6116 31.1589 86.5521 30.7675 86.0111 30.7675C85.7655 30.7675 85.5084 30.8443 85.3242 30.9632L85.2148 30.6467C85.4336 30.5047 85.7501 30.4126 86.0821 30.4126C86.8898 30.4126 87.0855 30.9632 87.0855 31.4928V32.4789C87.0855 32.7073 87.097 32.9317 87.1296 33.1121H86.696V33.1102ZM86.625 31.7633C86.1012 31.7518 85.5065 31.8458 85.5065 32.3581C85.5065 32.6689 85.7137 32.8166 85.9593 32.8166C86.3027 32.8166 86.5214 32.5979 86.5982 32.3753C86.6154 32.3255 86.625 32.2717 86.625 32.2218V31.7633Z" fill="#4070A0"/>
<path d="M88.4207 29.7122V30.47H89.1076V30.8345H88.4207V32.2581C88.4207 32.5862 88.5128 32.7704 88.7814 32.7704C88.9061 32.7704 89.0001 32.7551 89.0596 32.7378L89.0807 33.0985C88.9886 33.1369 88.8409 33.1637 88.6548 33.1637C88.4303 33.1637 88.2519 33.0927 88.1368 32.9623C88.0005 32.8203 87.9507 32.5862 87.9507 32.2754V30.8365H87.542V30.4719H87.9507V29.8388L88.4207 29.7122Z" fill="#4070A0"/>
<path d="M90.1822 29.7275C90.1879 29.8906 90.0671 30.023 89.8771 30.023C89.7083 30.023 89.5874 29.8925 89.5874 29.7275C89.5874 29.5587 89.7121 29.4282 89.8867 29.4282C90.069 29.4282 90.1822 29.5587 90.1822 29.7275ZM89.6488 33.11V30.47H90.1285V33.11H89.6488Z" fill="#4070A0"/>
<path d="M93.3134 31.769C93.3134 32.7456 92.6362 33.1715 91.9992 33.1715C91.2855 33.1715 90.7329 32.6477 90.7329 31.8131C90.7329 30.9287 91.3104 30.4106 92.0414 30.4106C92.8012 30.4106 93.3134 30.9613 93.3134 31.769ZM91.2202 31.7959C91.2202 32.3734 91.5522 32.8108 92.0222 32.8108C92.4808 32.8108 92.8242 32.3791 92.8242 31.7863C92.8242 31.3392 92.5997 30.7713 92.0337 30.7713C91.4658 30.7694 91.2202 31.2932 91.2202 31.7959Z" fill="#4070A0"/>
<path d="M93.9196 31.1838C93.9196 30.9114 93.9138 30.6869 93.8984 30.4701H94.3244L94.3512 30.9056H94.3627C94.4932 30.6543 94.7983 30.4087 95.2357 30.4087C95.6022 30.4087 96.1682 30.6274 96.1682 31.533V33.1101H95.6885V31.5886C95.6885 31.1627 95.5312 30.8097 95.0784 30.8097C94.7618 30.8097 94.5162 31.0342 94.4356 31.3008C94.4145 31.3603 94.403 31.4428 94.403 31.5253V33.112H93.9234V31.1838H93.9196Z" fill="#4070A0"/>
<path d="M33.7656 35.7723C33.9759 35.7364 34.2531 35.7078 34.6044 35.7078C35.0369 35.7078 35.3523 35.8081 35.5531 35.9897C35.7394 36.1498 35.8494 36.396 35.8494 36.6971C35.8494 37.0029 35.7586 37.2443 35.5889 37.4187C35.3571 37.6649 34.9819 37.7891 34.5542 37.7891C34.4228 37.7891 34.3033 37.7843 34.2029 37.7581V39.113H33.7656V35.7723ZM34.2029 37.4044C34.2985 37.4307 34.418 37.4402 34.5638 37.4402C35.0895 37.4402 35.4121 37.1845 35.4121 36.7186C35.4121 36.2717 35.0966 36.0566 34.6139 36.0566C34.4228 36.0566 34.277 36.071 34.2029 36.0925V37.4044Z" fill="#54879A"/>
<path d="M36.3419 37.4426C36.3419 37.1558 36.3371 36.9121 36.3228 36.6851H36.7099L36.7242 37.1606H36.7433C36.8533 36.8356 37.1185 36.6301 37.4148 36.6301C37.465 36.6301 37.5008 36.6349 37.5391 36.6445V37.0603C37.4937 37.0507 37.4483 37.0459 37.3885 37.0459C37.0779 37.0459 36.8556 37.2825 36.7959 37.6123C36.7863 37.672 36.7768 37.7413 36.7768 37.8178V39.1129H36.3395V37.4426H36.3419Z" fill="#54879A"/>
<path d="M40.1292 37.8799C40.1292 38.7784 39.5079 39.1703 38.9201 39.1703C38.2629 39.1703 37.7563 38.6876 37.7563 37.9205C37.7563 37.108 38.2892 36.6301 38.9607 36.6301C39.6585 36.6301 40.1292 37.1367 40.1292 37.8799ZM38.2032 37.9062C38.2032 38.4391 38.5091 38.8405 38.9416 38.8405C39.3622 38.8405 39.68 38.4438 39.68 37.8966C39.68 37.4856 39.4745 36.9623 38.9535 36.9623C38.4326 36.9623 38.2032 37.4426 38.2032 37.9062Z" fill="#54879A"/>
<path d="M41.2188 35.9897V36.6875H41.8497V37.0245H41.2188V38.334C41.2188 38.6351 41.3048 38.8047 41.5486 38.8047C41.6633 38.8047 41.7493 38.7904 41.8043 38.7737L41.8234 39.1058C41.7374 39.1416 41.6035 39.1655 41.4315 39.1655C41.226 39.1655 41.0611 39.101 40.956 38.9792C40.8293 38.8477 40.7863 38.6327 40.7863 38.3459V37.0221H40.4111V36.6851H40.7863V36.1021L41.2188 35.9897Z" fill="#54879A"/>
<path d="M42.5641 37.9803C42.5736 38.5777 42.956 38.8238 43.3981 38.8238C43.7135 38.8238 43.9046 38.7689 44.0695 38.6996L44.1436 39.015C43.9883 39.0843 43.723 39.1656 43.3359 39.1656C42.588 39.1656 42.1411 38.6733 42.1411 37.9421C42.1411 37.2109 42.5736 36.6326 43.281 36.6326C44.0743 36.6326 44.2846 37.3303 44.2846 37.7772C44.2846 37.868 44.275 37.9373 44.2703 37.9827H42.5641V37.9803ZM43.8569 37.6649C43.8616 37.3829 43.7422 36.948 43.2451 36.948C42.7983 36.948 42.6023 37.359 42.5689 37.6649H43.8569Z" fill="#54879A"/>
<path d="M46.5617 39.0246C46.447 39.0844 46.1913 39.1656 45.8639 39.1656C45.1303 39.1656 44.6548 38.6686 44.6548 37.9254C44.6548 37.1775 45.1662 36.635 45.9595 36.635C46.22 36.635 46.4518 36.6995 46.5713 36.7593L46.4709 37.101C46.3657 37.0412 46.2009 36.9863 45.9595 36.9863C45.4027 36.9863 45.1016 37.3973 45.1016 37.9039C45.1016 38.4655 45.4625 38.812 45.9452 38.812C46.1961 38.812 46.361 38.7474 46.4876 38.6925L46.5617 39.0246Z" fill="#54879A"/>
<path d="M47.6753 35.9897V36.6875H48.3086V37.0245H47.6753V38.334C47.6753 38.6351 47.7613 38.8047 48.0075 38.8047C48.1222 38.8047 48.2082 38.7904 48.2632 38.7737L48.2823 39.1058C48.1963 39.1416 48.0624 39.1655 47.8904 39.1655C47.6849 39.1655 47.52 39.101 47.4125 38.9792C47.2882 38.8477 47.2428 38.6327 47.2428 38.3459V37.0221H46.8652V36.6851H47.2428V36.1021L47.6753 35.9897Z" fill="#54879A"/>
<path d="M49.2982 36.0041C49.303 36.1546 49.1931 36.2741 49.0162 36.2741C48.8609 36.2741 48.751 36.1546 48.751 36.0041C48.751 35.8488 48.8657 35.7293 49.0258 35.7293C49.1931 35.7269 49.2982 35.8488 49.2982 36.0041ZM48.8059 39.1154V36.6875H49.248V39.1154H48.8059Z" fill="#54879A"/>
<path d="M49.9791 37.3422C49.9791 37.0913 49.9743 36.8858 49.96 36.6851H50.3519L50.3758 37.0865H50.3853C50.5048 36.8548 50.7868 36.6301 51.1882 36.6301C51.5252 36.6301 52.0461 36.8308 52.0461 37.6624V39.1129H51.604V37.7126C51.604 37.3207 51.4582 36.9957 51.0425 36.9957C50.7509 36.9957 50.5263 37.2012 50.4498 37.4474C50.4307 37.5023 50.4188 37.5788 50.4188 37.6529V39.1129H49.9767V37.3422H49.9791Z" fill="#54879A"/>
<path d="M54.8566 36.685C54.847 36.8595 54.8375 37.0554 54.8375 37.3517V38.7616C54.8375 39.3184 54.7276 39.6601 54.491 39.8704C54.2544 40.0902 53.9127 40.1619 53.6068 40.1619C53.3153 40.1619 52.9951 40.0926 52.7992 39.9612L52.9091 39.6243C53.0692 39.7246 53.3201 39.8154 53.6212 39.8154C54.0728 39.8154 54.405 39.5789 54.405 38.9671V38.6971H54.3954C54.2592 38.9217 53.9987 39.1033 53.6236 39.1033C53.0214 39.1033 52.5889 38.5919 52.5889 37.9181C52.5889 37.096 53.1265 36.6277 53.6833 36.6277C54.1039 36.6277 54.3357 36.8475 54.4408 37.0483H54.4504L54.4695 36.6826H54.8566V36.685ZM54.4002 37.6433C54.4002 37.5692 54.3954 37.5023 54.3763 37.4425C54.2951 37.1869 54.08 36.9766 53.7598 36.9766C53.3392 36.9766 53.0381 37.3326 53.0381 37.8942C53.0381 38.3697 53.2795 38.7664 53.755 38.7664C54.025 38.7664 54.2712 38.5967 54.3667 38.3148C54.393 38.2383 54.4026 38.1546 54.4026 38.0782V37.6433H54.4002Z" fill="#54879A"/>
<path d="M56.7942 36.6851L57.3271 38.1188C57.3821 38.2789 57.4418 38.4701 57.4824 38.6159H57.492C57.5374 38.4701 57.5876 38.2837 57.6473 38.1093L58.13 36.6851H58.596L57.9341 38.4151C57.6186 39.2467 57.4012 39.6745 57.1001 39.9349C56.885 40.1261 56.6676 40.2002 56.5577 40.2217L56.4477 39.8513C56.5577 39.8155 56.7034 39.7462 56.8348 39.6362C56.9543 39.5406 57.1049 39.371 57.2052 39.144C57.2244 39.0986 57.2411 39.0627 57.2411 39.0388C57.2411 39.0125 57.2315 38.9791 57.21 38.9241L56.3115 36.6875H56.7942V36.6851Z" fill="#54879A"/>
<path d="M61.1434 37.8799C61.1434 38.7784 60.5221 39.1703 59.9342 39.1703C59.2771 39.1703 58.7705 38.6876 58.7705 37.9205C58.7705 37.108 59.3034 36.6301 59.9749 36.6301C60.6726 36.6301 61.1434 37.1367 61.1434 37.8799ZM59.2174 37.9062C59.2174 38.4391 59.5232 38.8405 59.9558 38.8405C60.3763 38.8405 60.6942 38.4438 60.6942 37.8966C60.6942 37.4856 60.4886 36.9623 59.9677 36.9623C59.4468 36.9623 59.2174 37.4426 59.2174 37.9062Z" fill="#54879A"/>
<path d="M63.7339 38.451C63.7339 38.7019 63.7387 38.9217 63.753 39.1129H63.3611L63.3348 38.7162H63.3253C63.2106 38.9122 62.9549 39.1679 62.5224 39.1679C62.14 39.1679 61.6836 38.9576 61.6836 38.1045V36.6851H62.1257V38.0304C62.1257 38.4916 62.2667 38.8023 62.6681 38.8023C62.9644 38.8023 63.1699 38.5968 63.2512 38.4008C63.2751 38.3363 63.2918 38.255 63.2918 38.1762V36.6851H63.7339V38.451Z" fill="#54879A"/>
<path d="M64.4674 37.4426C64.4674 37.1558 64.4626 36.9121 64.4482 36.6851H64.8354L64.8497 37.1606H64.8688C64.9787 36.8356 65.244 36.6301 65.5403 36.6301C65.5905 36.6301 65.6263 36.6349 65.6669 36.6445V37.0603C65.6215 37.0507 65.5761 37.0459 65.5164 37.0459C65.2057 37.0459 64.9835 37.2825 64.9238 37.6123C64.9142 37.672 64.9047 37.7413 64.9047 37.8178V39.1129H64.4674V37.4426Z" fill="#54879A"/>
<path d="M67.1509 39.1155C67.1604 38.9506 67.17 38.7044 67.17 38.4894V35.5549H67.6073V37.0795H67.6169C67.7722 36.8095 68.0542 36.6326 68.4437 36.6326C69.0458 36.6326 69.4712 37.1345 69.4664 37.8729C69.4664 38.7403 68.9192 39.1728 68.3768 39.1728C68.0255 39.1728 67.7435 39.0366 67.5643 38.7164H67.5499L67.5308 39.1178H67.1509V39.1155ZM67.6073 38.1405C67.6073 38.1954 67.6169 38.2504 67.6264 38.3006C67.7124 38.6065 67.9681 38.8168 68.2883 38.8168C68.7495 38.8168 69.0267 38.4392 69.0267 37.8824C69.0267 37.3949 68.7758 36.9791 68.3051 36.9791C68.004 36.9791 67.722 37.1846 67.6336 37.5216C67.624 37.5718 67.6097 37.6315 67.6097 37.7032V38.1405H67.6073Z" fill="#54879A"/>
<path d="M71.371 39.1154L71.3351 38.8095H71.3208C71.1846 39.0007 70.9241 39.1703 70.5776 39.1703C70.0854 39.1703 69.8345 38.8238 69.8345 38.4726C69.8345 37.8847 70.3554 37.5645 71.2945 37.5693V37.5191C71.2945 37.3184 71.2396 36.9576 70.7425 36.9576C70.5155 36.9576 70.2813 37.0269 70.1093 37.1392L70.0089 36.8476C70.2096 36.7162 70.5012 36.6326 70.807 36.6326C71.5502 36.6326 71.7294 37.1392 71.7294 37.6266V38.5347C71.7294 38.745 71.739 38.9505 71.7701 39.1178H71.371V39.1154ZM71.3065 37.8752C70.8238 37.8656 70.2789 37.9492 70.2789 38.4224C70.2789 38.7091 70.4701 38.843 70.6947 38.843C71.0102 38.843 71.2109 38.6422 71.2826 38.4367C71.2969 38.3913 71.3089 38.3411 71.3089 38.2957V37.8752H71.3065Z" fill="#54879A"/>
<path d="M72.4464 37.3422C72.4464 37.0913 72.4416 36.8858 72.4272 36.6851H72.8191L72.843 37.0865H72.8526C72.9721 36.8548 73.2541 36.6301 73.6555 36.6301C73.9924 36.6301 74.5134 36.8308 74.5134 37.6624V39.1129H74.0713V37.7126C74.0713 37.3207 73.9255 36.9957 73.5097 36.9957C73.2182 36.9957 72.9936 37.2012 72.9171 37.4474C72.898 37.5023 72.8861 37.5788 72.8861 37.6529V39.1129H72.444V37.3422H72.4464Z" fill="#54879A"/>
<path d="M75.6672 37.8011H75.6767C75.7365 37.715 75.8225 37.6099 75.8918 37.5239L76.6039 36.6851H77.1368L76.1977 37.684L77.2658 39.113H76.7282L75.8894 37.9492L75.6624 38.2001V39.113H75.2251V35.55H75.6624V37.8011H75.6672Z" fill="#54879A"/>
<path d="M80.7452 35.5524V38.4869C80.7452 38.7019 80.75 38.9481 80.7643 39.113H80.3677L80.3485 38.6924H80.339C80.2028 38.9624 79.9065 39.1679 79.5122 39.1679C78.9243 39.1679 78.4727 38.6709 78.4727 37.9349C78.4679 37.1272 78.9697 36.6302 79.5624 36.6302C79.9327 36.6302 80.1837 36.8046 80.2936 37.0005H80.3031V35.55H80.7452V35.5524ZM80.3031 37.6744C80.3031 37.6195 80.2984 37.543 80.284 37.488C80.2195 37.2061 79.9781 36.9766 79.646 36.9766C79.1896 36.9766 78.9195 37.3781 78.9195 37.9158C78.9195 38.408 79.1609 38.8143 79.6364 38.8143C79.9327 38.8143 80.2028 38.6183 80.284 38.2862C80.2984 38.2264 80.3031 38.1667 80.3031 38.095V37.6744Z" fill="#54879A"/>
<path d="M81.7253 37.9803C81.7348 38.5777 82.1172 38.8238 82.5592 38.8238C82.8747 38.8238 83.0658 38.7689 83.2307 38.6996L83.3072 39.015C83.1519 39.0843 82.8866 39.1656 82.4995 39.1656C81.7515 39.1656 81.3047 38.6733 81.3047 37.9421C81.3047 37.2109 81.7372 36.6326 82.4445 36.6326C83.2379 36.6326 83.4482 37.3303 83.4482 37.7772C83.4482 37.868 83.4386 37.9373 83.4338 37.9827H81.7253V37.9803ZM83.018 37.6649C83.0228 37.3829 82.9033 36.948 82.4063 36.948C81.9594 36.948 81.7635 37.359 81.73 37.6649H83.018Z" fill="#54879A"/>
<path d="M83.9928 37.4784C83.9928 37.1678 83.9832 36.9169 83.9736 36.6851H84.3703L84.3894 37.1009H84.399C84.5806 36.8046 84.865 36.6301 85.2616 36.6301C85.8495 36.6301 86.2892 37.1272 86.2892 37.8632C86.2892 38.7354 85.7563 39.1679 85.1852 39.1679C84.865 39.1679 84.583 39.0269 84.4372 38.7856H84.4277V40.1046H83.9904V37.4784H83.9928ZM84.43 38.126C84.43 38.1905 84.4396 38.2527 84.4492 38.3076C84.5304 38.6135 84.7957 38.8238 85.1111 38.8238C85.5771 38.8238 85.8495 38.4415 85.8495 37.8847C85.8495 37.3972 85.5938 36.9814 85.1278 36.9814C84.8267 36.9814 84.5448 37.1965 84.4611 37.5286C84.4468 37.5836 84.43 37.6481 84.43 37.7102V38.126Z" fill="#54879A"/>
<path d="M89.0443 37.8799C89.0443 38.7784 88.423 39.1703 87.8351 39.1703C87.178 39.1703 86.6714 38.6876 86.6714 37.9205C86.6714 37.108 87.2043 36.6301 87.8758 36.6301C88.5735 36.6301 89.0443 37.1367 89.0443 37.8799ZM87.1182 37.9062C87.1182 38.4391 87.4241 38.8405 87.8566 38.8405C88.2772 38.8405 88.595 38.4438 88.595 37.8966C88.595 37.4856 88.3895 36.9623 87.8686 36.9623C87.3476 36.9623 87.1182 37.4426 87.1182 37.9062Z" fill="#54879A"/>
<path d="M89.5416 38.6637C89.6706 38.7498 89.9024 38.8406 90.1246 38.8406C90.4448 38.8406 90.5954 38.6805 90.5954 38.4797C90.5954 38.2695 90.4711 38.1524 90.1437 38.0329C89.7064 37.8776 89.5009 37.6362 89.5009 37.3447C89.5009 36.9528 89.8164 36.6326 90.3397 36.6326C90.5858 36.6326 90.8009 36.7019 90.9371 36.7831L90.8272 37.1033C90.7316 37.0436 90.5571 36.9623 90.3301 36.9623C90.0697 36.9623 89.9239 37.1129 89.9239 37.2945C89.9239 37.4952 90.0697 37.586 90.3851 37.7055C90.8057 37.8656 91.0231 38.0759 91.0231 38.4391C91.0231 38.8645 90.691 39.1656 90.1151 39.1656C89.8498 39.1656 89.6037 39.101 89.4316 39.0007L89.5416 38.6637Z" fill="#54879A"/>
<path d="M92.0814 36.0041C92.0862 36.1546 91.9763 36.2741 91.7994 36.2741C91.6441 36.2741 91.5342 36.1546 91.5342 36.0041C91.5342 35.8488 91.6489 35.7293 91.8114 35.7293C91.9763 35.7269 92.0814 35.8488 92.0814 36.0041ZM91.5891 39.1154V36.6875H92.0312V39.1154H91.5891Z" fill="#54879A"/>
<path d="M93.2955 35.9897V36.6875H93.9263V37.0245H93.2955V38.334C93.2955 38.6351 93.3815 38.8047 93.6253 38.8047C93.74 38.8047 93.826 38.7904 93.8809 38.7737L93.9 39.1058C93.814 39.1416 93.6802 39.1655 93.5082 39.1655C93.3027 39.1655 93.1378 39.101 93.0326 38.9792C92.906 38.8477 92.863 38.6327 92.863 38.3459V37.0221H92.4878V36.6851H92.863V36.1021L93.2955 35.9897Z" fill="#54879A"/>
<path d="M94.3638 38.6637C94.4952 38.7498 94.7247 38.8406 94.9469 38.8406C95.2671 38.8406 95.4176 38.6805 95.4176 38.4797C95.4176 38.2695 95.291 38.1524 94.966 38.0329C94.5287 37.8776 94.3232 37.6362 94.3232 37.3447C94.3232 36.9528 94.6386 36.6326 95.162 36.6326C95.4081 36.6326 95.6232 36.7019 95.7594 36.7831L95.6494 37.1033C95.5538 37.0436 95.3794 36.9623 95.1524 36.9623C94.8919 36.9623 94.7462 37.1129 94.7462 37.2945C94.7462 37.4952 94.8919 37.586 95.2074 37.7055C95.6279 37.8656 95.8454 38.0759 95.8454 38.4391C95.8454 38.8645 95.5132 39.1656 94.9373 39.1656C94.6721 39.1656 94.426 39.101 94.2539 39.0007L94.3638 38.6637Z" fill="#54879A"/>
</svg>
