<svg width="1440" height="52" viewBox="0 0 1440 52" fill="none" xmlns="http://www.w3.org/2000/svg">
<g opacity="0.1">
<rect x="77" width="10.3331" height="41.3324" transform="rotate(90 77 0)" fill="#FCF5F2"/>
<rect width="10.3331" height="41.3324" transform="matrix(-1 0 0 1 77 0)" fill="#FCF5F2"/>
<rect width="10.3331" height="30.9993" transform="matrix(-1 0 0 1 25.3359 20.667)" fill="#FCF5F2"/>
<rect width="10.3331" height="30.9993" transform="matrix(-1.31134e-07 1 1 1.31134e-07 25.3281 51.667)" fill="#FCF5F2"/>
<rect width="10.3331" height="10.3331" transform="matrix(-1 0 0 1 56.3359 20.667)" fill="#FCF5F2"/>
<rect width="10.3331" height="10.3331" transform="matrix(-1 0 0 1 35.6719 10.335)" fill="#FCF5F2"/>
<rect width="10.3331" height="10.3331" transform="matrix(-1 0 0 1 66.6719 41.3311)" fill="#FCF5F2"/>
<rect width="10.3331" height="10.3331" transform="matrix(-1 0 0 1 46 30.999)" fill="#FCF5F2"/>
<rect width="10.3331" height="10.3331" transform="matrix(-1 0 0 1 35.6641 41.332)" fill="#FCF5F2"/>
<rect x="179.992" width="10.3331" height="41.3324" transform="rotate(90 179.992 0)" fill="#FCF5F2"/>
<rect width="10.3331" height="41.3324" transform="matrix(-1 0 0 1 179.992 0)" fill="#FCF5F2"/>
<rect width="10.3331" height="30.9993" transform="matrix(-1 0 0 1 128.328 20.667)" fill="#FCF5F2"/>
<rect width="10.3331" height="30.9993" transform="matrix(-1.31134e-07 1 1 1.31134e-07 128.32 51.667)" fill="#FCF5F2"/>
<rect width="10.3331" height="10.3331" transform="matrix(-1 0 0 1 159.328 20.667)" fill="#FCF5F2"/>
<rect width="10.3331" height="10.3331" transform="matrix(-1 0 0 1 138.664 10.335)" fill="#FCF5F2"/>
<rect width="10.3331" height="10.3331" transform="matrix(-1 0 0 1 169.664 41.3311)" fill="#FCF5F2"/>
<rect width="10.3331" height="10.3331" transform="matrix(-1 0 0 1 148.992 30.999)" fill="#FCF5F2"/>
<rect width="10.3331" height="10.3331" transform="matrix(-1 0 0 1 138.656 41.332)" fill="#FCF5F2"/>
<rect x="282.992" width="10.3331" height="41.3324" transform="rotate(90 282.992 0)" fill="#FCF5F2"/>
<rect width="10.3331" height="41.3324" transform="matrix(-1 0 0 1 282.992 0)" fill="#FCF5F2"/>
<rect width="10.3331" height="30.9993" transform="matrix(-1 0 0 1 231.328 20.667)" fill="#FCF5F2"/>
<rect width="10.3331" height="30.9993" transform="matrix(-1.31134e-07 1 1 1.31134e-07 231.32 51.667)" fill="#FCF5F2"/>
<rect width="10.3331" height="10.3331" transform="matrix(-1 0 0 1 262.328 20.667)" fill="#FCF5F2"/>
<rect width="10.3331" height="10.3331" transform="matrix(-1 0 0 1 241.656 10.335)" fill="#FCF5F2"/>
<rect width="10.3331" height="10.3331" transform="matrix(-1 0 0 1 272.664 41.3311)" fill="#FCF5F2"/>
<rect width="10.3331" height="10.3331" transform="matrix(-1 0 0 1 251.992 30.999)" fill="#FCF5F2"/>
<rect width="10.3331" height="10.3331" transform="matrix(-1 0 0 1 241.656 41.332)" fill="#FCF5F2"/>
<rect x="385.984" width="10.3331" height="41.3324" transform="rotate(90 385.984 0)" fill="#FCF5F2"/>
<rect width="10.3331" height="41.3324" transform="matrix(-1 0 0 1 385.984 0)" fill="#FCF5F2"/>
<rect width="10.3331" height="30.9993" transform="matrix(-1 0 0 1 334.32 20.667)" fill="#FCF5F2"/>
<rect width="10.3331" height="30.9993" transform="matrix(-1.31134e-07 1 1 1.31134e-07 334.312 51.667)" fill="#FCF5F2"/>
<rect width="10.3331" height="10.3331" transform="matrix(-1 0 0 1 365.32 20.667)" fill="#FCF5F2"/>
<rect width="10.3331" height="10.3331" transform="matrix(-1 0 0 1 344.648 10.335)" fill="#FCF5F2"/>
<rect width="10.3331" height="10.3331" transform="matrix(-1 0 0 1 375.656 41.3311)" fill="#FCF5F2"/>
<rect width="10.3331" height="10.3331" transform="matrix(-1 0 0 1 354.984 30.999)" fill="#FCF5F2"/>
<rect width="10.3331" height="10.3331" transform="matrix(-1 0 0 1 344.648 41.332)" fill="#FCF5F2"/>
<rect x="488.984" width="10.3331" height="41.3324" transform="rotate(90 488.984 0)" fill="#FCF5F2"/>
<rect width="10.3331" height="41.3324" transform="matrix(-1 0 0 1 488.984 0)" fill="#FCF5F2"/>
<rect width="10.3331" height="30.9993" transform="matrix(-1 0 0 1 437.32 20.667)" fill="#FCF5F2"/>
<rect width="10.3331" height="30.9993" transform="matrix(-1.31134e-07 1 1 1.31134e-07 437.312 51.667)" fill="#FCF5F2"/>
<rect width="10.3331" height="10.3331" transform="matrix(-1 0 0 1 468.32 20.667)" fill="#FCF5F2"/>
<rect width="10.3331" height="10.3331" transform="matrix(-1 0 0 1 447.656 10.335)" fill="#FCF5F2"/>
<rect width="10.3331" height="10.3331" transform="matrix(-1 0 0 1 478.656 41.3311)" fill="#FCF5F2"/>
<rect width="10.3331" height="10.3331" transform="matrix(-1 0 0 1 457.984 30.999)" fill="#FCF5F2"/>
<rect width="10.3331" height="10.3331" transform="matrix(-1 0 0 1 447.648 41.332)" fill="#FCF5F2"/>
<rect x="591.984" width="10.3331" height="41.3324" transform="rotate(90 591.984 0)" fill="#FCF5F2"/>
<rect width="10.3331" height="41.3324" transform="matrix(-1 0 0 1 591.984 0)" fill="#FCF5F2"/>
<rect width="10.3331" height="30.9993" transform="matrix(-1 0 0 1 540.32 20.667)" fill="#FCF5F2"/>
<rect width="10.3331" height="30.9993" transform="matrix(-1.31134e-07 1 1 1.31134e-07 540.312 51.667)" fill="#FCF5F2"/>
<rect width="10.3331" height="10.3331" transform="matrix(-1 0 0 1 571.32 20.667)" fill="#FCF5F2"/>
<rect width="10.3331" height="10.3331" transform="matrix(-1 0 0 1 550.656 10.335)" fill="#FCF5F2"/>
<rect width="10.3331" height="10.3331" transform="matrix(-1 0 0 1 581.656 41.3311)" fill="#FCF5F2"/>
<rect width="10.3331" height="10.3331" transform="matrix(-1 0 0 1 560.984 30.999)" fill="#FCF5F2"/>
<rect width="10.3331" height="10.3331" transform="matrix(-1 0 0 1 550.648 41.332)" fill="#FCF5F2"/>
<rect x="694.977" width="10.3331" height="41.3324" transform="rotate(90 694.977 0)" fill="#FCF5F2"/>
<rect width="10.3331" height="41.3324" transform="matrix(-1 0 0 1 694.977 0)" fill="#FCF5F2"/>
<rect width="10.3331" height="30.9993" transform="matrix(-1 0 0 1 643.312 20.667)" fill="#FCF5F2"/>
<rect width="10.3331" height="30.9993" transform="matrix(-1.31134e-07 1 1 1.31134e-07 643.305 51.667)" fill="#FCF5F2"/>
<rect width="10.3331" height="10.3331" transform="matrix(-1 0 0 1 674.312 20.667)" fill="#FCF5F2"/>
<rect width="10.3331" height="10.3331" transform="matrix(-1 0 0 1 653.648 10.335)" fill="#FCF5F2"/>
<rect width="10.3331" height="10.3331" transform="matrix(-1 0 0 1 684.648 41.3311)" fill="#FCF5F2"/>
<rect width="10.3331" height="10.3331" transform="matrix(-1 0 0 1 663.977 30.999)" fill="#FCF5F2"/>
<rect width="10.3331" height="10.3331" transform="matrix(-1 0 0 1 653.641 41.332)" fill="#FCF5F2"/>
<rect x="797.977" width="10.3331" height="41.3324" transform="rotate(90 797.977 0)" fill="#FCF5F2"/>
<rect width="10.3331" height="41.3324" transform="matrix(-1 0 0 1 797.977 0)" fill="#FCF5F2"/>
<rect width="10.3331" height="30.9993" transform="matrix(-1 0 0 1 746.312 20.667)" fill="#FCF5F2"/>
<rect width="10.3331" height="30.9993" transform="matrix(-1.31134e-07 1 1 1.31134e-07 746.305 51.667)" fill="#FCF5F2"/>
<rect width="10.3331" height="10.3331" transform="matrix(-1 0 0 1 777.312 20.667)" fill="#FCF5F2"/>
<rect width="10.3331" height="10.3331" transform="matrix(-1 0 0 1 756.641 10.335)" fill="#FCF5F2"/>
<rect width="10.3331" height="10.3331" transform="matrix(-1 0 0 1 787.648 41.3311)" fill="#FCF5F2"/>
<rect width="10.3331" height="10.3331" transform="matrix(-1 0 0 1 766.977 30.999)" fill="#FCF5F2"/>
<rect width="10.3331" height="10.3331" transform="matrix(-1 0 0 1 756.641 41.332)" fill="#FCF5F2"/>
<rect x="900.969" width="10.3331" height="41.3324" transform="rotate(90 900.969 0)" fill="#FCF5F2"/>
<rect width="10.3331" height="41.3324" transform="matrix(-1 0 0 1 900.969 0)" fill="#FCF5F2"/>
<rect width="10.3331" height="30.9993" transform="matrix(-1 0 0 1 849.305 20.667)" fill="#FCF5F2"/>
<rect width="10.3331" height="30.9993" transform="matrix(-1.31134e-07 1 1 1.31134e-07 849.297 51.667)" fill="#FCF5F2"/>
<rect width="10.3331" height="10.3331" transform="matrix(-1 0 0 1 880.305 20.667)" fill="#FCF5F2"/>
<rect width="10.3331" height="10.3331" transform="matrix(-1 0 0 1 859.633 10.335)" fill="#FCF5F2"/>
<rect width="10.3331" height="10.3331" transform="matrix(-1 0 0 1 890.641 41.3311)" fill="#FCF5F2"/>
<rect width="10.3331" height="10.3331" transform="matrix(-1 0 0 1 869.969 30.999)" fill="#FCF5F2"/>
<rect width="10.3331" height="10.3331" transform="matrix(-1 0 0 1 859.633 41.332)" fill="#FCF5F2"/>
<rect x="1003.97" width="10.3331" height="41.3324" transform="rotate(90 1003.97 0)" fill="#FCF5F2"/>
<rect width="10.3331" height="41.3324" transform="matrix(-1 0 0 1 1003.97 0)" fill="#FCF5F2"/>
<rect width="10.3331" height="30.9993" transform="matrix(-1 0 0 1 952.305 20.667)" fill="#FCF5F2"/>
<rect width="10.3331" height="30.9993" transform="matrix(-1.31134e-07 1 1 1.31134e-07 952.297 51.667)" fill="#FCF5F2"/>
<rect width="10.3331" height="10.3331" transform="matrix(-1 0 0 1 983.305 20.667)" fill="#FCF5F2"/>
<rect width="10.3331" height="10.3331" transform="matrix(-1 0 0 1 962.641 10.335)" fill="#FCF5F2"/>
<rect width="10.3331" height="10.3331" transform="matrix(-1 0 0 1 993.641 41.3311)" fill="#FCF5F2"/>
<rect width="10.3331" height="10.3331" transform="matrix(-1 0 0 1 972.969 30.999)" fill="#FCF5F2"/>
<rect width="10.3331" height="10.3331" transform="matrix(-1 0 0 1 962.633 41.332)" fill="#FCF5F2"/>
<rect x="1106.97" width="10.3331" height="41.3324" transform="rotate(90 1106.97 0)" fill="#FCF5F2"/>
<rect width="10.3331" height="41.3324" transform="matrix(-1 0 0 1 1106.97 0)" fill="#FCF5F2"/>
<rect width="10.3331" height="30.9993" transform="matrix(-1 0 0 1 1055.3 20.667)" fill="#FCF5F2"/>
<rect width="10.3331" height="30.9993" transform="matrix(-1.31134e-07 1 1 1.31134e-07 1055.3 51.667)" fill="#FCF5F2"/>
<rect width="10.3331" height="10.3331" transform="matrix(-1 0 0 1 1086.3 20.667)" fill="#FCF5F2"/>
<rect width="10.3331" height="10.3331" transform="matrix(-1 0 0 1 1065.64 10.335)" fill="#FCF5F2"/>
<rect width="10.3331" height="10.3331" transform="matrix(-1 0 0 1 1096.64 41.3311)" fill="#FCF5F2"/>
<rect width="10.3331" height="10.3331" transform="matrix(-1 0 0 1 1075.97 30.999)" fill="#FCF5F2"/>
<rect width="10.3331" height="10.3331" transform="matrix(-1 0 0 1 1065.63 41.332)" fill="#FCF5F2"/>
<rect x="1209.96" width="10.3331" height="41.3324" transform="rotate(90 1209.96 0)" fill="#FCF5F2"/>
<rect width="10.3331" height="41.3324" transform="matrix(-1 0 0 1 1209.96 0)" fill="#FCF5F2"/>
<rect width="10.3331" height="30.9993" transform="matrix(-1 0 0 1 1158.3 20.667)" fill="#FCF5F2"/>
<rect width="10.3331" height="30.9993" transform="matrix(-1.31134e-07 1 1 1.31134e-07 1158.29 51.667)" fill="#FCF5F2"/>
<rect width="10.3331" height="10.3331" transform="matrix(-1 0 0 1 1189.3 20.667)" fill="#FCF5F2"/>
<rect width="10.3331" height="10.3331" transform="matrix(-1 0 0 1 1168.63 10.335)" fill="#FCF5F2"/>
<rect width="10.3331" height="10.3331" transform="matrix(-1 0 0 1 1199.63 41.3311)" fill="#FCF5F2"/>
<rect width="10.3331" height="10.3331" transform="matrix(-1 0 0 1 1178.96 30.999)" fill="#FCF5F2"/>
<rect width="10.3331" height="10.3331" transform="matrix(-1 0 0 1 1168.62 41.332)" fill="#FCF5F2"/>
<rect x="1312.96" width="10.3331" height="41.3324" transform="rotate(90 1312.96 0)" fill="#FCF5F2"/>
<rect width="10.3331" height="41.3324" transform="matrix(-1 0 0 1 1312.96 0)" fill="#FCF5F2"/>
<rect width="10.3331" height="30.9993" transform="matrix(-1 0 0 1 1261.3 20.667)" fill="#FCF5F2"/>
<rect width="10.3331" height="30.9993" transform="matrix(-1.31134e-07 1 1 1.31134e-07 1261.29 51.667)" fill="#FCF5F2"/>
<rect width="10.3331" height="10.3331" transform="matrix(-1 0 0 1 1292.3 20.667)" fill="#FCF5F2"/>
<rect width="10.3331" height="10.3331" transform="matrix(-1 0 0 1 1271.63 10.335)" fill="#FCF5F2"/>
<rect width="10.3331" height="10.3331" transform="matrix(-1 0 0 1 1302.63 41.3311)" fill="#FCF5F2"/>
<rect width="10.3331" height="10.3331" transform="matrix(-1 0 0 1 1281.96 30.999)" fill="#FCF5F2"/>
<rect width="10.3331" height="10.3331" transform="matrix(-1 0 0 1 1271.62 41.332)" fill="#FCF5F2"/>
<rect x="1415.95" width="10.3331" height="41.3324" transform="rotate(90 1415.95 0)" fill="#FCF5F2"/>
<rect width="10.3331" height="41.3324" transform="matrix(-1 0 0 1 1415.95 0)" fill="#FCF5F2"/>
<rect width="10.3331" height="30.9993" transform="matrix(-1 0 0 1 1364.29 20.667)" fill="#FCF5F2"/>
<rect width="10.3331" height="30.9993" transform="matrix(-1.31134e-07 1 1 1.31134e-07 1364.28 51.667)" fill="#FCF5F2"/>
<rect width="10.3331" height="10.3331" transform="matrix(-1 0 0 1 1395.29 20.667)" fill="#FCF5F2"/>
<rect width="10.3331" height="10.3331" transform="matrix(-1 0 0 1 1374.62 10.335)" fill="#FCF5F2"/>
<rect width="10.3331" height="10.3331" transform="matrix(-1 0 0 1 1405.62 41.3311)" fill="#FCF5F2"/>
<rect width="10.3331" height="10.3331" transform="matrix(-1 0 0 1 1384.95 30.999)" fill="#FCF5F2"/>
<rect width="10.3331" height="10.3331" transform="matrix(-1 0 0 1 1374.62 41.332)" fill="#FCF5F2"/>
</g>
</svg>
