<svg width="1440" height="51" viewBox="0 0 1440 51" fill="none" xmlns="http://www.w3.org/2000/svg">
<g opacity="0.1">
<rect width="10.3331" height="41.3324" transform="matrix(-1 0 0 1 84.9922 -11)" fill="#FCF5F2"/>
<rect width="10.3331" height="30.9993" transform="matrix(-1 0 0 1 33.3281 9.66699)" fill="#FCF5F2"/>
<rect width="10.3331" height="30.9993" transform="matrix(-1.31134e-07 1 1 1.31134e-07 33.3203 40.667)" fill="#FCF5F2"/>
<rect width="10.3331" height="10.3331" transform="matrix(-1 0 0 1 64.3281 9.66699)" fill="#FCF5F2"/>
<rect width="10.3331" height="10.3331" transform="matrix(-1 0 0 1 43.6641 -0.665039)" fill="#FCF5F2"/>
<rect width="10.3331" height="10.3331" transform="matrix(-1 0 0 1 74.6641 30.3311)" fill="#FCF5F2"/>
<rect width="10.3331" height="10.3331" transform="matrix(-1 0 0 1 53.9922 19.999)" fill="#FCF5F2"/>
<rect width="10.3331" height="10.3331" transform="matrix(-1 0 0 1 43.6562 30.332)" fill="#FCF5F2"/>
<rect width="10.3331" height="41.3324" transform="matrix(-1 0 0 1 187.992 -11)" fill="#FCF5F2"/>
<rect width="10.3331" height="30.9993" transform="matrix(-1 0 0 1 136.328 9.66699)" fill="#FCF5F2"/>
<rect width="10.3331" height="30.9993" transform="matrix(-1.31134e-07 1 1 1.31134e-07 136.32 40.667)" fill="#FCF5F2"/>
<rect width="10.3331" height="10.3331" transform="matrix(-1 0 0 1 167.328 9.66699)" fill="#FCF5F2"/>
<rect width="10.3331" height="10.3331" transform="matrix(-1 0 0 1 146.656 -0.665039)" fill="#FCF5F2"/>
<rect width="10.3331" height="10.3331" transform="matrix(-1 0 0 1 177.664 30.3311)" fill="#FCF5F2"/>
<rect width="10.3331" height="10.3331" transform="matrix(-1 0 0 1 156.992 19.999)" fill="#FCF5F2"/>
<rect width="10.3331" height="10.3331" transform="matrix(-1 0 0 1 146.656 30.332)" fill="#FCF5F2"/>
<rect width="10.3331" height="41.3324" transform="matrix(-1 0 0 1 290.984 -11)" fill="#FCF5F2"/>
<rect width="10.3331" height="30.9993" transform="matrix(-1 0 0 1 239.32 9.66699)" fill="#FCF5F2"/>
<rect width="10.3331" height="30.9993" transform="matrix(-1.31134e-07 1 1 1.31134e-07 239.312 40.667)" fill="#FCF5F2"/>
<rect width="10.3331" height="10.3331" transform="matrix(-1 0 0 1 270.32 9.66699)" fill="#FCF5F2"/>
<rect width="10.3331" height="10.3331" transform="matrix(-1 0 0 1 249.648 -0.665039)" fill="#FCF5F2"/>
<rect width="10.3331" height="10.3331" transform="matrix(-1 0 0 1 280.656 30.3311)" fill="#FCF5F2"/>
<rect width="10.3331" height="10.3331" transform="matrix(-1 0 0 1 259.984 19.999)" fill="#FCF5F2"/>
<rect width="10.3331" height="10.3331" transform="matrix(-1 0 0 1 249.648 30.332)" fill="#FCF5F2"/>
<rect width="10.3331" height="41.3324" transform="matrix(-1 0 0 1 393.984 -11)" fill="#FCF5F2"/>
<rect width="10.3331" height="30.9993" transform="matrix(-1 0 0 1 342.32 9.66699)" fill="#FCF5F2"/>
<rect width="10.3331" height="30.9993" transform="matrix(-1.31134e-07 1 1 1.31134e-07 342.312 40.667)" fill="#FCF5F2"/>
<rect width="10.3331" height="10.3331" transform="matrix(-1 0 0 1 373.32 9.66699)" fill="#FCF5F2"/>
<rect width="10.3331" height="10.3331" transform="matrix(-1 0 0 1 352.656 -0.665039)" fill="#FCF5F2"/>
<rect width="10.3331" height="10.3331" transform="matrix(-1 0 0 1 383.656 30.3311)" fill="#FCF5F2"/>
<rect width="10.3331" height="10.3331" transform="matrix(-1 0 0 1 362.984 19.999)" fill="#FCF5F2"/>
<rect width="10.3331" height="10.3331" transform="matrix(-1 0 0 1 352.648 30.332)" fill="#FCF5F2"/>
<rect width="10.3331" height="41.3324" transform="matrix(-1 0 0 1 496.984 -11)" fill="#FCF5F2"/>
<rect width="10.3331" height="30.9993" transform="matrix(-1 0 0 1 445.32 9.66699)" fill="#FCF5F2"/>
<rect width="10.3331" height="30.9993" transform="matrix(-1.31134e-07 1 1 1.31134e-07 445.312 40.667)" fill="#FCF5F2"/>
<rect width="10.3331" height="10.3331" transform="matrix(-1 0 0 1 476.32 9.66699)" fill="#FCF5F2"/>
<rect width="10.3331" height="10.3331" transform="matrix(-1 0 0 1 455.656 -0.665039)" fill="#FCF5F2"/>
<rect width="10.3331" height="10.3331" transform="matrix(-1 0 0 1 486.656 30.3311)" fill="#FCF5F2"/>
<rect width="10.3331" height="10.3331" transform="matrix(-1 0 0 1 465.984 19.999)" fill="#FCF5F2"/>
<rect width="10.3331" height="10.3331" transform="matrix(-1 0 0 1 455.648 30.332)" fill="#FCF5F2"/>
<rect width="10.3331" height="41.3324" transform="matrix(-1 0 0 1 599.977 -11)" fill="#FCF5F2"/>
<rect width="10.3331" height="30.9993" transform="matrix(-1 0 0 1 548.312 9.66699)" fill="#FCF5F2"/>
<rect width="10.3331" height="30.9993" transform="matrix(-1.31134e-07 1 1 1.31134e-07 548.305 40.667)" fill="#FCF5F2"/>
<rect width="10.3331" height="10.3331" transform="matrix(-1 0 0 1 579.312 9.66699)" fill="#FCF5F2"/>
<rect width="10.3331" height="10.3331" transform="matrix(-1 0 0 1 558.648 -0.665039)" fill="#FCF5F2"/>
<rect width="10.3331" height="10.3331" transform="matrix(-1 0 0 1 589.648 30.3311)" fill="#FCF5F2"/>
<rect width="10.3331" height="10.3331" transform="matrix(-1 0 0 1 568.977 19.999)" fill="#FCF5F2"/>
<rect width="10.3331" height="10.3331" transform="matrix(-1 0 0 1 558.641 30.332)" fill="#FCF5F2"/>
<rect width="10.3331" height="41.3324" transform="matrix(-1 0 0 1 702.977 -11)" fill="#FCF5F2"/>
<rect width="10.3331" height="30.9993" transform="matrix(-1 0 0 1 651.312 9.66699)" fill="#FCF5F2"/>
<rect width="10.3331" height="30.9993" transform="matrix(-1.31134e-07 1 1 1.31134e-07 651.305 40.667)" fill="#FCF5F2"/>
<rect width="10.3331" height="10.3331" transform="matrix(-1 0 0 1 682.312 9.66699)" fill="#FCF5F2"/>
<rect width="10.3331" height="10.3331" transform="matrix(-1 0 0 1 661.641 -0.665039)" fill="#FCF5F2"/>
<rect width="10.3331" height="10.3331" transform="matrix(-1 0 0 1 692.648 30.3311)" fill="#FCF5F2"/>
<rect width="10.3331" height="10.3331" transform="matrix(-1 0 0 1 671.977 19.999)" fill="#FCF5F2"/>
<rect width="10.3331" height="10.3331" transform="matrix(-1 0 0 1 661.641 30.332)" fill="#FCF5F2"/>
<rect width="10.3331" height="41.3324" transform="matrix(-1 0 0 1 805.969 -11)" fill="#FCF5F2"/>
<rect width="10.3331" height="30.9993" transform="matrix(-1 0 0 1 754.305 9.66699)" fill="#FCF5F2"/>
<rect width="10.3331" height="30.9993" transform="matrix(-1.31134e-07 1 1 1.31134e-07 754.297 40.667)" fill="#FCF5F2"/>
<rect width="10.3331" height="10.3331" transform="matrix(-1 0 0 1 785.305 9.66699)" fill="#FCF5F2"/>
<rect width="10.3331" height="10.3331" transform="matrix(-1 0 0 1 764.633 -0.665039)" fill="#FCF5F2"/>
<rect width="10.3331" height="10.3331" transform="matrix(-1 0 0 1 795.641 30.3311)" fill="#FCF5F2"/>
<rect width="10.3331" height="10.3331" transform="matrix(-1 0 0 1 774.969 19.999)" fill="#FCF5F2"/>
<rect width="10.3331" height="10.3331" transform="matrix(-1 0 0 1 764.633 30.332)" fill="#FCF5F2"/>
<rect width="10.3331" height="41.3324" transform="matrix(-1 0 0 1 908.969 -11)" fill="#FCF5F2"/>
<rect width="10.3331" height="30.9993" transform="matrix(-1 0 0 1 857.305 9.66699)" fill="#FCF5F2"/>
<rect width="10.3331" height="30.9993" transform="matrix(-1.31134e-07 1 1 1.31134e-07 857.297 40.667)" fill="#FCF5F2"/>
<rect width="10.3331" height="10.3331" transform="matrix(-1 0 0 1 888.305 9.66699)" fill="#FCF5F2"/>
<rect width="10.3331" height="10.3331" transform="matrix(-1 0 0 1 867.641 -0.665039)" fill="#FCF5F2"/>
<rect width="10.3331" height="10.3331" transform="matrix(-1 0 0 1 898.641 30.3311)" fill="#FCF5F2"/>
<rect width="10.3331" height="10.3331" transform="matrix(-1 0 0 1 877.969 19.999)" fill="#FCF5F2"/>
<rect width="10.3331" height="10.3331" transform="matrix(-1 0 0 1 867.633 30.332)" fill="#FCF5F2"/>
<rect width="10.3331" height="41.3324" transform="matrix(-1 0 0 1 1011.97 -11)" fill="#FCF5F2"/>
<rect width="10.3331" height="30.9993" transform="matrix(-1 0 0 1 960.305 9.66699)" fill="#FCF5F2"/>
<rect width="10.3331" height="30.9993" transform="matrix(-1.31134e-07 1 1 1.31134e-07 960.297 40.667)" fill="#FCF5F2"/>
<rect width="10.3331" height="10.3331" transform="matrix(-1 0 0 1 991.305 9.66699)" fill="#FCF5F2"/>
<rect width="10.3331" height="10.3331" transform="matrix(-1 0 0 1 970.641 -0.665039)" fill="#FCF5F2"/>
<rect width="10.3331" height="10.3331" transform="matrix(-1 0 0 1 1001.64 30.3311)" fill="#FCF5F2"/>
<rect width="10.3331" height="10.3331" transform="matrix(-1 0 0 1 980.969 19.999)" fill="#FCF5F2"/>
<rect width="10.3331" height="10.3331" transform="matrix(-1 0 0 1 970.633 30.332)" fill="#FCF5F2"/>
<rect width="10.3331" height="41.3324" transform="matrix(-1 0 0 1 1114.96 -11)" fill="#FCF5F2"/>
<rect width="10.3331" height="30.9993" transform="matrix(-1 0 0 1 1063.3 9.66699)" fill="#FCF5F2"/>
<rect width="10.3331" height="30.9993" transform="matrix(-1.31134e-07 1 1 1.31134e-07 1063.29 40.667)" fill="#FCF5F2"/>
<rect width="10.3331" height="10.3331" transform="matrix(-1 0 0 1 1094.3 9.66699)" fill="#FCF5F2"/>
<rect width="10.3331" height="10.3331" transform="matrix(-1 0 0 1 1073.63 -0.665039)" fill="#FCF5F2"/>
<rect width="10.3331" height="10.3331" transform="matrix(-1 0 0 1 1104.63 30.3311)" fill="#FCF5F2"/>
<rect width="10.3331" height="10.3331" transform="matrix(-1 0 0 1 1083.96 19.999)" fill="#FCF5F2"/>
<rect width="10.3331" height="10.3331" transform="matrix(-1 0 0 1 1073.62 30.332)" fill="#FCF5F2"/>
<rect width="10.3331" height="41.3324" transform="matrix(-1 0 0 1 1217.96 -11)" fill="#FCF5F2"/>
<rect width="10.3331" height="30.9993" transform="matrix(-1 0 0 1 1166.3 9.66699)" fill="#FCF5F2"/>
<rect width="10.3331" height="30.9993" transform="matrix(-1.31134e-07 1 1 1.31134e-07 1166.29 40.667)" fill="#FCF5F2"/>
<rect width="10.3331" height="10.3331" transform="matrix(-1 0 0 1 1197.3 9.66699)" fill="#FCF5F2"/>
<rect width="10.3331" height="10.3331" transform="matrix(-1 0 0 1 1176.63 -0.665039)" fill="#FCF5F2"/>
<rect width="10.3331" height="10.3331" transform="matrix(-1 0 0 1 1207.63 30.3311)" fill="#FCF5F2"/>
<rect width="10.3331" height="10.3331" transform="matrix(-1 0 0 1 1186.96 19.999)" fill="#FCF5F2"/>
<rect width="10.3331" height="10.3331" transform="matrix(-1 0 0 1 1176.62 30.332)" fill="#FCF5F2"/>
<rect width="10.3331" height="41.3324" transform="matrix(-1 0 0 1 1320.95 -11)" fill="#FCF5F2"/>
<rect width="10.3331" height="30.9993" transform="matrix(-1 0 0 1 1269.29 9.66699)" fill="#FCF5F2"/>
<rect width="10.3331" height="30.9993" transform="matrix(-1.31134e-07 1 1 1.31134e-07 1269.28 40.667)" fill="#FCF5F2"/>
<rect width="10.3331" height="10.3331" transform="matrix(-1 0 0 1 1300.29 9.66699)" fill="#FCF5F2"/>
<rect width="10.3331" height="10.3331" transform="matrix(-1 0 0 1 1279.62 -0.665039)" fill="#FCF5F2"/>
<rect width="10.3331" height="10.3331" transform="matrix(-1 0 0 1 1310.62 30.3311)" fill="#FCF5F2"/>
<rect width="10.3331" height="10.3331" transform="matrix(-1 0 0 1 1289.95 19.999)" fill="#FCF5F2"/>
<rect width="10.3331" height="10.3331" transform="matrix(-1 0 0 1 1279.62 30.332)" fill="#FCF5F2"/>
<rect width="10.3331" height="41.3324" transform="matrix(-1 0 0 1 1423.95 -11)" fill="#FCF5F2"/>
<rect width="10.3331" height="30.9993" transform="matrix(-1 0 0 1 1372.29 9.66699)" fill="#FCF5F2"/>
<rect width="10.3331" height="30.9993" transform="matrix(-1.31134e-07 1 1 1.31134e-07 1372.28 40.667)" fill="#FCF5F2"/>
<rect width="10.3331" height="10.3331" transform="matrix(-1 0 0 1 1403.29 9.66699)" fill="#FCF5F2"/>
<rect width="10.3331" height="10.3331" transform="matrix(-1 0 0 1 1382.62 -0.665039)" fill="#FCF5F2"/>
<rect width="10.3331" height="10.3331" transform="matrix(-1 0 0 1 1413.62 30.3311)" fill="#FCF5F2"/>
<rect width="10.3331" height="10.3331" transform="matrix(-1 0 0 1 1392.95 19.999)" fill="#FCF5F2"/>
<rect width="10.3331" height="10.3331" transform="matrix(-1 0 0 1 1382.62 30.332)" fill="#FCF5F2"/>
</g>
</svg>
