<svg width="384" height="280" viewBox="0 0 384 280" fill="none" xmlns="http://www.w3.org/2000/svg">
<rect width="79.0875" height="39.8729" transform="matrix(-1 0 0 1 118.633 0.0997314)" fill="#F8F1E8"/>
<rect width="158.175" height="39.8729" transform="matrix(-1 0 0 1 158.18 39.9744)" fill="#F8F1E8"/>
<rect width="158.175" height="39.8729" transform="matrix(-1 0 0 1 158.18 79.8492)" fill="#F8F1E8"/>
<rect width="118.631" height="39.8729" transform="matrix(-1 0 0 1 118.633 119.724)" fill="#F8F1E8"/>
<rect width="79.0875" height="39.8729" transform="matrix(-1 0 0 1 79.0859 159.593)" fill="#F8F1E8"/>
<rect width="79.0875" height="39.8728" transform="matrix(-1 0 0 1 118.633 199.462)" fill="#F8F1E8"/>
<rect width="79.0875" height="39.8728" transform="matrix(-1 0 0 1 158.18 239.337)" fill="#F8F1E8"/>
<rect width="79.0875" height="39.8729" transform="matrix(-1 0 0 1 344.453 0.0999756)" fill="#F8F1E8"/>
<rect width="158.175" height="39.8729" transform="matrix(-1 0 0 1 384 39.9746)" fill="#F8F1E8"/>
<rect width="158.175" height="39.8729" transform="matrix(-1 0 0 1 384 79.8496)" fill="#F8F1E8"/>
<rect width="118.631" height="39.8729" transform="matrix(-1 0 0 1 344.453 119.724)" fill="#F8F1E8"/>
<rect width="79.0875" height="39.8729" transform="matrix(-1 0 0 1 304.914 159.594)" fill="#F8F1E8"/>
<rect width="79.0875" height="39.8728" transform="matrix(-1 0 0 1 344.453 199.463)" fill="#F8F1E8"/>
<rect width="79.0875" height="39.8728" transform="matrix(-1 0 0 1 384 239.337)" fill="#F8F1E8"/>
</svg>
